<?xml version="1.0" encoding="UTF-8" standalone="no"?>
<!DOCTYPE svg PUBLIC "-//W3C//DTD SVG 1.1//EN" "http://www.w3.org/Graphics/SVG/1.1/DTD/svg11.dtd">
<svg width="843.00" height="911.00" viewBox="0.00 0.00 843.00 911.00" xmlns="http://www.w3.org/2000/svg" xmlns:xlink="http://www.w3.org/1999/xlink">
<g stroke-linecap="round" id="plant_pot">
<path d="M222.87,440.02 C222.87,440.02 222.41,439.55 222.41,439.55 C221.81,442.61 221.20,453.78 221.28,462.20 C221.46,469.84 222.25,483.80 222.81,490.35 C224.41,505.68 227.56,520.28 227.56,520.28 C227.73,521.31 230.67,523.73 234.39,526.94 C239.95,531.69 247.47,535.95 250.83,537.29 C250.83,537.29 251.03,537.39 251.03,537.39" fill="none" stroke="rgb(181, 148, 147)" stroke-width="9.45" stroke-opacity="1.00" stroke-linejoin="round"/>
<path d="M251.88,536.28 C251.88,536.28 251.48,536.25 251.48,536.25 C251.35,539.90 252.79,554.99 253.51,562.04 C254.61,570.68 260.41,603.62 263.32,618.40 C266.31,632.26 272.78,660.94 276.27,675.76 C280.38,691.78 288.44,717.28 292.34,727.32 C296.43,737.22 300.72,746.44 303.56,750.89 C306.10,754.82 308.77,757.24 309.17,758.55 C309.25,758.83 309.34,759.28 309.43,759.90" fill="none" stroke="rgb(181, 148, 147)" stroke-width="9.45" stroke-opacity="1.00" stroke-linejoin="round"/>
<path d="M310.13,758.24 C310.13,758.24 309.92,758.03 309.92,758.03 C309.92,758.03 310.31,758.23 311.94,759.37 C319.20,764.40 330.90,771.05 336.51,773.36 C342.01,775.59 359.04,780.05 362.99,780.98 C367.58,782.02 399.53,786.05 413.67,786.57 C419.52,786.71 435.25,786.13 442.68,785.81 C453.17,785.08 465.28,783.60 472.30,782.51 C481.50,780.95 494.02,778.29 499.77,776.40 C505.49,774.50 521.79,767.09 525.57,765.71 C533.32,762.97 540.00,759.43 541.92,758.03" fill="none" stroke="rgb(181, 148, 147)" stroke-width="9.45" stroke-opacity="1.00" stroke-linejoin="round"/>
<path d="M540.87,757.58 C540.87,757.58 541.76,758.02 541.76,758.02 C544.29,756.66 547.16,753.03 548.42,751.17 C551.47,746.59 553.51,738.63 555.58,728.55 C558.62,714.29 563.66,688.68 565.68,677.34 C570.42,645.72 580.69,574.09 583.16,551.56 C583.71,546.40 585.24,534.20 585.14,533.93" fill="none" stroke="rgb(181, 148, 147)" stroke-width="9.45" stroke-opacity="1.00" stroke-linejoin="round"/>
<path d="M587.07,532.95 C587.07,532.95 587.15,533.24 587.15,533.24 C592.60,531.62 602.28,526.58 603.22,525.23 C603.96,524.14 606.55,514.46 609.05,502.64 C610.11,497.29 612.62,480.25 613.50,473.09 C615.06,458.46 615.19,441.95 614.64,434.88 C614.61,434.54 614.58,433.85 614.54,432.82" fill="none" stroke="rgb(181, 148, 147)" stroke-width="9.45" stroke-opacity="1.00" stroke-linejoin="round"/>
<path d="M223.55,440.61 C223.55,440.61 224.13,440.24 224.13,440.24 C224.00,438.31 224.08,436.93 224.48,435.98 C225.14,434.47 227.76,430.74 229.60,429.13 C233.29,425.94 247.31,418.84 252.63,416.84 C258.63,414.60 272.72,410.64 277.93,409.63 C280.94,409.08 283.19,408.87 284.51,408.77" fill="none" stroke="rgb(181, 148, 147)" stroke-width="9.45" stroke-opacity="1.00" stroke-linejoin="round"/>
<path d="M284.52,409.85 C286.43,408.03 287.56,407.21 289.08,406.74 C294.51,405.02 303.67,402.37 313.00,400.28 C321.58,398.40 327.44,397.53 337.14,396.55 C352.65,395.16 383.41,392.49 397.62,391.58 C400.99,391.43 469.82,390.32 484.34,390.13 C496.28,390.34 506.89,391.10 513.01,391.67 C524.52,393.00 537.14,395.00 542.39,396.99 C549.34,399.75 558.22,402.02 564.02,403.49 C578.50,407.53 596.86,414.99 600.43,417.25 C603.06,418.92 605.85,421.13 609.36,424.24 C612.04,426.66 614.88,429.86 615.79,432.11 C615.99,432.63 616.13,433.16 616.39,433.66 C616.39,433.66 616.75,434.04 616.75,434.04" fill="none" stroke="rgb(181, 148, 147)" stroke-width="9.45" stroke-opacity="1.00" stroke-linejoin="round"/>
<path d="M231.54,434.75 C231.42,438.09 231.94,445.07 232.46,446.79 C232.96,448.40 235.35,452.44 237.16,454.18 C240.53,457.36 252.23,463.97 257.40,465.87 C264.49,468.45 277.67,472.21 285.80,473.71 C302.37,476.57 328.33,479.90 343.36,481.72 C362.36,483.68 389.19,485.35 402.79,485.40 C413.01,485.24 444.70,483.27 459.04,482.16 C473.04,480.96 501.76,478.29 515.15,476.73 C525.41,475.36 534.97,473.72 542.39,471.80 C553.03,468.88 563.68,465.29 567.60,464.18 C578.45,461.21 584.86,458.88 593.58,453.96 C597.76,451.59 601.32,449.84 601.95,449.25 C604.02,447.22 612.37,436.04 614.72,431.39 C614.87,431.10 614.91,430.94 614.91,430.94" fill="none" stroke="rgb(181, 148, 147)" stroke-width="9.45" stroke-opacity="1.00" stroke-linejoin="round"/>
<path d="M253.30,535.46 C253.30,535.46 253.02,535.60 253.02,535.60 C255.01,537.59 256.50,538.77 258.21,539.55 C262.60,541.52 277.63,544.68 283.91,545.92 C299.01,548.73 325.74,552.51 340.34,554.48 C355.57,556.38 386.59,559.93 395.93,560.66 C406.52,561.35 440.29,561.49 453.91,561.17 C466.99,560.51 490.37,557.23 506.11,554.29 C520.08,551.50 551.37,544.02 566.87,540.13 C576.20,537.80 585.25,536.82 585.61,536.75 C586.04,536.64 589.70,534.22 591.00,533.36" fill="none" stroke="rgb(181, 148, 147)" stroke-width="9.45" stroke-opacity="1.00" stroke-linejoin="round"/>
<path d="M232.96,435.93 C232.96,435.93 231.59,435.31 231.59,435.31 C231.59,435.31 232.83,428.41 232.83,428.41 C231.47,430.43 229.17,436.35 228.73,439.00 C228.50,440.42 228.58,441.62 228.88,442.95 C228.88,442.95 229.22,443.04 229.22,443.04" fill="none" stroke="rgb(181, 148, 147)" stroke-width="9.45" stroke-opacity="1.00" stroke-linejoin="round"/>
<path d="M333.38,560.44 C332.88,560.61 331.52,566.02 331.63,570.25 C331.79,574.69 334.25,587.07 336.74,596.36 C338.64,603.35 341.25,613.06 341.94,615.77 C340.54,614.21 333.62,601.61 329.07,594.82 C327.06,591.86 324.14,588.54 321.74,586.54 C319.69,584.88 315.85,583.30 313.50,582.97 C312.35,582.85 310.18,583.29 309.14,584.03 C307.32,585.35 304.83,590.29 303.02,594.14 C301.49,592.28 300.31,587.74 299.39,584.72 C297.18,577.48 291.93,564.92 289.20,562.77 C288.84,562.50 288.22,562.21 287.35,561.88 C285.43,563.09 284.52,563.97 284.11,565.20 C283.71,566.44 283.16,567.66 282.14,569.65 C280.82,568.99 280.24,568.48 279.72,567.20 C278.54,564.31 270.64,547.12 268.98,545.48 C267.93,544.45 266.30,541.01 265.34,539.06 C264.52,539.45 264.72,542.97 265.53,548.42 C267.80,562.78 272.34,579.09 273.70,583.56 C274.24,585.37 274.80,586.92 275.58,588.90 C275.58,588.90 275.65,589.01 275.65,589.01" fill="none" stroke="rgb(181, 148, 147)" stroke-width="37.80" stroke-opacity="1.00" stroke-linejoin="round"/>
<path d="M272.90,547.26 C272.22,551.05 272.30,568.58 272.56,572.91 C273.00,579.22 274.05,589.70 275.48,598.60 C277.05,607.16 279.34,617.09 280.99,622.56 C294.49,664.15 301.52,683.38 302.80,686.16 C303.28,687.19 304.57,689.80 304.82,690.24" fill="none" stroke="rgb(181, 148, 147)" stroke-width="37.80" stroke-opacity="1.00" stroke-linejoin="round"/>
<path d="M282.16,610.17 C281.29,615.62 281.22,628.72 281.94,634.01 C282.72,639.69 291.21,675.68 295.10,688.97 C297.31,696.05 316.15,739.71 318.45,743.88 C319.63,746.01 322.73,749.28 324.48,750.84 C327.12,753.16 333.71,756.80 337.01,757.92 C339.75,758.81 352.81,761.05 360.55,763.60 C365.49,765.22 370.50,766.66 373.70,767.08 C383.74,768.36 413.77,767.93 427.95,767.62 C437.41,767.27 445.61,766.60 452.86,765.12 C462.67,762.84 471.66,760.16 478.45,757.37 C479.92,756.75 480.63,756.37 481.11,755.95" fill="none" stroke="rgb(181, 148, 147)" stroke-width="37.80" stroke-opacity="1.00" stroke-linejoin="round"/>
<path d="M449.27,768.84 C451.03,769.78 454.54,770.62 458.72,770.77 C461.33,770.83 482.84,766.21 486.79,765.19 C491.31,764.02 505.81,759.25 512.53,757.07 C519.01,754.94 529.22,749.76 532.52,747.06 C533.42,746.29 534.86,744.41 535.88,742.68 C536.57,741.48 536.99,740.23 537.05,739.61" fill="none" stroke="rgb(181, 148, 147)" stroke-width="37.80" stroke-opacity="1.00" stroke-linejoin="round"/>
<path d="M535.78,744.90 C538.48,737.81 539.69,730.73 541.46,722.31 C543.03,714.94 546.22,699.37 546.80,693.95 C547.12,690.87 548.45,670.49 548.55,667.28 C549.02,651.03 546.96,638.06 546.79,636.97" fill="none" stroke="rgb(181, 148, 147)" stroke-width="37.80" stroke-opacity="1.00" stroke-linejoin="round"/>
<path d="M539.60,705.77 C539.60,705.77 540.63,705.16 540.63,705.16 C545.59,677.56 552.14,634.33 554.51,618.53 C555.32,612.20 555.83,603.04 556.16,591.41 C556.26,587.75 556.54,579.45 556.70,576.74 C556.78,575.28 556.95,573.77 556.95,573.77" fill="none" stroke="rgb(181, 148, 147)" stroke-width="37.80" stroke-opacity="1.00" stroke-linejoin="round"/>
<path d="M550.99,663.42 C551.25,660.38 555.14,642.30 555.68,638.92 C556.76,631.84 559.16,599.32 560.13,583.61 C560.63,573.24 559.91,553.58 559.83,550.52 C559.83,550.52 557.63,591.88 557.63,591.88 C559.91,577.50 566.00,538.35 565.50,536.11 C565.50,536.11 565.19,535.75 565.19,535.75 C563.98,535.83 557.52,548.61 555.76,553.14 C553.01,560.26 542.79,595.54 539.23,609.60 C536.14,622.77 530.67,649.06 528.10,662.92 C525.71,676.88 521.45,703.77 519.58,716.69 C518.82,721.48 517.57,727.45 516.56,729.21 C515.71,730.60 510.63,734.27 508.59,735.57 C505.88,737.25 497.63,740.76 495.16,741.62 C489.33,743.61 481.31,744.05 471.98,743.47 C452.43,742.06 429.39,741.24 412.33,741.46 C405.83,741.60 394.09,741.93 388.25,742.02 C378.38,742.01 367.72,741.10 363.29,739.45 C362.26,739.05 357.85,736.47 355.98,734.95 C352.58,732.14 345.65,722.75 342.14,716.54 C339.24,711.40 331.16,694.52 328.99,689.50 C323.87,676.99 314.56,648.36 311.98,636.88 C309.00,622.32 305.54,605.34 305.11,604.65 C305.24,609.70 306.93,621.26 309.19,632.54 C312.49,647.45 319.72,678.95 322.40,688.09 C324.26,694.16 328.95,708.10 331.30,713.79 C335.69,724.06 337.75,728.04 338.82,728.59 C339.56,727.32 331.40,689.88 328.23,675.74 C321.77,647.75 309.15,591.43 302.98,563.11 C302.46,560.68 301.60,556.69 301.28,553.62 C303.06,553.21 320.15,555.65 326.25,556.44 C340.72,557.95 371.75,560.32 381.19,560.56 C395.57,560.69 425.96,561.01 441.98,561.19 C455.63,561.33 475.78,561.43 495.99,560.34 C503.52,559.90 520.10,558.81 524.47,558.36 C530.87,557.59 548.09,555.15 551.82,554.31 C555.84,553.40 557.70,552.45 559.96,551.02 C558.82,549.95 548.27,552.28 538.48,554.96 C523.12,559.13 493.77,566.93 479.79,570.55 C465.91,574.02 442.44,579.15 429.18,581.64 C421.69,582.88 406.92,584.92 399.36,585.91 C391.92,586.66 380.25,587.20 372.08,587.27 C361.55,587.12 332.54,585.02 330.70,585.70 C329.43,586.20 327.37,588.03 326.87,588.96 C325.90,591.04 325.50,596.94 325.71,600.58 C326.21,607.71 328.10,618.69 329.82,627.31 C331.45,634.94 342.33,673.93 345.78,684.27 C347.99,690.46 353.14,704.40 356.18,712.02 C360.40,722.19 364.57,730.62 367.24,734.32 C368.50,736.08 369.96,737.00 372.10,737.55 C373.28,735.75 373.83,734.39 373.92,732.54 C374.20,726.59 372.75,716.43 370.77,706.48 C367.74,692.85 359.29,663.85 355.10,649.97 C352.41,641.45 350.24,636.14 347.51,630.08 C346.95,631.44 348.26,636.67 349.18,639.59 C354.59,656.45 362.50,676.95 368.07,689.86 C370.25,694.66 377.61,709.43 381.00,714.24 C382.93,716.95 385.73,720.31 386.81,720.69 C387.22,720.83 388.39,721.15 390.32,721.66 C391.70,718.01 392.44,715.55 392.49,712.39 C392.52,705.63 391.68,696.56 390.11,686.07 C388.02,672.93 381.23,645.43 377.63,631.29 C375.32,623.04 372.31,614.27 370.56,610.54 C371.25,616.75 373.95,625.89 376.66,634.14 C381.50,647.96 392.74,678.85 397.66,690.05 C399.70,694.62 401.36,698.18 403.35,699.89 C403.42,695.21 401.57,688.02 398.17,677.56 C395.83,670.74 391.86,659.38 388.96,652.18 C385.81,644.85 378.85,628.98 377.09,625.90 C374.63,621.61 371.72,618.34 371.04,617.56 C370.57,618.75 370.57,619.93 371.11,621.90 C372.84,628.13 377.64,639.84 380.52,646.51 C384.01,654.20 389.28,664.56 392.81,670.99 C398.03,680.16 404.19,689.43 407.77,693.76 C409.00,695.23 413.17,699.58 416.61,701.46 C417.62,700.88 419.89,699.68 420.17,699.08 C421.35,696.42 418.98,682.79 417.50,677.13 C414.98,667.98 412.28,659.75 409.04,651.17 C406.28,644.17 400.81,632.93 399.23,630.40 C398.49,629.22 395.78,627.64 394.53,626.96 C393.00,629.04 392.39,630.49 392.52,632.41 C392.92,638.26 395.68,650.12 398.27,657.78 C400.82,665.16 405.80,677.48 408.92,684.69 C412.44,692.61 418.72,703.83 422.35,708.83 C423.27,710.11 428.08,716.07 429.11,716.53 C429.93,716.89 432.48,717.34 434.29,717.58 C436.86,714.70 438.89,710.67 439.41,706.85 C440.08,701.35 439.41,685.92 438.51,680.25 C437.95,676.79 434.13,659.55 432.14,654.20 C429.01,645.90 424.84,638.94 421.88,635.95 C420.38,634.48 418.77,633.24 417.57,632.66 C416.65,632.27 414.67,632.32 413.72,632.83 C412.19,633.71 409.43,640.20 409.17,643.19 C408.66,649.84 411.07,655.09 411.75,656.46" fill="none" stroke="rgb(181, 148, 147)" stroke-width="37.80" stroke-opacity="1.00" stroke-linejoin="round"/>
<path d="M408.22,711.63 C408.22,711.63 406.07,715.59 406.07,715.59 C407.29,716.88 408.23,717.42 410.01,717.65 C414.98,718.29 432.01,719.73 439.55,720.31 C446.29,720.65 458.46,720.95 465.69,720.89 C475.28,720.61 487.18,719.71 492.62,718.97 C496.96,718.37 511.74,715.69 515.20,714.33 C514.70,713.24 512.08,709.17 511.54,705.90 C510.83,701.13 511.75,686.97 512.35,680.36 C513.29,671.92 519.24,637.64 522.10,621.73 C524.70,607.07 528.81,582.71 529.42,574.58 C529.59,572.27 529.29,571.32 528.38,570.43 C527.33,570.45 447.53,587.69 418.45,593.28 C411.05,594.54 396.17,596.99 388.72,598.17 C382.74,599.02 369.30,600.50 361.82,601.13 C360.62,601.30 359.88,601.80 359.55,602.48 C360.03,603.77 364.59,607.34 367.03,608.69 C371.76,611.25 383.18,615.19 389.50,616.63 C394.49,617.74 409.42,619.49 414.44,619.64 C420.34,619.81 431.33,619.20 439.00,618.01 C446.66,616.80 476.92,607.67 492.16,602.97 C511.95,596.58 526.40,590.81 532.04,588.33 C527.17,592.97 496.96,616.06 486.63,622.82 C468.01,634.57 457.52,640.47 435.19,652.01 C430.45,654.48 427.75,656.09 427.87,657.35 C428.89,658.26 434.44,658.09 438.09,657.51 C443.85,656.56 456.87,653.01 464.36,650.36 C471.15,647.94 485.12,641.61 491.01,638.20 C497.26,634.55 504.75,629.14 508.02,626.19 C507.06,625.36 495.82,634.85 493.17,637.73 C491.12,639.96 479.98,653.27 476.36,658.20 C472.05,664.25 464.34,675.62 461.40,681.41 C459.71,684.76 457.37,690.05 456.46,693.19 C455.36,697.11 454.95,701.58 455.74,702.77 C456.88,704.31 458.82,704.76 460.96,703.90 C464.91,702.25 474.30,693.83 479.63,687.53 C483.92,682.37 490.80,672.02 492.74,667.11 C493.91,664.05 493.95,662.17 493.72,660.27 C491.82,660.20 488.18,663.74 486.62,666.09 C485.05,668.52 481.92,674.55 480.65,677.62 C478.39,683.16 477.58,691.69 477.96,692.86 C478.59,694.61 480.56,695.63 482.63,695.31 C483.91,695.07 487.84,692.11 489.78,689.90 C499.06,679.21 501.67,668.06 502.00,666.08 C500.29,668.86 497.47,673.43 497.75,673.88 C499.15,675.98 500.03,680.34 500.47,686.60 C500.75,692.85 501.20,702.18 501.91,704.46 C501.91,704.46 504.17,693.01 504.17,693.01" fill="none" stroke="rgb(181, 148, 147)" stroke-width="37.80" stroke-opacity="1.00" stroke-linejoin="round"/>
<path d="M303.75,539.16 C301.49,538.44 285.11,529.90 278.93,526.84 C256.82,516.36 254.20,515.23 252.20,514.42" fill="none" stroke="rgb(181, 148, 147)" stroke-width="37.80" stroke-opacity="1.00" stroke-linejoin="round"/>
<path d="M264.35,526.31 C262.84,525.82 258.49,523.67 255.59,522.86 C253.91,522.39 250.87,521.61 250.44,521.48 C248.37,520.83 244.37,515.85 242.96,513.33 C241.67,510.99 240.43,505.95 239.90,502.28 C238.82,494.14 237.54,471.31 237.48,469.93 C237.43,469.12 237.38,468.31 237.34,467.50" fill="none" stroke="rgb(181, 148, 147)" stroke-width="37.80" stroke-opacity="1.00" stroke-linejoin="round"/>
<path d="M239.40,472.63 C239.40,472.63 239.25,471.71 238.37,469.94 C237.42,467.98 236.08,452.22 236.30,451.46 C236.30,451.46 236.44,451.12 236.64,450.72" fill="none" stroke="rgb(181, 148, 147)" stroke-width="37.80" stroke-opacity="1.00" stroke-linejoin="round"/>
<path d="M243.87,472.32 C243.84,473.64 244.27,474.49 245.70,475.37 C248.93,477.34 265.92,483.99 269.45,485.20 C275.64,487.30 293.51,491.80 297.06,492.50 C306.83,494.32 325.60,496.39 348.99,497.41 C356.69,497.62 371.23,497.73 378.25,497.61 C394.82,497.05 406.99,494.71 408.31,494.45" fill="none" stroke="rgb(181, 148, 147)" stroke-width="37.80" stroke-opacity="1.00" stroke-linejoin="round"/>
<path d="M277.68,485.29 C283.86,487.81 297.69,492.04 303.08,493.38 C310.04,495.10 345.10,501.12 359.73,503.02 C376.40,504.85 399.92,506.33 413.68,506.36 C425.23,506.22 449.39,504.20 466.01,501.91 C481.42,499.58 510.21,494.68 524.35,492.20 C532.64,490.77 543.21,488.97 545.50,488.58 C545.50,488.58 546.01,488.49 546.38,488.41" fill="none" stroke="rgb(181, 148, 147)" stroke-width="37.80" stroke-opacity="1.00" stroke-linejoin="round"/>
<path d="M403.46,494.49 C411.05,495.98 419.80,496.98 429.28,497.47 C438.41,497.76 449.15,497.51 455.04,496.93 C465.19,495.84 500.01,490.85 516.07,488.15 C535.12,484.78 557.59,479.95 566.55,476.82 C569.50,475.78 585.55,468.80 592.40,466.13 C594.32,465.41 596.37,464.64 596.37,464.64" fill="none" stroke="rgb(181, 148, 147)" stroke-width="37.80" stroke-opacity="1.00" stroke-linejoin="round"/>
<path d="M348.78,510.42 C345.82,509.77 332.06,506.91 313.60,504.07 C306.89,503.12 294.44,501.46 288.94,501.64 C282.48,501.88 271.19,504.72 264.72,507.37 C260.20,509.31 259.30,510.09 257.59,512.10 C258.08,514.39 258.66,515.61 259.91,516.42 C263.81,518.91 275.35,523.68 281.70,525.65 C290.52,528.37 321.70,535.10 336.32,538.15 C350.82,540.91 376.87,545.03 390.21,546.12 C396.55,546.57 407.33,546.19 409.69,545.87 C411.04,545.67 411.64,545.19 412.15,544.14 C408.86,541.57 395.48,536.55 388.43,534.38 C377.19,531.03 340.73,522.95 333.73,521.77 C332.96,521.64 325.86,520.58 323.77,520.92 C325.81,522.41 338.04,524.99 346.21,525.73 C364.46,527.09 390.18,527.55 400.23,527.31 C407.42,527.04 422.30,526.09 427.89,525.26 C431.82,524.67 449.93,521.02 454.50,519.59 C458.43,518.33 460.00,517.58 463.59,515.26 C463.34,514.15 462.05,513.46 459.17,513.04 C454.20,512.32 440.26,512.56 434.65,513.00 C414.54,514.59 409.69,517.53 408.26,518.71 C409.20,519.62 409.92,520.01 411.32,520.19 C415.70,520.75 428.01,521.21 436.99,521.00 C451.61,520.33 485.02,518.46 494.64,517.52 C502.33,516.67 508.23,515.47 509.21,515.28 C502.16,516.41 484.12,519.44 479.56,520.44 C472.00,522.08 461.32,526.03 458.07,528.52 C458.07,528.52 458.03,530.02 458.03,530.02 C463.05,531.37 474.40,531.04 484.54,530.27 C492.17,529.52 506.33,527.56 513.44,526.38 C520.26,525.09 534.44,521.97 539.27,520.56 C554.89,515.97 564.99,510.49 567.17,509.11 C568.42,508.31 569.04,507.67 569.67,506.70" fill="none" stroke="rgb(181, 148, 147)" stroke-width="37.80" stroke-opacity="1.00" stroke-linejoin="round"/>
<path d="M403.36,533.99 C403.36,533.99 402.98,536.39 403.24,537.34 C403.72,539.02 407.87,542.57 410.46,543.43 C417.27,545.58 428.09,546.99 435.56,547.37 C441.96,547.67 456.30,546.99 463.15,546.33 C471.72,545.36 482.83,543.62 489.09,542.57 C495.54,541.33 509.94,538.02 516.98,536.31 C537.36,530.92 551.91,524.34 553.55,523.10" fill="none" stroke="rgb(181, 148, 147)" stroke-width="37.80" stroke-opacity="1.00" stroke-linejoin="round"/>
<path d="M515.52,519.39 C519.15,518.87 528.08,515.87 536.12,512.03 C545.61,507.28 554.11,502.46 559.78,497.77 C561.40,496.43 562.36,495.27 563.43,493.60 C562.28,494.61 560.67,498.24 560.09,501.15 C559.55,504.07 560.51,508.73 562.28,510.36 C563.20,511.17 565.54,512.13 566.90,512.27 C571.62,512.65 578.68,508.59 580.59,506.81 C580.05,506.58 575.73,511.67 576.05,513.66 C576.11,514.01 576.43,514.54 577.01,515.26 C578.53,515.47 579.68,515.30 581.41,514.47 C584.10,513.18 585.65,510.60 585.65,510.60" fill="none" stroke="rgb(181, 148, 147)" stroke-width="37.80" stroke-opacity="1.00" stroke-linejoin="round"/>
<path d="M560.30,573.12 C562.24,571.21 563.48,569.72 564.01,568.30 C565.81,563.44 566.42,550.48 565.82,541.95 C565.35,535.98 564.54,527.63 564.49,526.93 C564.46,526.49 564.40,525.49 564.32,523.93" fill="none" stroke="rgb(181, 148, 147)" stroke-width="37.80" stroke-opacity="1.00" stroke-linejoin="round"/>
<path d="M574.29,508.20 C574.29,508.20 574.25,508.51 574.29,508.81 C574.58,510.73 575.67,513.53 576.64,514.28 C577.38,514.83 579.14,514.56 580.76,513.93 C584.11,512.59 588.31,510.97 588.31,510.97 C588.31,510.97 588.67,511.55 588.94,512.38 C587.59,513.37 586.23,514.12 583.75,515.23 C581.25,516.33 580.38,516.79 580.21,517.03" fill="none" stroke="rgb(181, 148, 147)" stroke-width="37.80" stroke-opacity="1.00" stroke-linejoin="round"/>
<path d="M578.70,521.31 C578.70,521.31 577.35,521.66 577.35,521.66 C577.72,520.80 578.09,519.95 578.46,519.09 C578.76,518.39 579.05,517.68 579.34,516.97" fill="none" stroke="rgb(181, 148, 147)" stroke-width="37.80" stroke-opacity="1.00" stroke-linejoin="round"/>
<path d="M589.09,495.16 C586.93,493.90 585.78,492.89 585.22,491.51 C583.79,487.87 584.59,479.02 584.71,477.77 C584.71,477.77 585.24,499.57 585.24,499.57 C585.24,499.57 586.48,500.02 586.48,500.02 C588.81,495.18 590.71,484.08 590.75,482.61 C590.20,487.97 590.52,497.01 591.32,499.69 C591.42,500.01 591.63,500.33 591.63,500.33" fill="none" stroke="rgb(181, 148, 147)" stroke-width="37.80" stroke-opacity="1.00" stroke-linejoin="round"/>
<path d="M593.51,507.12 C594.46,504.13 595.82,497.85 596.27,494.46 C596.99,488.61 595.98,476.73 594.56,463.98 C594.15,460.29 594.02,457.46 594.03,456.26" fill="none" stroke="rgb(181, 148, 147)" stroke-width="37.80" stroke-opacity="1.00" stroke-linejoin="round"/>
<path d="M594.54,469.69 C595.57,467.46 597.11,460.29 597.36,458.71 C597.91,455.29 598.23,450.44 598.35,448.72" fill="none" stroke="rgb(181, 148, 147)" stroke-width="37.80" stroke-opacity="1.00" stroke-linejoin="round"/>
<path d="M598.34,458.81 C598.76,457.70 599.01,456.95 599.10,456.57 C599.19,456.19 599.23,455.64 599.23,454.92" fill="none" stroke="rgb(181, 148, 147)" stroke-width="37.80" stroke-opacity="1.00" stroke-linejoin="round"/>
<path d="M583.71,504.05 C583.71,504.05 583.71,504.60 583.71,504.60 C583.87,506.94 583.83,508.28 583.92,508.94 C584.22,511.12 587.84,512.95 589.09,513.42 C589.09,513.42 589.22,513.43 589.22,513.43" fill="none" stroke="rgb(181, 148, 147)" stroke-width="37.80" stroke-opacity="1.00" stroke-linejoin="round"/>
<path d="M585.73,513.24 C585.73,513.24 587.28,513.75 587.28,513.75 C587.28,513.75 586.57,511.92 586.57,511.92" fill="none" stroke="rgb(181, 148, 147)" stroke-width="37.80" stroke-opacity="1.00" stroke-linejoin="round"/>
<path d="M270.05,465.21 C270.05,465.21 268.85,466.00 268.85,466.00 C267.25,465.50 261.55,460.26 260.06,458.34 C255.71,452.60 256.06,446.53 256.42,444.27 C254.61,444.90 251.19,445.13 249.85,443.71 C249.20,442.96 248.85,440.86 249.17,439.64 C249.54,438.41 251.07,436.36 252.32,435.46 C254.51,433.97 262.44,431.58 265.07,431.56 C266.26,431.56 267.76,431.79 269.42,432.13" fill="none" stroke="rgb(181, 148, 147)" stroke-width="37.80" stroke-opacity="1.00" stroke-linejoin="round"/>
<path d="M244.63,440.83 C244.04,440.80 243.62,440.72 243.37,440.57 C242.55,440.10 241.77,438.78 241.61,437.89 C242.32,436.65 246.95,434.82 250.31,434.17 C258.84,432.60 267.25,432.03 271.99,432.42 C274.96,432.67 294.15,435.68 299.25,436.77 C304.24,437.87 307.60,438.70 309.72,439.35 C309.72,439.35 305.11,439.66 305.11,439.66" fill="none" stroke="rgb(181, 148, 147)" stroke-width="37.80" stroke-opacity="1.00" stroke-linejoin="round"/>
<path d="M283.96,444.98 C281.51,446.29 274.58,450.37 272.12,453.02 C270.83,454.48 269.71,456.81 270.16,457.70 C271.01,459.21 275.69,461.26 277.48,461.82 C288.21,465.13 320.30,471.60 335.43,474.54 C349.04,477.03 378.85,482.17 389.80,482.99 C397.00,483.43 409.62,483.24 414.61,482.76 C417.22,482.50 422.65,481.41 423.53,480.38 C422.56,478.48 410.79,474.61 400.34,472.21 C394.05,470.87 381.31,468.98 371.10,467.87 C363.72,467.19 348.95,465.93 341.56,465.33 C331.97,464.61 327.94,465.15 325.80,465.58 C326.52,466.61 331.95,467.98 334.24,468.41 C339.43,469.38 349.65,470.13 359.43,470.13 C374.26,469.94 403.79,469.43 418.48,469.12 C434.09,468.61 464.01,467.26 478.32,466.42 C484.82,465.94 499.35,464.78 504.83,463.91 C512.76,462.59 550.87,453.67 554.21,453.28 C550.65,454.47 523.05,458.78 503.09,460.66 C486.20,462.19 446.56,465.76 443.82,465.90 C437.87,466.17 405.23,461.38 391.47,459.25 C377.59,456.99 349.15,452.01 334.70,448.24 C329.79,446.90 324.19,445.05 322.34,444.05 C320.88,443.26 320.25,442.32 320.27,441.40 C321.71,440.13 328.77,438.54 332.28,438.11 C339.39,437.24 350.70,436.79 356.35,437.21 C352.78,437.43 338.66,437.52 330.53,437.56 C319.28,437.51 312.28,437.16 305.20,435.84 C301.09,435.03 298.01,433.87 296.03,432.58 C296.96,431.10 297.94,430.33 299.93,429.80 C310.52,427.02 327.55,426.05 330.79,426.07 C331.67,426.07 332.90,426.07 332.90,426.07" fill="none" stroke="rgb(181, 148, 147)" stroke-width="37.80" stroke-opacity="1.00" stroke-linejoin="round"/>
<path d="M272.63,427.10 C272.63,427.10 274.06,425.17 274.92,424.42 C276.25,423.28 282.89,420.72 285.44,420.27 C288.70,419.70 307.28,418.00 314.84,417.17 C319.47,416.57 324.06,415.82 326.53,415.28 C326.53,415.28 325.15,415.63 325.15,415.63" fill="none" stroke="rgb(181, 148, 147)" stroke-width="37.80" stroke-opacity="1.00" stroke-linejoin="round"/>
<path d="M306.26,418.96 C306.26,418.96 306.30,418.96 306.30,418.96 C312.27,417.94 325.76,415.73 333.27,414.54 C349.43,412.39 372.30,411.46 379.92,411.93 C381.18,412.02 383.42,412.20 384.41,412.31" fill="none" stroke="rgb(181, 148, 147)" stroke-width="37.80" stroke-opacity="1.00" stroke-linejoin="round"/>
<path d="M358.00,412.57 C358.00,412.57 358.54,412.32 359.74,412.03 C363.81,411.04 398.59,409.31 414.54,408.59 C418.68,408.49 425.64,408.35 428.45,408.31 C430.02,408.29 431.03,408.24 433.12,408.07" fill="none" stroke="rgb(181, 148, 147)" stroke-width="37.80" stroke-opacity="1.00" stroke-linejoin="round"/>
<path d="M398.86,408.38 C406.27,409.57 419.13,410.53 425.98,411.01 C442.19,412.28 470.48,416.86 472.55,417.05 C474.37,417.21 475.73,417.21 478.08,417.08" fill="none" stroke="rgb(181, 148, 147)" stroke-width="37.80" stroke-opacity="1.00" stroke-linejoin="round"/>
<path d="M428.39,408.30 C437.27,407.52 449.31,406.81 456.36,407.01 C462.93,407.21 475.81,408.93 482.88,409.95 C488.76,410.71 489.99,410.70 491.31,410.55" fill="none" stroke="rgb(181, 148, 147)" stroke-width="37.80" stroke-opacity="1.00" stroke-linejoin="round"/>
<path d="M465.35,406.22 C468.88,405.77 489.85,405.26 495.13,405.56 C501.34,405.84 516.74,407.94 520.81,409.10 C524.25,410.09 543.96,417.05 545.20,417.44 C551.51,419.45 557.30,420.30 557.65,420.30" fill="none" stroke="rgb(181, 148, 147)" stroke-width="37.80" stroke-opacity="1.00" stroke-linejoin="round"/>
<path d="M532.36,415.63 C541.84,415.58 550.66,415.76 557.62,416.47 C564.34,417.18 574.79,419.87 580.02,421.85 C583.34,423.14 589.45,426.33 591.76,427.86 C592.37,428.27 592.99,428.73 593.60,429.24 C593.60,429.24 593.94,429.60 593.94,429.60" fill="none" stroke="rgb(181, 148, 147)" stroke-width="37.80" stroke-opacity="1.00" stroke-linejoin="round"/>
<path d="M595.08,430.97 C595.96,431.53 596.13,431.67 596.76,432.54 C598.94,435.44 601.61,439.00 602.54,440.49 C601.90,440.87 581.11,441.22 577.35,441.41 C565.51,442.01 552.33,445.16 549.81,446.45 C548.36,447.21 547.55,448.45 547.33,449.65 C547.90,450.74 548.71,451.50 550.19,452.06 C552.81,453.01 558.67,453.15 560.49,452.09 C560.60,450.97 559.62,449.52 557.49,447.97 C554.37,445.71 541.91,441.20 534.96,439.61 C528.19,438.08 514.40,436.31 509.24,436.04 C502.20,435.69 488.22,436.59 482.54,438.23 C481.03,438.67 480.13,439.47 479.06,441.03 C480.40,442.75 481.41,443.68 482.85,444.30 C488.16,446.56 501.62,448.59 507.52,448.56 C511.91,448.48 513.80,447.75 515.94,446.49 C515.31,444.47 514.50,443.30 512.70,442.26 C507.02,439.00 495.61,435.77 487.05,434.22 C477.15,432.54 469.36,431.50 459.35,430.68 C452.09,430.21 435.15,429.28 429.29,429.55 C424.04,429.83 420.87,430.07 418.03,431.44 C419.81,432.94 421.12,433.84 422.51,434.26 C426.92,435.60 443.63,438.10 451.27,438.60 C457.28,438.88 469.02,439.33 472.39,438.55 C471.17,437.14 466.45,435.71 463.99,435.14 C459.31,434.09 445.60,432.16 438.39,431.65 C419.65,430.36 410.07,432.77 407.92,433.79 C407.92,433.79 408.21,435.50 408.21,435.50 C413.12,438.07 420.99,440.21 430.86,442.56 C437.58,444.03 454.46,447.12 457.19,447.43 C458.58,447.60 459.35,447.44 460.13,447.01 C455.50,444.89 440.92,442.53 433.80,441.99 C419.81,440.95 401.89,442.69 396.56,443.96 C394.88,444.35 393.86,444.98 392.70,446.13 C394.81,447.64 399.98,449.00 403.26,449.56 C408.40,450.40 423.57,451.64 427.33,450.68 C429.89,450.00 431.11,448.79 431.19,447.07 C429.35,444.80 428.04,443.52 426.47,442.68 C421.76,440.18 411.00,437.04 404.95,436.15 C401.99,435.73 389.87,434.56 387.78,434.10 C387.78,434.10 394.82,432.09 394.82,432.09 C394.82,432.09 392.35,428.54 392.35,428.54 C392.35,428.54 416.27,427.59 416.27,427.59" fill="none" stroke="rgb(181, 148, 147)" stroke-width="37.80" stroke-opacity="1.00" stroke-linejoin="round"/>
<path d="M365.45,428.08 C365.45,428.08 359.75,427.79 359.75,427.79 C368.41,430.93 376.65,433.41 384.21,435.14 C390.79,436.63 408.03,439.36 412.10,439.72 C409.08,439.41 400.25,438.40 398.99,438.12 C396.25,437.49 388.93,434.57 385.95,433.44 C383.29,432.27 382.54,431.29 382.41,430.62 C382.41,430.62 386.42,427.78 386.42,427.78" fill="none" stroke="rgb(181, 148, 147)" stroke-width="37.80" stroke-opacity="1.00" stroke-linejoin="round"/>
<path d="M227.43,462.84 C227.43,462.84 226.60,462.50 226.60,462.50 C225.82,459.51 224.00,452.61 223.58,450.32 C223.13,447.78 223.32,443.97 224.14,440.57 C225.36,435.75 226.42,432.28 227.30,430.97 C228.75,428.89 231.67,426.34 233.82,425.24 C235.26,424.51 237.35,423.63 238.23,423.35" fill="none" stroke="rgb(181, 148, 147)" stroke-width="6.05" stroke-opacity="1.00" stroke-linejoin="round"/>
<path d="M540.11,398.07 C540.11,398.07 539.77,397.59 539.77,397.59 C542.82,397.96 548.15,399.46 553.34,401.35 C555.02,401.98 558.02,403.12 559.34,403.63 C561.53,404.50 563.93,405.47 564.35,405.61" fill="none" stroke="rgb(181, 148, 147)" stroke-width="6.05" stroke-opacity="1.00" stroke-linejoin="round"/>
<path d="M539.44,393.32 C542.58,394.78 548.82,397.60 551.92,398.51 C553.39,398.94 560.88,400.64 563.60,401.24 C564.76,401.51 565.44,401.73 566.32,402.10" fill="none" stroke="rgb(181, 148, 147)" stroke-width="6.05" stroke-opacity="1.00" stroke-linejoin="round"/>
<path d="M539.14,393.77 C539.14,393.77 538.73,393.77 538.73,393.77 C540.65,394.04 545.61,395.18 550.26,396.37 C559.78,398.87 563.40,399.95 566.79,401.03 C567.87,401.37 569.08,401.77 569.08,401.77" fill="none" stroke="rgb(181, 148, 147)" stroke-width="6.05" stroke-opacity="1.00" stroke-linejoin="round"/>
<path d="M543.19,394.88 C543.19,394.88 542.90,394.95 542.90,394.95 C546.95,396.73 560.22,401.42 567.73,404.04 C579.25,408.02 581.93,408.86 583.64,409.39" fill="none" stroke="rgb(181, 148, 147)" stroke-width="6.05" stroke-opacity="1.00" stroke-linejoin="round"/>
<path d="M561.06,400.29 C562.79,401.26 567.52,403.20 573.03,405.23 C576.54,406.51 582.99,408.87 585.95,409.96 C587.27,410.45 589.09,411.18 590.38,411.70 C590.38,411.70 590.62,411.78 590.62,411.78" fill="none" stroke="rgb(181, 148, 147)" stroke-width="6.05" stroke-opacity="1.00" stroke-linejoin="round"/>
<path d="M569.28,402.37 C569.28,402.37 569.07,402.37 569.07,402.37 C571.29,403.04 576.59,404.68 579.67,405.66 C582.75,406.68 588.98,408.76 591.88,410.03 C592.72,410.40 594.89,411.52 595.80,412.01 C595.80,412.01 596.04,412.15 596.04,412.15" fill="none" stroke="rgb(181, 148, 147)" stroke-width="6.05" stroke-opacity="1.00" stroke-linejoin="round"/>
<path d="M573.24,405.78 C573.24,405.78 573.10,406.12 573.10,406.12 C576.25,407.32 582.61,409.04 586.34,410.05 C590.27,411.13 594.83,412.77 595.82,413.24 C595.82,413.24 596.60,413.64 597.40,414.07" fill="none" stroke="rgb(181, 148, 147)" stroke-width="6.05" stroke-opacity="1.00" stroke-linejoin="round"/>
<path d="M231.09,518.65 C231.09,518.65 230.45,517.51 230.45,517.51 C230.45,517.51 230.57,523.18 230.57,523.18 C230.57,523.18 229.83,519.99 229.83,519.99 C229.83,519.99 229.65,527.43 229.65,527.43 C229.65,527.43 228.92,522.30 228.92,522.30 C228.92,522.30 227.93,521.88 227.93,521.88 C227.93,521.88 227.47,525.90 227.47,525.90 C227.47,525.90 226.72,521.17 226.72,521.17 C226.72,521.17 226.72,522.92 226.72,522.92 C226.72,522.92 226.37,519.76 226.37,519.76 C226.37,519.76 227.07,522.59 227.07,522.59 C227.07,522.59 226.74,520.52 226.74,520.52 C226.74,520.52 227.70,527.94 227.70,527.94 C227.70,527.94 226.66,521.58 226.66,521.58 C226.66,521.58 227.53,527.14 227.53,527.14 C227.53,527.14 227.25,524.58 227.25,524.58 C227.25,524.58 228.44,529.95 228.44,529.95 C228.44,529.95 228.51,528.24 228.51,528.24 C228.51,528.24 230.47,532.83 230.47,532.83 C230.98,532.38 231.74,532.35 233.71,532.93 C246.53,536.69 252.15,538.17 255.90,538.23 C254.97,536.92 251.92,535.63 248.07,534.58 C237.42,531.75 235.74,531.89 234.41,532.14 C236.71,533.86 240.17,535.15 243.95,536.17 C250.09,537.79 251.44,537.97 253.42,538.02 C253.27,536.94 248.91,535.27 242.76,533.51 C240.44,532.84 239.08,532.72 237.11,532.89 C237.41,533.97 237.88,534.64 238.97,535.29 C242.67,537.47 254.09,541.07 256.33,540.61 C255.19,538.82 254.51,537.95 253.70,537.60 C246.18,534.38 239.82,533.40 237.45,533.29 C237.45,533.29 237.32,534.35 237.32,534.35 C240.03,536.22 247.14,538.74 248.68,539.23 C251.91,540.25 253.18,540.24 254.73,540.10 C253.25,538.27 250.51,536.77 246.92,535.38 C240.97,533.15 236.61,532.03 235.28,532.56 C235.28,532.56 237.29,533.92 237.29,533.92 C237.29,533.92 238.12,533.44 238.12,533.44 C238.00,531.26 234.93,527.85 232.58,526.98 C232.58,526.98 234.41,530.60 234.41,530.60 C234.41,530.60 232.98,529.64 232.98,529.64 C236.31,532.60 247.74,537.89 250.74,538.20 C249.66,537.12 246.02,535.40 243.70,534.57 C240.07,533.31 237.57,533.46 237.10,534.10 C239.41,536.00 243.53,538.12 246.00,539.15 C248.71,540.26 252.79,541.28 254.63,540.86 C252.54,538.79 247.73,536.34 245.45,535.40 C242.85,534.36 237.25,532.86 234.51,533.34 C235.16,534.70 235.92,535.57 237.42,536.49 C240.08,538.11 245.47,540.71 248.32,541.78 C250.96,542.77 255.37,543.77 256.18,543.24 C245.76,535.51 235.20,534.00 234.06,533.87 C234.30,535.06 234.59,535.81 235.24,536.30 C240.89,540.54 246.93,542.25 248.68,542.43 C247.46,540.27 244.86,538.50 241.57,536.87 C236.30,534.31 235.07,533.75 233.59,533.15 C233.59,533.15 236.91,534.74 236.91,534.74 C236.91,534.74 232.42,528.23 232.42,528.23 C232.42,528.23 232.81,527.91 232.81,527.91" fill="none" stroke="rgb(181, 148, 147)" stroke-width="6.05" stroke-opacity="1.00" stroke-linejoin="round"/>
<path d="M252.03,544.58 C252.03,544.58 252.03,544.73 252.03,544.73 C255.46,546.10 269.76,548.48 277.41,549.71 C290.36,551.90 312.93,555.45 329.65,557.16 C340.48,558.00 367.80,558.97 384.37,558.85 C398.62,558.47 426.01,557.32 439.15,556.54 C452.62,555.57 484.40,552.46 498.80,550.92 C513.59,549.15 545.74,544.98 560.21,542.65 C566.61,541.55 586.12,538.31 588.53,538.30 C589.87,538.30 590.54,538.23 590.54,538.23" fill="none" stroke="rgb(143, 114, 134)" stroke-width="6.05" stroke-opacity="1.00" stroke-linejoin="round"/>
<path d="M249.34,546.88 C249.34,546.88 249.42,546.85 249.71,546.95 C252.07,547.78 268.16,555.51 274.80,558.58 C282.29,561.92 293.00,564.57 298.96,565.84 C307.16,567.48 341.04,572.23 356.13,573.85 C390.18,576.90 441.28,579.73 470.46,581.20 C482.20,581.67 511.57,581.50 526.87,581.36 C547.02,580.86 562.38,579.26 576.94,577.34 C579.95,576.97 582.05,576.81 582.05,576.81" fill="none" stroke="rgb(143, 114, 134)" stroke-width="11.15" stroke-opacity="1.00" stroke-linejoin="round"/>
<path d="M581.01,576.13 C581.81,571.24 582.96,561.23 584.81,549.05 C585.58,543.87 585.82,541.63 585.89,539.20 C585.89,539.20 585.93,538.72 585.93,538.72" fill="none" stroke="rgb(143, 114, 134)" stroke-width="11.15" stroke-opacity="1.00" stroke-linejoin="round"/>
<path d="M266.75,551.39 C269.31,551.93 281.41,555.86 289.19,557.16 C295.76,558.19 303.64,558.87 311.56,559.21 C326.00,559.47 354.43,559.97 366.22,560.70 C368.27,560.83 384.86,562.15 391.45,562.16 C410.12,562.00 428.62,561.06 446.95,558.84 C460.55,557.35 488.50,554.43 499.98,553.00 C510.38,551.81 552.94,548.15 559.77,547.06 C563.12,546.56 580.54,544.93 584.47,544.22 C584.91,545.40 584.56,552.67 583.95,556.20 C583.37,559.44 580.94,562.34 580.38,562.67 C580.38,562.67 577.95,559.76 577.95,559.76 C577.95,559.76 575.74,565.13 575.74,565.13 C575.74,565.13 575.50,562.16 575.50,562.16" fill="none" stroke="rgb(143, 114, 134)" stroke-width="11.15" stroke-opacity="1.00" stroke-linejoin="round"/>
<path d="M317.90,561.18 C320.02,562.87 323.00,564.28 326.61,564.94 C329.82,565.49 398.64,566.74 411.81,567.29 C428.49,568.34 443.90,569.84 447.49,570.20" fill="none" stroke="rgb(143, 114, 134)" stroke-width="11.15" stroke-opacity="1.00" stroke-linejoin="round"/>
<path d="M301.90,556.96 C301.90,556.96 301.13,557.51 301.13,557.51 C304.21,559.07 309.82,560.80 312.68,561.51 C318.45,562.89 331.11,565.18 338.16,566.02 C347.56,567.00 355.39,567.42 365.20,567.17 C380.26,566.60 407.46,564.63 420.60,563.45 C438.08,561.82 463.05,560.39 477.37,559.64 C491.98,558.55 521.05,555.64 534.78,553.82 C550.65,551.61 571.48,549.75 574.33,549.32 C577.74,548.81 585.21,546.85 586.70,545.72 C587.10,545.42 587.82,544.74 588.87,543.69" fill="none" stroke="rgb(143, 114, 134)" stroke-width="11.15" stroke-opacity="1.00" stroke-linejoin="round"/>
<path d="M437.01,562.89 C437.01,562.89 437.36,564.21 437.71,564.76 C438.47,565.84 439.79,566.86 441.03,567.28 C444.71,568.43 459.59,568.27 466.31,568.09 C479.17,567.58 534.16,562.27 552.64,561.01 C563.31,560.17 572.04,558.77 578.83,556.54 C581.43,555.69 586.36,553.27 586.36,553.27" fill="none" stroke="rgb(143, 114, 134)" stroke-width="11.15" stroke-opacity="1.00" stroke-linejoin="round"/>
<path d="M549.02,558.15 C553.78,558.50 562.72,556.68 574.96,553.66 C578.43,552.78 584.01,551.38 584.30,551.30 C584.59,551.21 584.98,551.07 585.49,550.87 C585.49,550.87 581.24,551.10 581.24,551.10" fill="none" stroke="rgb(143, 114, 134)" stroke-width="11.15" stroke-opacity="1.00" stroke-linejoin="round"/>
<path d="M553.97,557.24 C555.58,556.99 559.83,556.29 561.16,556.01 C562.50,555.73 564.59,555.16 565.78,554.82" fill="none" stroke="rgb(143, 114, 134)" stroke-width="11.15" stroke-opacity="1.00" stroke-linejoin="round"/>
<path d="M376.68,568.96 C376.68,568.96 376.60,569.38 376.60,569.38 C377.37,569.47 397.99,568.68 401.91,568.74 C407.54,568.84 422.83,570.62 430.07,571.46 C443.54,572.73 463.86,572.77 480.93,572.01 C504.68,570.71 539.48,563.86 540.28,563.70" fill="none" stroke="rgb(143, 114, 134)" stroke-width="11.15" stroke-opacity="1.00" stroke-linejoin="round"/>
<path d="M408.07,567.85 C408.07,567.85 409.28,568.06 409.84,568.12 C412.00,568.38 429.00,570.99 435.21,571.72 C445.35,572.68 481.18,574.08 491.54,574.07 C498.76,573.93 512.95,573.36 516.35,572.47 C520.35,571.38 521.74,569.86 521.74,569.86 C521.74,569.86 517.39,568.96 517.39,568.96" fill="none" stroke="rgb(143, 114, 134)" stroke-width="11.15" stroke-opacity="1.00" stroke-linejoin="round"/>
<path d="M390.20,568.52 C390.15,570.20 390.46,571.54 391.40,572.08 C393.19,573.10 399.00,573.25 401.96,573.32 C411.56,573.41 443.22,574.82 457.94,575.53 C471.49,576.04 499.15,576.66 514.74,576.53 C533.13,576.10 546.75,574.18 550.26,573.40" fill="none" stroke="rgb(143, 114, 134)" stroke-width="11.15" stroke-opacity="1.00" stroke-linejoin="round"/>
<path d="M501.83,569.85 C509.41,570.87 520.52,570.93 527.31,569.84 C531.11,569.23 558.68,563.95 559.52,563.79 C560.53,563.59 562.12,563.11 562.12,563.11" fill="none" stroke="rgb(143, 114, 134)" stroke-width="11.15" stroke-opacity="1.00" stroke-linejoin="round"/>
<path d="M532.79,570.52 C533.40,570.78 533.85,570.94 534.16,570.98 C538.04,571.62 550.25,569.50 559.25,566.97 C567.90,564.40 570.25,562.71 570.83,562.21" fill="none" stroke="rgb(143, 114, 134)" stroke-width="11.15" stroke-opacity="1.00" stroke-linejoin="round"/>
<path d="M554.25,572.74 C556.72,573.43 563.32,573.12 566.24,572.01 C567.57,571.49 570.87,569.29 571.58,568.56 C571.83,568.28 572.20,567.77 572.66,567.02" fill="none" stroke="rgb(143, 114, 134)" stroke-width="11.15" stroke-opacity="1.00" stroke-linejoin="round"/>
<path d="M559.26,571.91 C560.51,571.83 566.83,570.11 569.17,568.98 C571.79,567.68 577.03,563.01 577.76,561.92" fill="none" stroke="rgb(143, 114, 134)" stroke-width="11.15" stroke-opacity="1.00" stroke-linejoin="round"/>
<path d="M575.18,569.19 C575.18,569.19 575.12,569.88 575.12,569.88 C575.94,567.31 576.50,557.05 576.39,553.63 C576.35,552.07 576.25,550.96 576.03,548.94" fill="none" stroke="rgb(143, 114, 134)" stroke-width="11.15" stroke-opacity="1.00" stroke-linejoin="round"/>
<path d="M574.96,569.11 C574.96,569.11 574.96,569.73 574.96,569.73 C574.96,569.73 575.32,568.13 575.56,566.72 C575.97,564.42 576.39,561.20 576.53,559.50 C576.62,558.03 576.78,555.60 576.84,554.65" fill="none" stroke="rgb(143, 114, 134)" stroke-width="11.15" stroke-opacity="1.00" stroke-linejoin="round"/>
<path d="M256.14,436.01 C256.76,435.44 258.96,433.10 259.44,432.72 C261.74,430.93 267.36,429.04 270.00,428.37 C284.21,425.01 317.20,418.05 323.98,417.01 C334.29,415.56 367.17,412.05 379.67,411.08 C394.14,410.35 424.20,409.04 439.79,408.45 C455.38,408.05 482.49,408.12 496.42,408.99 C505.57,409.69 516.91,411.09 523.33,412.06 C529.45,413.04 539.04,415.34 548.29,417.97 C569.06,424.12 579.86,428.01 582.04,429.00 C582.81,429.37 584.07,429.92 584.07,429.92" fill="none" stroke="rgb(143, 114, 134)" stroke-width="11.15" stroke-opacity="1.00" stroke-linejoin="round"/>
<path d="M257.27,438.38 C256.91,438.50 256.18,440.42 256.21,441.67 C256.25,442.70 259.38,447.14 262.42,449.31 C264.47,450.74 277.21,455.63 283.54,457.16 C293.15,459.45 324.08,463.57 338.04,465.29 C352.67,466.84 380.94,468.92 396.97,469.59 C413.32,470.07 448.23,470.96 457.47,470.97 C471.32,470.62 498.38,468.56 508.59,467.43 C515.76,466.47 530.58,463.89 534.49,462.96 C548.88,459.53 565.69,452.97 572.78,449.48 C576.60,447.58 581.69,444.28 584.24,441.68 C586.02,439.83 588.64,436.33 589.17,433.56 C589.34,432.65 589.46,431.42 589.53,429.90 C589.53,429.90 589.45,429.79 589.45,429.79" fill="none" stroke="rgb(143, 114, 134)" stroke-width="11.15" stroke-opacity="1.00" stroke-linejoin="round"/>
<path d="M264.07,429.64 C264.07,429.64 263.37,429.94 263.37,429.94 C275.75,432.58 300.70,438.08 312.94,441.16 C328.21,445.12 358.92,453.00 374.36,456.91 C387.99,460.33 415.73,467.33 415.73,467.33 C415.73,467.33 416.31,467.46 416.74,467.54" fill="none" stroke="rgb(143, 114, 134)" stroke-width="11.15" stroke-opacity="1.00" stroke-linejoin="round"/>
<path d="M286.72,427.93 C292.60,429.42 306.51,429.54 314.22,429.55 C335.94,429.53 344.05,430.84 345.06,431.10 C345.06,431.10 315.58,428.47 315.58,428.47 C316.67,427.44 327.42,427.20 331.02,427.49 C331.02,427.49 334.95,429.24 334.95,429.24 C334.95,429.24 324.62,431.26 324.62,431.26 C324.62,431.26 329.29,431.91 329.29,431.91" fill="none" stroke="rgb(143, 114, 134)" stroke-width="11.15" stroke-opacity="1.00" stroke-linejoin="round"/>
<path d="M302.95,427.71 C298.49,428.87 294.74,430.39 293.88,432.01 C293.56,432.77 294.15,434.23 295.12,434.92 C298.02,436.89 309.37,439.72 315.69,440.93 C309.65,440.19 295.92,440.98 291.10,441.62 C287.30,442.16 285.77,442.96 284.04,444.03 C284.04,444.03 283.89,445.29 283.89,445.29 C283.89,445.29 285.60,446.56 285.60,446.56 C285.60,446.56 282.74,444.92 282.74,444.92 C284.16,447.52 287.48,444.92 287.82,444.24 C287.01,442.71 285.20,442.23 283.91,442.14 C286.55,443.38 289.00,443.15 290.27,442.56 C290.27,442.56 288.63,441.86 288.63,441.86 C288.63,441.86 288.55,442.61 288.55,442.61 C288.55,442.61 289.44,442.93 289.44,442.93" fill="none" stroke="rgb(143, 114, 134)" stroke-width="11.15" stroke-opacity="1.00" stroke-linejoin="round"/>
<path d="M274.61,435.35 C274.61,435.35 275.54,437.19 276.25,437.98 C277.50,439.37 283.24,441.46 285.78,441.86 C295.23,443.22 309.49,440.83 310.23,440.65" fill="none" stroke="rgb(143, 114, 134)" stroke-width="11.15" stroke-opacity="1.00" stroke-linejoin="round"/>
<path d="M428.71,440.46 C423.93,440.72 419.34,440.90 417.45,440.72 C416.06,440.58 409.71,439.40 407.55,439.15 C404.63,438.83 399.73,439.04 396.29,440.29 C396.29,440.29 396.17,441.48 396.17,441.48 C399.36,442.83 401.89,442.58 403.07,442.15 C402.01,440.64 401.10,439.95 399.60,439.70 C398.11,439.47 391.96,438.66 391.64,438.91 C390.38,439.91 392.26,439.97 393.95,438.74 C394.59,438.28 395.25,437.81 395.89,437.34" fill="none" stroke="rgb(143, 114, 134)" stroke-width="48.29" stroke-opacity="1.00" stroke-linejoin="round"/>
<path d="M302.72,437.49 C299.79,438.24 293.70,439.55 289.76,439.47 C288.47,439.43 278.69,438.19 278.32,438.23 C276.29,438.47 274.71,439.67 274.03,441.23 C275.06,443.81 278.12,445.03 279.57,445.35 C278.62,443.79 277.46,442.80 275.81,442.49 C275.38,442.42 274.46,442.30 273.02,442.15 C273.02,442.15 278.35,441.87 278.35,441.87 C278.35,441.87 277.50,441.07 277.50,441.07 C277.39,442.44 278.10,443.40 280.09,443.90 C282.94,444.60 290.15,444.42 290.90,443.95 C290.90,443.95 290.37,442.73 290.37,442.73 C290.94,443.01 292.81,443.09 294.17,442.78 C294.92,442.62 295.33,442.03 295.47,441.46 C295.47,441.46 292.66,440.22 292.66,440.22" fill="none" stroke="rgb(143, 114, 134)" stroke-width="14.18" stroke-opacity="1.00" stroke-linejoin="round"/>
<path d="M263.84,438.09 C263.61,439.25 263.60,440.78 264.03,441.91 C265.02,444.41 268.93,447.58 272.00,449.23 C273.95,450.20 278.51,451.34 282.35,451.89 C285.58,452.34 290.72,452.26 293.94,451.77 C302.60,450.39 308.01,448.39 308.83,448.01" fill="none" stroke="rgb(143, 114, 134)" stroke-width="14.18" stroke-opacity="1.00" stroke-linejoin="round"/>
<path d="M265.94,436.08 C265.74,437.10 267.79,438.67 271.40,440.16 C277.55,442.59 308.96,446.56 314.39,446.78 C321.39,447.00 329.14,446.68 330.32,446.63" fill="none" stroke="rgb(143, 114, 134)" stroke-width="14.18" stroke-opacity="1.00" stroke-linejoin="round"/>
<path d="M287.17,445.42 C292.26,448.20 302.81,450.96 309.39,452.08 C315.19,453.04 323.95,453.72 334.36,454.23 C341.68,454.47 358.08,454.90 364.18,454.53 C370.87,454.12 388.17,451.39 392.47,450.36 C392.96,450.25 393.45,450.14 393.94,450.01" fill="none" stroke="rgb(143, 114, 134)" stroke-width="14.18" stroke-opacity="1.00" stroke-linejoin="round"/>
<path d="M331.81,452.39 C334.60,454.50 344.47,457.39 351.36,458.78 C358.59,460.22 371.54,461.63 378.91,461.91 C392.00,462.37 414.93,459.88 420.39,458.83 C423.82,458.15 429.41,456.55 431.90,455.48 C431.90,455.48 431.74,455.27 431.74,455.27 C430.37,455.18 429.48,455.14 427.41,455.07 C419.70,454.81 405.55,454.31 399.10,454.10" fill="none" stroke="rgb(143, 114, 134)" stroke-width="14.18" stroke-opacity="1.00" stroke-linejoin="round"/>
<path d="M340.85,457.21 C342.65,458.25 346.69,460.01 349.72,460.97 C354.16,462.35 371.28,463.37 374.85,463.36 C381.86,463.32 394.05,461.81 396.64,460.02 C396.92,459.29 396.51,458.05 395.42,456.89 C394.58,456.03 392.68,454.92 391.13,454.29 C388.10,453.11 384.53,452.60 379.80,452.23 C378.09,452.10 375.25,451.89 374.12,451.81" fill="none" stroke="rgb(143, 114, 134)" stroke-width="14.18" stroke-opacity="1.00" stroke-linejoin="round"/>
<path d="M329.42,451.13 C329.42,451.13 319.09,455.54 319.09,455.54 C319.10,456.39 319.93,457.22 321.86,458.11 C325.09,459.60 336.07,462.54 345.73,464.26 C353.22,465.46 363.04,466.31 372.13,466.31 C386.81,466.09 419.25,464.50 433.84,463.27 C444.63,462.13 456.07,460.20 460.37,458.81 C460.88,458.65 461.40,458.48 461.91,458.32" fill="none" stroke="rgb(143, 114, 134)" stroke-width="14.18" stroke-opacity="1.00" stroke-linejoin="round"/>
<path d="M426.70,455.06 C426.70,455.06 426.41,455.54 426.41,455.54 C429.13,458.40 432.47,459.99 435.15,460.76 C438.71,461.74 443.54,462.29 447.67,462.24 C458.47,461.99 467.46,461.28 477.18,460.10 C483.58,459.20 496.81,457.19 503.66,456.09 C510.91,454.78 524.93,450.74 526.98,449.88" fill="none" stroke="rgb(143, 114, 134)" stroke-width="14.18" stroke-opacity="1.00" stroke-linejoin="round"/>
<path d="M452.56,459.43 C453.46,459.61 454.20,459.71 456.71,460.04 C465.10,461.12 478.50,461.23 487.10,460.23 C489.69,459.93 498.91,458.58 502.50,457.78 C506.07,456.99 508.91,456.12 510.08,455.68" fill="none" stroke="rgb(143, 114, 134)" stroke-width="14.18" stroke-opacity="1.00" stroke-linejoin="round"/>
<path d="M319.69,446.17 C319.69,446.17 319.18,446.45 319.18,446.45 C324.88,444.93 330.92,443.64 340.16,442.64 C354.75,441.24 380.96,439.45 395.44,438.84 C400.51,438.72 411.38,438.91 413.92,439.05 C415.53,439.16 416.99,439.47 419.25,440.12 C418.61,440.38 417.99,440.60 417.99,440.60 C417.21,440.82 403.74,441.14 400.92,441.20" fill="none" stroke="rgb(143, 114, 134)" stroke-width="14.18" stroke-opacity="1.00" stroke-linejoin="round"/>
<path d="M316.71,439.86 C320.82,440.79 336.58,441.98 344.01,442.47 C357.90,443.04 389.30,442.06 399.34,441.24 C405.37,440.62 417.58,438.92 419.63,438.40" fill="none" stroke="rgb(143, 114, 134)" stroke-width="14.18" stroke-opacity="1.00" stroke-linejoin="round"/>
<path d="M304.58,443.64 C305.62,442.32 312.03,439.42 313.83,438.85 C318.60,437.43 330.75,435.42 337.21,434.90 C350.37,434.06 381.68,432.75 397.95,432.16 C421.71,431.55 426.34,431.92 428.10,432.13" fill="none" stroke="rgb(143, 114, 134)" stroke-width="14.18" stroke-opacity="1.00" stroke-linejoin="round"/>
<path d="M312.60,435.35 C315.10,434.05 328.96,431.77 334.47,431.28 C346.34,430.38 381.72,428.61 397.15,427.83 C403.58,427.36 410.40,426.19 410.74,425.86 C409.52,425.74 408.47,425.73 405.88,425.85 C401.51,426.06 395.71,426.33 394.29,426.41" fill="none" stroke="rgb(143, 114, 134)" stroke-width="14.18" stroke-opacity="1.00" stroke-linejoin="round"/>
<path d="M305.94,434.02 C309.57,432.42 323.82,429.29 330.32,428.34 C337.48,427.30 375.82,424.08 389.93,424.03 C399.54,424.09 401.78,424.40 404.02,424.81" fill="none" stroke="rgb(143, 114, 134)" stroke-width="14.18" stroke-opacity="1.00" stroke-linejoin="round"/>
<path d="M304.82,427.19 C308.66,426.63 317.89,425.50 328.58,424.57 C359.46,422.69 397.13,420.52 403.89,420.21 C406.67,420.09 410.81,420.04 411.89,420.03" fill="none" stroke="rgb(143, 114, 134)" stroke-width="14.18" stroke-opacity="1.00" stroke-linejoin="round"/>
<path d="M319.25,423.36 C323.91,423.20 361.61,419.64 377.47,418.39 C394.77,417.37 428.56,416.20 435.05,416.30 C438.76,416.37 459.08,417.34 464.12,418.24 C466.97,418.77 469.79,419.76 470.73,420.14" fill="none" stroke="rgb(143, 114, 134)" stroke-width="14.18" stroke-opacity="1.00" stroke-linejoin="round"/>
<path d="M398.95,416.30 C401.50,416.40 406.55,416.58 409.05,416.66 C418.55,416.92 454.55,415.99 469.30,415.59 C479.26,415.56 492.83,416.38 495.93,416.69 C499.85,417.10 516.66,420.16 519.24,420.75 C522.49,421.50 526.69,422.77 527.56,423.03" fill="none" stroke="rgb(143, 114, 134)" stroke-width="14.18" stroke-opacity="1.00" stroke-linejoin="round"/>
<path d="M472.45,415.04 C472.45,415.04 472.13,414.76 472.13,414.76 C472.98,414.51 483.72,415.79 494.79,416.43 C502.64,416.79 520.93,417.60 523.75,417.82 C528.52,418.21 539.42,420.39 548.12,423.13 C552.71,424.62 571.90,431.87 574.10,434.12 C574.67,434.73 575.55,437.65 576.07,437.90 C576.74,437.47 577.26,436.92 577.06,436.36 C576.80,435.61 575.92,433.71 575.75,431.33 C575.68,430.45 575.25,430.11 574.28,429.79" fill="none" stroke="rgb(143, 114, 134)" stroke-width="14.18" stroke-opacity="1.00" stroke-linejoin="round"/>
<path d="M582.66,433.50 C577.47,435.35 573.33,436.73 570.87,437.32 C567.37,438.18 553.96,444.16 545.55,446.80 C537.31,449.31 525.26,451.68 518.74,452.42 C510.46,453.36 465.46,453.95 461.77,454.23 C458.29,454.50 457.12,454.87 456.74,455.21 C465.00,455.82 474.82,455.78 480.72,455.62 C487.69,455.31 532.38,451.09 538.58,449.72 C546.04,448.06 553.34,445.23 555.48,443.53 C556.23,442.93 556.56,442.23 556.50,441.93 C556.50,441.93 555.60,442.03 555.60,442.03" fill="none" stroke="rgb(143, 114, 134)" stroke-width="14.18" stroke-opacity="1.00" stroke-linejoin="round"/>
<path d="M499.44,459.80 C501.91,460.92 504.87,461.83 507.55,462.03 C513.62,462.46 523.42,460.75 530.49,458.94 C536.71,457.32 552.09,451.19 554.98,449.91 C570.48,443.07 577.62,436.43 577.96,435.89 C575.93,435.13 558.83,431.26 550.68,430.02 C538.39,428.34 507.83,426.58 492.77,425.77 C481.54,425.28 475.22,425.15 474.45,425.64 C475.11,426.77 477.87,427.95 482.53,429.43 C488.91,431.39 497.75,432.82 508.12,434.09 C531.52,436.68 559.00,439.44 560.39,439.17 C560.39,439.17 560.10,438.91 560.10,438.91 C559.34,438.71 553.34,438.14 552.00,438.01" fill="none" stroke="rgb(143, 114, 134)" stroke-width="14.18" stroke-opacity="1.00" stroke-linejoin="round"/>
<path d="M432.22,426.67 C432.22,426.67 431.18,426.95 431.18,426.95 C438.77,428.36 470.86,430.55 485.85,431.49 C492.84,432.02 509.43,433.50 514.05,434.21 C517.83,434.81 533.72,437.92 537.05,438.95 C537.71,439.15 538.35,439.35 539.00,439.54" fill="none" stroke="rgb(143, 114, 134)" stroke-width="14.18" stroke-opacity="1.00" stroke-linejoin="round"/>
<path d="M432.60,423.64 C438.08,425.78 447.06,426.95 456.79,427.46 C463.47,427.66 475.70,427.64 482.70,427.92 C491.94,428.46 505.58,429.78 509.19,431.52 C509.57,431.71 510.41,432.19 511.72,432.97 C511.72,432.97 505.65,434.45 505.65,434.45" fill="none" stroke="rgb(143, 114, 134)" stroke-width="14.18" stroke-opacity="1.00" stroke-linejoin="round"/>
<path d="M427.58,421.27 C428.12,422.01 428.77,422.47 430.47,423.15 C436.92,425.71 450.23,429.25 457.73,430.47 C470.87,432.42 492.86,433.85 500.69,434.28 C503.86,434.47 506.58,435.06 507.70,435.39 C507.70,435.39 507.67,435.66 507.67,435.66 C507.31,435.82 506.79,435.91 505.40,436.00 C501.91,436.19 494.64,436.58 490.86,436.77 C490.06,436.82 489.25,436.86 488.45,436.90" fill="none" stroke="rgb(143, 114, 134)" stroke-width="14.18" stroke-opacity="1.00" stroke-linejoin="round"/>
<path d="M439.63,433.13 C442.57,434.99 448.30,436.55 451.49,437.04 C461.44,438.41 468.32,438.84 478.92,438.94 C485.82,438.89 500.98,438.63 505.39,438.72 C512.27,438.97 528.21,439.77 531.67,439.55 C537.39,439.16 539.05,438.80 541.14,438.07" fill="none" stroke="rgb(143, 114, 134)" stroke-width="14.18" stroke-opacity="1.00" stroke-linejoin="round"/>
<path d="M437.46,440.54 C437.46,440.54 432.93,443.31 432.93,443.31 C433.60,444.32 434.32,444.85 435.76,445.18 C438.42,445.78 455.05,447.85 461.13,448.17 C465.70,448.39 481.77,448.35 490.67,447.77 C504.16,446.84 520.82,443.61 525.77,441.85 C529.83,440.32 530.86,439.64 532.60,438.19 C532.60,438.19 519.40,440.17 519.40,440.17" fill="none" stroke="rgb(143, 114, 134)" stroke-width="14.18" stroke-opacity="1.00" stroke-linejoin="round"/>
<path d="M431.77,448.62 C431.77,448.62 431.08,449.31 431.08,449.31 C433.16,451.26 446.24,453.24 453.01,453.37 C459.87,453.48 488.26,450.00 503.83,447.24 C510.47,446.02 524.23,443.68 531.35,442.56 C536.06,441.88 536.75,441.82 538.16,441.80" fill="none" stroke="rgb(143, 114, 134)" stroke-width="14.18" stroke-opacity="1.00" stroke-linejoin="round"/>
<path d="M505.88,448.62 C505.68,448.88 509.78,450.40 512.69,450.85 C515.50,451.25 521.79,451.20 525.09,450.78 C528.03,450.38 533.82,448.96 535.02,448.39 C537.81,447.00 537.78,445.62 537.44,444.47 C536.73,444.08 536.19,443.83 535.80,443.74 C534.98,443.56 527.67,443.35 524.76,443.28 C507.69,442.81 483.10,442.14 475.59,441.94" fill="none" stroke="rgb(143, 114, 134)" stroke-width="14.18" stroke-opacity="1.00" stroke-linejoin="round"/>
<path d="M402.02,440.61 C401.65,440.75 400.15,441.41 399.77,441.81 C399.55,442.06 399.27,442.59 398.97,443.40 C401.68,445.62 407.96,447.75 411.27,448.61 C417.02,450.07 430.87,452.33 436.67,452.90 C449.92,454.17 462.55,453.13 465.05,452.22 C463.02,450.41 461.47,449.41 459.70,448.97 C456.48,448.19 450.34,447.90 446.95,447.77 C443.18,447.60 436.33,447.28 433.27,447.13" fill="none" stroke="rgb(143, 114, 134)" stroke-width="14.18" stroke-opacity="1.00" stroke-linejoin="round"/>
<path d="M352.59,445.80 C355.59,446.69 362.26,449.22 365.53,450.24 C372.63,452.44 384.90,454.39 390.93,454.47 C393.90,454.47 395.41,454.10 396.84,453.62 C394.21,451.20 359.76,447.55 358.66,447.13 C358.54,445.91 369.73,444.85 381.13,444.31 C388.59,444.00 400.08,443.56 404.11,443.42" fill="none" stroke="rgb(143, 114, 134)" stroke-width="14.18" stroke-opacity="1.00" stroke-linejoin="round"/>
<path d="M513.05,420.30 C514.76,420.27 519.22,420.59 523.40,421.17 C530.38,422.27 545.15,424.64 552.94,425.93 C556.31,426.50 560.62,427.23 561.57,427.39" fill="none" stroke="rgb(143, 114, 134)" stroke-width="14.18" stroke-opacity="1.00" stroke-linejoin="round"/>
<path d="M522.85,419.11 C522.85,419.11 522.15,419.05 522.15,419.05 C525.97,418.28 529.17,418.28 532.33,418.49 C538.05,418.89 558.03,423.16 562.60,424.46 C563.62,424.75 567.54,425.97 568.71,426.33" fill="none" stroke="rgb(143, 114, 134)" stroke-width="14.18" stroke-opacity="1.00" stroke-linejoin="round"/>
<path d="M534.06,418.74 C536.94,419.67 552.43,421.89 559.26,422.85 C564.07,423.54 571.46,425.75 572.91,426.50 C573.39,426.76 574.20,427.31 575.34,428.14" fill="none" stroke="rgb(143, 114, 134)" stroke-width="14.18" stroke-opacity="1.00" stroke-linejoin="round"/>
<path d="M557.91,421.48 C557.91,421.48 552.02,419.77 552.02,419.77 C555.59,419.63 569.38,423.03 574.63,424.79 C576.37,425.38 581.73,427.32 582.78,427.69 C583.57,427.97 584.34,428.25 585.12,428.52" fill="none" stroke="rgb(143, 114, 134)" stroke-width="14.18" stroke-opacity="1.00" stroke-linejoin="round"/>
<path d="M588.19,428.75 C587.26,428.94 586.87,428.96 586.46,428.65 C582.55,425.80 569.68,420.54 562.29,418.90 C558.91,418.18 550.63,417.36 548.53,417.18 C541.92,416.48 534.26,415.67 533.22,415.56" fill="none" stroke="rgb(143, 114, 134)" stroke-width="14.18" stroke-opacity="1.00" stroke-linejoin="round"/>
<path d="M577.77,571.56 C578.20,570.02 578.94,567.30 579.25,566.11 C580.11,562.86 581.79,556.32 582.60,553.04 C583.17,550.56 584.19,546.03 584.30,545.46" fill="none" stroke="rgb(143, 114, 134)" stroke-width="14.18" stroke-opacity="1.00" stroke-linejoin="round"/>
<path d="M578.47,572.08 C578.47,572.08 578.41,572.77 578.41,572.77 C578.76,569.76 579.93,564.79 580.70,560.73 C581.91,553.68 583.56,543.95 583.99,541.25" fill="none" stroke="rgb(143, 114, 134)" stroke-width="14.18" stroke-opacity="1.00" stroke-linejoin="round"/>
<path d="M580.34,572.22 C580.34,572.22 580.73,572.38 580.73,572.38 C582.27,569.31 583.06,566.16 583.63,562.97 C584.24,559.59 585.54,552.49 586.25,548.78 C586.62,546.96 587.22,543.99 587.47,542.84" fill="none" stroke="rgb(143, 114, 134)" stroke-width="14.18" stroke-opacity="1.00" stroke-linejoin="round"/>
<path d="M257.56,549.32 C257.56,549.32 257.94,549.32 257.94,549.32 C261.17,551.67 271.41,556.54 276.40,558.36 C283.63,561.00 297.14,564.57 302.64,565.72 C311.11,567.41 348.26,571.29 356.87,572.33 C372.04,574.55 406.46,580.27 417.92,581.84 C427.92,582.99 463.85,585.20 475.03,585.41 C503.80,585.43 550.25,585.14 560.53,584.66 C568.77,584.18 578.63,581.89 582.27,580.49 C582.57,580.37 583.10,580.14 583.88,579.79" fill="none" stroke="rgb(166, 126, 130)" stroke-width="14.18" stroke-opacity="1.00" stroke-linejoin="round"/>
<path d="M249.56,547.10 C249.75,546.81 250.01,546.58 250.01,546.58 C250.01,546.58 250.33,546.50 250.64,546.52" fill="none" stroke="rgb(166, 126, 130)" stroke-width="14.18" stroke-opacity="1.00" stroke-linejoin="round"/>
<path d="M232.83,436.38 C232.83,436.38 232.71,437.63 232.63,438.67 C232.31,442.89 232.36,446.92 233.54,448.93 C234.67,450.79 238.86,454.14 241.91,455.84 C247.07,458.66 260.54,463.06 267.71,465.34 C276.60,468.03 284.42,470.11 293.26,472.02 C306.40,474.59 333.54,477.91 348.21,479.09 C364.90,480.06 389.57,480.01 403.96,479.83 C419.00,479.42 453.09,478.02 466.15,476.84 C480.57,475.32 508.51,472.25 521.37,469.75 C539.97,465.79 562.19,460.21 577.71,455.28 C585.63,452.69 595.44,448.45 599.23,445.90 C601.80,444.16 605.00,440.86 606.10,438.86 C606.61,437.86 607.35,435.20 607.44,433.67 C607.48,432.69 607.28,430.10 607.28,430.10" fill="none" stroke="rgb(201, 159, 155)" stroke-width="20.51" stroke-opacity="1.00" stroke-linejoin="round"/>
<path d="M245.73,450.24 C245.73,450.24 245.54,450.99 245.54,450.99 C244.34,450.03 242.74,442.90 242.30,438.84 C242.24,438.24 242.15,437.13 242.06,435.52" fill="none" stroke="rgb(201, 159, 155)" stroke-width="20.51" stroke-opacity="1.00" stroke-linejoin="round"/>
<path d="M235.58,437.72 C235.58,437.72 235.02,437.99 235.02,437.99 C235.02,437.99 233.83,437.51 233.83,437.51 C233.85,436.22 237.31,432.87 239.76,431.07 C244.72,427.48 254.42,423.36 263.85,419.93 C276.90,415.42 304.18,408.27 318.07,405.00 C328.42,402.76 354.90,398.19 371.86,396.05 C382.37,394.88 414.21,392.55 428.11,392.43 C443.20,392.51 471.93,392.95 487.19,393.58 C501.68,394.44 531.24,397.09 543.25,399.03 C551.85,400.49 559.60,402.06 567.94,404.90 C576.69,408.00 586.34,412.23 593.76,416.31 C597.04,418.12 601.26,420.89 603.06,422.89 C604.13,424.11 604.88,425.48 605.42,427.16 C606.12,429.53 605.01,433.47 603.42,436.08 C602.32,437.81 598.43,441.20 596.78,441.59" fill="none" stroke="rgb(201, 159, 155)" stroke-width="20.51" stroke-opacity="1.00" stroke-linejoin="round"/>
<path d="M585.65,413.26 C585.95,413.92 586.23,414.39 586.50,414.69 C586.74,414.96 590.78,418.46 591.59,419.34 C593.05,420.93 594.74,425.52 595.15,427.50 C595.60,429.77 595.56,433.38 595.00,435.15 C594.56,436.50 592.22,440.49 590.75,441.89 C588.23,444.24 583.45,447.25 580.19,448.82" fill="none" stroke="rgb(201, 159, 155)" stroke-width="20.51" stroke-opacity="1.00" stroke-linejoin="round"/>
<path d="M579.82,449.66 C579.46,450.52 579.38,450.82 579.01,451.05 C578.30,451.49 577.32,452.12 576.04,452.97 C576.04,452.97 576.08,452.98 576.08,452.98" fill="none" stroke="rgb(201, 159, 155)" stroke-width="20.51" stroke-opacity="1.00" stroke-linejoin="round"/>
<path d="M250.60,544.66 C250.60,544.66 250.28,544.06 250.28,544.06 C250.17,553.39 250.33,561.80 251.04,567.19 C252.50,577.22 259.30,614.16 261.91,625.39 C265.18,638.82 272.10,666.27 275.52,678.53 C278.78,689.52 291.02,723.58 296.08,736.58 C298.69,743.17 304.86,754.04 307.86,757.35 C308.86,758.44 311.06,760.87 311.46,761.30 C312.57,762.44 313.84,763.62 313.84,763.62" fill="none" stroke="rgb(143, 114, 134)" stroke-width="6.80" stroke-opacity="1.00" stroke-linejoin="round"/>
<path d="M313.56,760.16 C313.56,760.16 314.16,760.54 314.16,760.54 C316.66,762.96 319.64,765.68 321.88,767.54 C325.67,770.61 335.82,774.89 344.34,777.41 C352.35,779.68 363.52,781.99 369.17,783.55 C375.08,785.20 387.64,787.20 394.34,788.23 C403.30,789.55 412.88,790.26 421.68,790.08 C428.56,789.86 442.98,789.03 450.18,788.34 C460.02,787.19 474.81,784.65 479.26,783.68 C483.43,782.76 499.22,778.51 505.72,776.55 C511.76,774.65 526.73,769.31 530.02,767.70 C534.74,765.35 555.23,750.02 555.23,750.02 C555.87,749.51 556.58,748.81 556.58,748.81" fill="none" stroke="rgb(143, 114, 134)" stroke-width="6.80" stroke-opacity="1.00" stroke-linejoin="round"/>
<path d="M555.75,747.27 C555.75,747.27 555.00,747.79 555.00,747.79 C555.00,747.79 555.42,748.14 555.42,748.14 C557.45,746.86 563.17,712.89 565.10,700.62 C567.17,684.79 571.16,652.60 573.09,636.25 C576.16,611.67 583.16,567.54 584.69,554.18 C585.32,547.89 586.45,537.06 586.45,537.06 C586.45,537.06 586.48,536.55 586.48,536.15" fill="none" stroke="rgb(143, 114, 134)" stroke-width="6.80" stroke-opacity="1.00" stroke-linejoin="round"/>
<path d="M247.54,543.47 C247.56,543.78 248.29,544.20 249.22,544.39 C249.22,544.39 249.80,544.38 249.80,544.38 C249.80,544.38 248.35,543.81 247.42,543.39 C244.39,542.04 239.31,538.99 237.88,537.85 C235.15,535.67 230.90,531.01 229.80,529.27 C229.39,528.59 228.26,526.49 228.00,525.95 C228.00,525.95 227.93,525.77 227.93,525.77" fill="none" stroke="rgb(143, 114, 134)" stroke-width="6.80" stroke-opacity="1.00" stroke-linejoin="round"/>
<path d="M226.23,525.24 C226.23,525.24 227.27,524.83 227.27,524.83 C227.48,522.15 227.27,519.32 226.59,514.35 C224.31,498.80 221.12,472.32 219.98,455.90 C219.85,453.58 219.64,446.84 219.55,444.30 C219.31,438.33 219.19,436.79 219.11,436.18" fill="none" stroke="rgb(143, 114, 134)" stroke-width="6.80" stroke-opacity="1.00" stroke-linejoin="round"/>
<path d="M589.54,537.69 C589.54,537.69 589.24,537.23 589.24,537.23 C589.73,536.53 593.68,534.47 596.39,533.07 C598.90,531.75 601.23,530.56 602.60,529.85 C604.42,528.85 605.78,527.49 606.46,525.95 C607.82,522.72 610.56,509.16 612.39,498.87 C613.54,491.80 615.38,477.77 616.07,470.76 C616.79,461.53 617.15,451.64 616.88,444.05 C616.56,436.78 615.46,427.66 614.81,425.04 C614.81,425.04 614.73,425.03 614.73,425.03" fill="none" stroke="rgb(143, 114, 134)" stroke-width="6.80" stroke-opacity="1.00" stroke-linejoin="round"/>
<path d="M221.01,436.08 C221.43,436.16 221.52,436.24 221.52,436.24 C222.46,435.13 223.46,433.37 224.24,431.99 C225.14,430.58 228.84,428.32 233.24,426.20 C246.94,420.04 277.91,407.40 282.90,405.84 C287.00,404.56 300.58,401.49 307.43,400.10 C323.75,397.21 353.99,392.62 368.64,390.48 C376.18,389.51 407.92,387.24 422.33,386.24 C436.10,385.44 468.39,383.73 472.35,384.21 C472.35,384.21 472.90,384.29 473.32,384.36" fill="none" stroke="rgb(143, 114, 134)" stroke-width="6.80" stroke-opacity="1.00" stroke-linejoin="round"/>
<path d="M616.23,427.79 C615.92,427.40 615.86,427.41 615.86,427.41 C615.20,424.76 614.59,423.05 613.85,422.09 C611.83,419.48 598.83,408.50 595.61,406.36 C591.27,403.48 580.28,397.82 574.27,395.51 C567.95,393.09 555.08,389.52 549.43,388.54 C546.13,387.97 533.21,386.56 524.69,386.31 C510.94,386.10 475.37,385.08 469.95,384.15 C469.95,384.15 469.20,384.01 468.49,383.85" fill="none" stroke="rgb(143, 114, 134)" stroke-width="6.80" stroke-opacity="1.00" stroke-linejoin="round"/>
<path d="M293.68,460.39 C293.68,460.39 293.47,460.39 293.47,460.39 C293.47,460.39 295.24,459.39 295.74,459.14 C298.54,457.75 305.51,456.64 309.54,456.02 C323.82,453.65 353.83,448.83 369.57,446.68 C383.94,445.00 412.24,442.67 426.68,441.97 C441.09,441.58 470.21,441.54 484.81,441.62 C499.88,441.98 534.77,443.86 541.09,444.78 C544.58,445.30 556.94,448.13 557.60,448.39 C557.94,448.52 558.43,448.92 558.43,448.92" fill="none" stroke="rgb(122, 77, 98)" stroke-width="6.80" stroke-opacity="1.00" stroke-linejoin="round"/>
<path d="M293.60,459.13 C293.60,459.13 293.60,459.20 293.60,459.20 C293.60,459.20 293.60,459.21 293.60,459.21 C297.01,461.44 300.57,463.23 303.84,464.19 C310.73,466.14 319.36,467.91 328.83,468.64 C341.87,469.46 370.84,468.85 386.23,468.46 C404.99,468.18 430.49,466.66 445.47,465.61 C474.53,463.25 527.47,457.73 532.63,456.97 C538.39,456.11 556.51,450.52 557.21,450.35 C558.32,450.09 561.25,449.58 561.25,449.58" fill="none" stroke="rgb(122, 77, 98)" stroke-width="6.80" stroke-opacity="1.00" stroke-linejoin="round"/>
<path d="M305.86,456.47 C305.38,456.70 305.27,456.76 305.27,456.76 C304.72,456.70 301.44,458.88 299.47,459.95 C304.74,460.12 316.74,459.84 328.58,458.80 C336.43,457.95 351.71,456.21 359.14,455.33 C363.24,454.82 367.59,454.12 371.82,453.33" fill="none" stroke="rgb(122, 77, 98)" stroke-width="6.80" stroke-opacity="1.00" stroke-linejoin="round"/>
<path d="M311.55,461.66 C311.55,461.66 310.10,461.72 310.10,461.72 C311.60,463.48 312.85,464.42 314.78,465.03 C320.47,466.84 331.33,467.67 339.12,467.69 C343.86,467.69 356.31,467.07 358.76,466.93" fill="none" stroke="rgb(122, 77, 98)" stroke-width="6.80" stroke-opacity="1.00" stroke-linejoin="round"/>
<path d="M350.35,455.14 C350.35,455.14 349.72,455.27 349.72,455.27 C352.39,456.85 356.89,457.39 359.49,457.33 C360.98,457.29 362.75,456.98 365.61,456.31 C363.26,455.74 359.79,455.84 356.52,456.28 C353.22,456.78 346.44,457.84 343.61,458.48 C339.70,459.39 338.98,460.02 338.51,461.11 C341.10,462.65 348.53,461.68 349.78,461.48" fill="none" stroke="rgb(122, 77, 98)" stroke-width="12.57" stroke-opacity="1.00" stroke-linejoin="round"/>
<path d="M317.01,460.99 C317.01,460.99 315.95,461.50 315.95,461.50 C325.59,462.27 331.89,462.31 342.82,461.44 C346.87,461.07 355.31,460.26 358.82,459.76 C362.48,459.22 367.86,457.85 371.49,456.65" fill="none" stroke="rgb(122, 77, 98)" stroke-width="12.57" stroke-opacity="1.00" stroke-linejoin="round"/>
<path d="M330.11,457.20 C332.11,457.48 349.31,457.40 357.36,456.97 C361.82,456.69 382.99,454.57 386.07,454.11 C387.71,453.84 389.77,453.51 389.77,453.51" fill="none" stroke="rgb(122, 77, 98)" stroke-width="12.57" stroke-opacity="1.00" stroke-linejoin="round"/>
<path d="M346.84,455.73 C360.95,456.13 396.54,455.32 405.43,455.82 C409.02,456.04 412.95,456.53 417.61,457.22" fill="none" stroke="rgb(122, 77, 98)" stroke-width="12.57" stroke-opacity="1.00" stroke-linejoin="round"/>
<path d="M357.91,459.21 C362.82,461.06 377.97,462.61 385.07,462.69 C389.58,462.73 405.40,461.47 410.01,460.93 C413.87,460.45 418.39,459.55 423.44,458.37" fill="none" stroke="rgb(122, 77, 98)" stroke-width="12.57" stroke-opacity="1.00" stroke-linejoin="round"/>
<path d="M354.76,461.66 C357.83,462.76 362.38,463.62 367.63,463.99 C377.85,464.63 394.95,462.48 405.48,460.63 C414.51,458.83 420.52,456.79 421.46,456.48" fill="none" stroke="rgb(122, 77, 98)" stroke-width="12.57" stroke-opacity="1.00" stroke-linejoin="round"/>
<path d="M354.84,456.54 C354.84,456.54 354.01,456.96 354.01,456.96 C368.06,455.40 393.15,452.50 408.68,451.30 C414.69,450.96 424.24,451.61 427.67,451.88 C429.62,452.02 430.83,452.25 433.00,452.86 C433.00,452.86 432.72,453.09 432.72,453.09 C432.72,453.09 425.74,452.82 424.30,452.76" fill="none" stroke="rgb(122, 77, 98)" stroke-width="12.57" stroke-opacity="1.00" stroke-linejoin="round"/>
<path d="M371.06,450.61 C371.06,450.61 365.19,450.53 365.19,450.53 C363.96,449.36 427.85,450.79 431.66,451.03 C433.73,451.16 438.21,451.61 438.98,451.69" fill="none" stroke="rgb(122, 77, 98)" stroke-width="12.57" stroke-opacity="1.00" stroke-linejoin="round"/>
<path d="M414.05,456.76 C417.61,457.65 431.18,458.62 438.70,458.26 C444.35,457.98 456.26,456.13 465.12,454.13 C473.75,452.13 478.84,450.43 481.95,448.97 C483.85,448.08 484.49,447.56 484.43,447.12 C484.43,447.12 476.67,448.19 476.67,448.19" fill="none" stroke="rgb(122, 77, 98)" stroke-width="12.57" stroke-opacity="1.00" stroke-linejoin="round"/>
<path d="M412.04,458.61 C411.93,459.41 413.79,461.24 417.88,462.07 C422.24,462.93 433.18,462.40 441.51,461.26 C451.60,459.76 474.61,455.38 477.96,454.74 C479.86,454.37 481.17,454.17 484.04,453.80" fill="none" stroke="rgb(122, 77, 98)" stroke-width="12.57" stroke-opacity="1.00" stroke-linejoin="round"/>
<path d="M429.39,447.21 C448.61,448.99 465.39,449.54 472.62,449.72 C482.71,450.01 484.56,450.78 484.95,451.20 C483.94,451.41 483.36,451.49 482.35,451.47 C476.17,451.32 468.90,451.16 467.81,451.13" fill="none" stroke="rgb(122, 77, 98)" stroke-width="12.57" stroke-opacity="1.00" stroke-linejoin="round"/>
<path d="M413.83,448.98 C417.48,448.84 435.42,446.05 443.09,446.00 C453.15,445.96 484.86,449.87 487.35,450.05" fill="none" stroke="rgb(122, 77, 98)" stroke-width="12.57" stroke-opacity="1.00" stroke-linejoin="round"/>
<path d="M484.86,450.01 C487.33,450.38 501.65,450.47 505.11,450.33 C505.95,450.29 508.12,450.12 508.82,450.06" fill="none" stroke="rgb(122, 77, 98)" stroke-width="12.57" stroke-opacity="1.00" stroke-linejoin="round"/>
<path d="M469.01,455.50 C471.38,456.98 473.37,457.83 475.50,458.19 C480.64,459.02 489.76,457.43 498.67,455.32 C502.15,454.40 507.98,452.83 510.31,452.18" fill="none" stroke="rgb(122, 77, 98)" stroke-width="12.57" stroke-opacity="1.00" stroke-linejoin="round"/>
<path d="M494.51,448.24 C496.80,448.63 502.22,448.97 507.97,449.13 C512.08,449.22 519.94,449.40 523.69,449.49 C526.61,449.59 530.37,449.71 531.21,449.74" fill="none" stroke="rgb(122, 77, 98)" stroke-width="12.57" stroke-opacity="1.00" stroke-linejoin="round"/>
<path d="M500.34,450.46 C501.24,450.46 501.87,450.46 502.24,450.47 C502.62,450.48 513.71,451.15 517.09,451.13 C523.83,451.06 529.46,450.03 532.05,449.47" fill="none" stroke="rgb(122, 77, 98)" stroke-width="12.57" stroke-opacity="1.00" stroke-linejoin="round"/>
<path d="M515.67,453.79 C517.59,453.13 518.69,452.84 520.49,452.58 C529.80,451.25 534.42,450.85 537.27,450.70" fill="none" stroke="rgb(122, 77, 98)" stroke-width="12.57" stroke-opacity="1.00" stroke-linejoin="round"/>
<path d="M541.99,449.80 C541.99,449.80 541.64,450.35 541.64,450.35 C541.64,450.35 543.77,450.47 543.77,450.47 C543.77,450.47 542.93,450.28 542.93,450.28" fill="none" stroke="rgb(122, 77, 98)" stroke-width="12.57" stroke-opacity="1.00" stroke-linejoin="round"/>
<path d="M495.78,448.76 C495.78,448.76 507.27,447.26 507.27,447.26 C507.27,447.26 488.74,445.83 488.74,445.83 C488.74,445.83 491.13,445.80 491.13,445.80" fill="none" stroke="rgb(122, 77, 98)" stroke-width="12.57" stroke-opacity="1.00" stroke-linejoin="round"/>
<path d="M417.31,452.64 C418.34,452.41 418.23,449.16 416.84,443.21 C412.77,426.94 403.13,393.45 399.78,384.12 C396.84,376.42 391.63,363.41 389.05,358.85 C385.81,353.37 378.99,342.00 374.68,336.12 C371.08,331.23 360.96,319.83 356.58,316.43 C354.66,314.96 348.90,311.73 345.95,310.75 C342.74,309.74 336.95,310.06 334.17,311.52 C331.43,313.03 327.84,317.47 327.14,320.17 C326.79,321.64 326.78,323.96 327.13,325.32 C328.26,329.30 337.49,338.22 344.78,344.50 C351.13,349.98 373.50,375.63 383.86,387.63 C392.77,398.32 407.84,419.80 408.68,421.43 C409.28,422.59 411.26,427.92 412.86,429.24 C412.86,429.24 412.85,428.92 412.85,428.92 C412.85,428.92 412.99,429.19 412.99,429.19 C412.99,429.19 413.15,429.39 413.15,429.39" fill="none" stroke="rgb(142, 163, 98)" stroke-width="8.20" stroke-opacity="1.00" stroke-linejoin="round"/>
<path d="M351.02,327.14 C351.02,327.14 349.97,327.14 349.97,327.14 C349.42,328.67 349.39,329.94 350.11,331.08 C350.85,332.20 352.62,333.77 353.85,334.38 C355.10,334.98 356.30,334.99 357.36,334.60 C357.95,333.58 358.12,332.10 357.48,330.64 C356.34,328.10 352.47,323.92 350.91,322.65 C349.47,321.49 344.50,318.57 342.31,318.79 C341.02,318.97 339.10,321.28 338.60,323.08 C338.15,324.93 338.39,328.91 339.11,330.68 C339.88,332.46 342.50,335.18 344.24,336.06 C345.94,336.86 349.46,337.28 350.95,336.87 C352.41,336.40 354.42,334.22 354.58,332.80 C354.80,330.11 351.85,325.02 350.29,323.29 C348.42,321.24 344.24,318.02 341.52,316.55 C340.16,315.87 336.96,315.08 335.54,315.27 C333.89,315.52 331.98,318.00 331.34,320.15 C330.91,321.80 331.50,326.67 332.47,328.71 C333.47,330.74 336.57,333.77 338.55,334.71 C340.72,335.68 346.72,336.13 349.10,334.61 C350.35,333.76 351.63,331.25 351.51,329.80 C351.34,328.33 350.17,325.84 349.23,324.70 C347.34,322.51 343.71,319.80 341.46,318.89 C340.38,318.49 337.39,318.14 336.06,318.38 C334.58,318.69 332.27,320.80 331.64,322.32 C331.07,323.85 331.16,327.18 331.85,328.63 C332.65,330.21 335.25,332.06 337.38,332.79 C338.97,333.29 344.02,333.08 345.68,332.46 C347.80,331.61 350.44,329.69 351.09,328.33 C351.65,326.99 350.95,324.20 349.73,322.99 C348.63,321.94 346.16,320.52 344.70,319.98 C343.25,319.51 340.39,319.12 338.88,319.31 C337.24,319.56 334.78,321.46 334.17,322.85 C333.63,324.24 333.93,327.35 334.74,328.72 C335.65,330.12 338.63,332.08 340.58,332.56 C342.46,332.98 346.38,332.71 347.85,332.09 C349.29,331.42 350.55,329.38 350.33,328.08 C350.07,326.87 348.12,324.24 346.68,323.06 C345.24,321.94 342.27,320.60 341.12,320.62 C339.92,320.71 338.31,322.55 338.17,324.13 C337.97,327.22 340.36,333.07 341.70,334.97 C343.27,337.15 347.04,340.33 349.43,341.62 C352.49,343.18 355.34,342.92 356.64,342.13 C357.20,340.70 357.08,338.79 356.13,336.63 C355.81,335.91 350.80,327.56 348.82,324.98 C346.19,321.58 345.30,320.93 344.48,320.73 C344.74,324.29 350.80,335.64 354.43,340.44 C358.00,345.12 366.37,352.99 369.97,354.71 C368.32,351.97 363.38,347.16 360.51,344.33 C354.50,338.54 344.71,329.22 342.71,327.51 C345.71,332.34 355.43,343.70 360.88,349.82 C367.00,356.60 373.21,361.86 376.83,364.72 C374.77,361.74 362.33,348.43 356.96,342.65 C348.42,333.67 346.55,332.18 344.43,330.69 C344.43,330.69 343.69,331.35 343.69,331.35 C345.52,336.24 353.90,348.37 358.86,354.00 C368.03,364.35 381.51,373.24 382.69,374.01 C382.69,374.01 351.46,342.24 351.46,342.24 C353.08,345.35 365.77,362.27 368.52,365.46 C370.32,367.54 374.74,371.83 377.28,373.93 C381.33,377.22 383.10,378.09 385.68,379.01 C385.68,379.01 366.18,356.27 366.18,356.27 C367.76,359.35 375.91,370.75 380.71,376.50 C393.63,391.95 400.63,398.47 401.58,399.20 C390.34,383.25 387.55,376.89 387.55,376.89 C387.55,376.89 405.15,403.40 405.15,403.40 C405.04,401.14 401.84,395.33 400.17,392.66 C397.60,388.63 396.72,387.62 395.02,385.95 C395.80,391.24 399.43,401.95 401.08,405.42 C401.99,407.33 403.30,408.71 405.49,410.41 C406.36,408.88 406.50,407.53 405.64,405.43 C404.07,401.60 396.29,386.47 393.34,380.27 C390.34,374.06 383.77,360.91 380.36,356.57 C380.36,356.57 389.49,374.41 389.49,374.41 C383.28,367.39 377.38,359.98 372.02,351.70 C360.29,333.91 356.28,331.29 354.41,330.25 C354.41,330.25 353.79,331.13 353.79,331.13 C355.37,334.88 366.00,349.14 372.11,355.73 C377.60,361.64 385.15,369.03 387.39,371.03 C378.61,360.57 365.13,339.37 360.27,331.78 C359.33,331.71 370.29,348.52 375.43,354.30 C378.50,357.73 382.00,361.03 383.81,362.22 C383.81,362.22 360.44,329.76 360.44,329.76 C367.28,340.23 382.47,354.00 384.85,355.77 C376.94,347.74 366.96,333.38 366.31,332.43 C370.96,339.95 375.84,344.18 377.15,345.23 C374.28,340.89 362.75,328.65 357.99,324.54 C355.37,322.31 351.54,320.12 348.70,319.07 C348.70,319.07 346.65,315.26 345.04,313.97 C344.21,313.31 341.71,311.72 341.71,311.72 C341.71,311.72 359.92,322.48 359.92,322.48 C359.23,322.69 347.88,317.36 341.49,315.38 C340.81,315.17 340.14,314.96 339.46,314.75 C341.41,314.87 343.98,315.45 345.21,316.17 C345.51,316.35 345.75,316.63 345.92,317.00" fill="none" stroke="rgb(142, 163, 98)" stroke-width="8.20" stroke-opacity="1.00" stroke-linejoin="round"/>
<path d="M418.16,446.45 C418.16,446.45 418.73,446.17 418.73,446.17 C418.73,446.17 418.73,446.14 418.73,446.14 C418.53,430.90 418.66,401.38 418.78,385.10 C419.19,367.95 421.91,331.62 422.93,322.89 C423.63,317.39 426.32,302.70 427.66,298.11 C429.76,290.97 434.72,279.66 438.03,274.09 C439.69,271.35 443.96,265.84 446.53,263.83 C449.15,261.84 454.88,260.11 457.97,260.01 C459.47,259.99 461.79,260.22 462.53,260.57 C464.25,261.45 467.92,267.27 468.42,269.28 C468.99,271.77 467.47,277.16 465.82,280.73 C464.79,282.93 457.53,297.43 453.84,306.05 C450.81,313.31 444.83,327.86 441.89,335.16 C438.43,344.10 431.68,358.50 430.71,361.18 C428.55,367.24 424.96,383.93 423.38,391.61 C418.99,414.24 418.48,418.71 418.54,419.70 C418.45,395.80 419.24,381.79 421.71,359.98 C423.02,350.40 431.53,306.14 431.53,306.14 C429.11,315.61 427.32,323.53 425.46,333.72 C422.81,349.84 422.46,359.87 422.42,361.07 C424.36,358.03 427.44,345.63 429.25,338.27 C433.37,321.71 440.02,295.67 440.17,294.62 C434.88,310.06 425.96,340.74 423.66,352.67 C423.17,355.25 421.24,366.81 421.24,366.81 C421.04,369.07 421.30,370.45 421.80,370.50 C424.03,366.70 429.02,350.77 431.43,342.39 C437.20,320.60 438.93,312.61 439.24,311.05 C436.04,316.25 422.41,370.96 422.62,372.03 C422.62,372.03 446.85,293.65 446.85,293.65 C446.85,293.65 432.11,338.08 432.11,338.08 C434.35,334.85 438.74,325.15 442.84,315.21 C449.68,298.05 452.99,284.80 453.41,281.62 C453.63,279.95 453.14,278.60 451.97,276.75 C449.59,278.13 448.16,279.32 446.96,281.19 C443.47,286.66 437.54,300.57 435.14,308.11 C431.68,319.43 431.52,323.24 431.71,326.26 C433.28,326.17 434.32,325.71 435.37,324.35 C438.96,319.66 446.22,304.90 448.02,298.45 C448.90,295.25 449.92,289.52 450.26,285.98 C451.01,277.67 449.17,272.90 448.65,271.74 C446.65,271.53 445.52,271.75 444.71,272.85 C441.77,276.89 437.20,287.48 434.12,297.37 C432.49,302.84 432.37,303.76 432.42,305.63 C434.07,305.19 436.33,302.30 438.37,298.92 C443.40,290.39 449.00,277.41 449.99,272.56 C450.26,271.21 450.28,269.40 450.15,268.54 C450.15,268.54 448.41,267.93 448.41,267.93 C446.26,269.61 443.54,272.68 441.13,276.72 C438.40,281.35 433.17,293.80 431.72,299.04 C430.77,302.62 431.13,303.69 431.98,304.63 C434.96,302.67 440.11,296.11 441.44,294.23 C444.54,289.83 451.85,273.70 452.93,270.34 C453.32,269.08 453.51,267.52 453.66,265.31 C451.20,267.09 445.80,278.94 441.36,289.75 C437.03,300.57 434.74,307.09 431.58,318.84 C430.24,323.91 430.29,326.51 430.74,327.13 C432.30,326.02 434.17,323.08 435.56,320.36 C439.51,312.52 445.02,298.94 447.67,292.26 C444.94,299.36 439.66,313.71 437.11,320.97 C430.07,342.71 428.75,351.44 428.50,354.25 C430.51,353.19 431.51,352.40 432.25,351.01 C436.20,343.53 439.62,335.99 443.44,326.36 C449.12,311.37 455.56,289.57 456.49,285.78 C456.49,285.78 436.51,330.36 436.51,330.36 C436.51,330.36 458.98,279.65 458.98,279.65 C458.98,279.65 451.72,299.85 451.72,299.85 C454.92,295.83 460.11,280.62 461.10,275.06 C461.61,271.95 461.20,270.11 460.60,267.87 C460.60,267.87 459.15,267.42 459.15,267.42 C457.05,269.59 455.60,272.96 454.83,275.39 C453.75,279.01 453.93,281.89 454.54,283.19 C455.69,283.55 457.16,283.25 458.53,282.03 C460.51,280.26 463.77,274.88 464.32,272.34 C464.65,270.75 464.14,267.91 463.41,266.89 C462.66,265.94 460.64,265.20 459.63,265.53 C458.62,265.91 456.91,267.93 456.28,269.40 C455.72,270.80 455.38,273.52 455.71,274.38 C456.11,275.27 457.98,275.68 459.39,275.19 C460.84,274.62 463.85,272.34 464.90,270.95 C465.99,269.46 466.61,266.65 466.10,265.47 C465.56,264.39 463.14,263.05 461.66,262.98 C460.13,262.96 457.21,264.15 455.96,265.29 C453.48,267.66 452.94,270.82 453.07,272.21 C453.07,272.21 454.15,273.17 454.15,273.17 C459.90,272.87 461.64,267.85 461.59,267.02 C461.59,267.02 458.76,267.02 458.76,267.02" fill="none" stroke="rgb(172, 183, 129)" stroke-width="8.20" stroke-opacity="1.00" stroke-linejoin="round"/>
<path d="M417.98,451.51 C417.98,451.51 417.98,451.43 417.98,451.43 C417.98,451.43 417.98,451.42 417.98,451.42 C418.51,447.47 418.76,429.55 418.84,421.61 C419.11,411.16 419.74,403.70 421.19,392.88 C422.39,384.77 425.50,365.60 426.64,360.30 C427.77,355.09 433.85,329.21 441.75,304.01 C442.20,302.56 443.36,298.86 443.36,298.86 C443.36,298.86 443.31,298.73 443.31,298.73 C443.31,298.73 443.07,299.22 443.07,299.22" fill="none" stroke="rgb(105, 128, 79)" stroke-width="8.20" stroke-opacity="1.00" stroke-linejoin="round"/>
<path d="M417.88,444.77 C417.88,444.77 418.34,425.09 418.96,415.69 C419.73,406.75 420.94,397.85 423.31,388.16 C425.20,380.96 430.06,362.73 430.79,360.39 C432.57,354.71 439.72,339.70 442.51,334.39 C451.31,318.32 460.31,301.79 460.87,300.76 C462.41,297.92 464.89,291.63 466.93,285.77 C468.23,282.00 468.70,279.18 468.52,275.28 C468.28,271.04 466.46,265.86 464.63,263.88 C463.00,262.21 459.06,260.81 455.85,260.58 C454.89,260.53 452.36,260.80 451.64,261.06 C450.85,261.35 449.06,262.15 449.06,262.15" fill="none" stroke="rgb(105, 128, 79)" stroke-width="8.20" stroke-opacity="1.00" stroke-linejoin="round"/>
<path d="M447.76,291.05 C447.76,291.05 448.52,290.20 448.52,290.20 C448.71,290.50 448.84,292.18 448.63,293.40 C447.27,301.20 433.45,336.37 430.44,348.83 C429.50,352.80 425.41,368.96 424.69,373.45 C423.55,381.76 421.44,397.56 420.48,405.04 C418.91,415.32 417.65,426.24 416.13,432.29 C415.43,435.19 414.87,440.88 414.72,443.18 C414.72,443.18 414.69,442.68 414.69,442.68" fill="none" stroke="rgb(172, 183, 129)" stroke-width="8.20" stroke-opacity="1.00" stroke-linejoin="round"/>
<path d="M415.89,440.45 C415.89,440.45 415.63,439.67 415.63,439.67 C415.63,439.67 415.76,442.01 415.88,443.31 C415.96,444.18 416.40,447.93 416.56,449.29 C416.56,449.29 417.53,443.04 417.53,443.04 C417.53,443.04 417.12,447.32 417.12,447.32 C417.12,447.32 416.98,446.90 416.98,446.90 C416.98,446.90 416.95,446.50 416.95,446.50" fill="none" stroke="rgb(172, 183, 129)" stroke-width="8.20" stroke-opacity="1.00" stroke-linejoin="round"/>
<path d="M448.80,269.77 C448.42,267.92 448.69,266.49 449.93,265.51 C451.28,264.47 453.66,264.04 455.22,264.55 C456.01,264.83 457.43,265.75 457.66,265.96" fill="none" stroke="rgb(172, 183, 129)" stroke-width="8.20" stroke-opacity="1.00" stroke-linejoin="round"/>
<path d="M448.80,265.55 C448.80,265.55 447.67,264.71 447.67,264.71 C449.41,263.68 451.62,262.83 453.21,262.81 C453.96,262.79 454.89,262.91 456.00,263.16 C456.30,263.23 456.71,263.36 457.24,263.55" fill="none" stroke="rgb(172, 183, 129)" stroke-width="8.20" stroke-opacity="1.00" stroke-linejoin="round"/>
<path d="M450.51,263.30 C450.51,263.30 449.45,263.04 449.45,263.04 C450.49,263.18 452.36,263.07 453.04,263.15 C454.61,263.36 456.58,265.01 458.13,267.40 C458.67,268.26 459.29,269.33 459.99,270.61 C460.15,270.92 460.30,271.23 460.43,271.52" fill="none" stroke="rgb(172, 183, 129)" stroke-width="8.20" stroke-opacity="1.00" stroke-linejoin="round"/>
<path d="M453.15,263.50 C453.15,263.50 454.91,264.99 456.24,266.23 C456.78,266.73 457.51,267.56 457.51,267.56" fill="none" stroke="rgb(172, 183, 129)" stroke-width="8.20" stroke-opacity="1.00" stroke-linejoin="round"/>
</g>
</svg>
