<?xml version="1.0" encoding="UTF-8" standalone="no"?>
<!DOCTYPE svg PUBLIC "-//W3C//DTD SVG 1.1//EN" "http://www.w3.org/Graphics/SVG/1.1/DTD/svg11.dtd">
<svg width="437.00" height="700.00" viewBox="0.00 0.00 437.00 700.00" xmlns="http://www.w3.org/2000/svg" xmlns:xlink="http://www.w3.org/1999/xlink">
<g stroke-linecap="round" id="plant_pot">
<path d="M30.87,339.02 C30.87,339.02 30.41,338.55 30.41,338.55 C29.81,341.61 29.20,352.78 29.28,361.20 C29.46,368.84 30.25,382.80 30.81,389.35 C32.41,404.68 35.56,419.28 35.56,419.28 C35.73,420.31 38.67,422.73 42.39,425.94 C47.95,430.69 55.47,434.95 58.83,436.29 C58.83,436.29 59.03,436.39 59.03,436.39" fill="none" stroke="rgb(181, 148, 147)" stroke-width="9.45" stroke-opacity="1.00" stroke-linejoin="round"/>
<path d="M59.88,435.28 C59.88,435.28 59.48,435.25 59.48,435.25 C59.35,438.90 60.79,453.99 61.51,461.04 C62.61,469.68 68.41,502.62 71.32,517.40 C74.31,531.26 80.78,559.94 84.27,574.76 C88.38,590.78 96.44,616.28 100.34,626.32 C104.43,636.22 108.72,645.44 111.56,649.89 C114.10,653.82 116.77,656.24 117.17,657.55 C117.25,657.83 117.34,658.28 117.43,658.90" fill="none" stroke="rgb(181, 148, 147)" stroke-width="9.45" stroke-opacity="1.00" stroke-linejoin="round"/>
<path d="M118.13,657.24 C118.13,657.24 117.92,657.03 117.92,657.03 C117.92,657.03 118.31,657.23 119.94,658.37 C127.20,663.40 138.90,670.05 144.51,672.36 C150.01,674.59 167.04,679.05 170.99,679.98 C175.58,681.02 207.53,685.05 221.67,685.57 C227.52,685.71 243.25,685.13 250.68,684.81 C261.17,684.08 273.28,682.60 280.30,681.51 C289.50,679.95 302.02,677.29 307.77,675.40 C313.49,673.50 329.79,666.09 333.57,664.71 C341.32,661.97 348.00,658.43 349.92,657.03" fill="none" stroke="rgb(181, 148, 147)" stroke-width="9.45" stroke-opacity="1.00" stroke-linejoin="round"/>
<path d="M348.87,656.58 C348.87,656.58 349.76,657.02 349.76,657.02 C352.29,655.66 355.16,652.03 356.42,650.17 C359.47,645.59 361.51,637.63 363.58,627.55 C366.62,613.29 371.66,587.68 373.68,576.34 C378.42,544.72 388.69,473.09 391.16,450.56 C391.71,445.40 393.24,433.20 393.14,432.93" fill="none" stroke="rgb(181, 148, 147)" stroke-width="9.45" stroke-opacity="1.00" stroke-linejoin="round"/>
<path d="M395.07,431.95 C395.07,431.95 395.15,432.24 395.15,432.24 C400.60,430.62 410.28,425.58 411.22,424.23 C411.96,423.14 414.55,413.46 417.05,401.64 C418.11,396.29 420.62,379.25 421.50,372.09 C423.06,357.46 423.19,340.95 422.64,333.88 C422.61,333.54 422.58,332.85 422.54,331.82" fill="none" stroke="rgb(181, 148, 147)" stroke-width="9.45" stroke-opacity="1.00" stroke-linejoin="round"/>
<path d="M31.55,339.61 C31.55,339.61 32.13,339.24 32.13,339.24 C32.00,337.31 32.08,335.93 32.48,334.98 C33.14,333.47 35.76,329.74 37.60,328.13 C41.29,324.94 55.31,317.84 60.63,315.84 C66.63,313.60 80.72,309.64 85.93,308.63 C88.94,308.08 91.19,307.87 92.51,307.77" fill="none" stroke="rgb(181, 148, 147)" stroke-width="9.45" stroke-opacity="1.00" stroke-linejoin="round"/>
<path d="M92.52,308.85 C94.43,307.03 95.56,306.21 97.08,305.74 C102.51,304.02 111.67,301.37 121.00,299.28 C129.58,297.40 135.44,296.53 145.14,295.55 C160.65,294.16 191.41,291.49 205.62,290.58 C208.99,290.43 277.82,289.32 292.34,289.13 C304.28,289.34 314.89,290.10 321.01,290.67 C332.52,292.00 345.14,294.00 350.39,295.99 C357.34,298.75 366.22,301.02 372.02,302.49 C386.50,306.53 404.86,313.99 408.43,316.25 C411.06,317.92 413.85,320.13 417.36,323.24 C420.04,325.66 422.88,328.86 423.79,331.11 C423.99,331.63 424.13,332.16 424.39,332.66 C424.39,332.66 424.75,333.04 424.75,333.04" fill="none" stroke="rgb(181, 148, 147)" stroke-width="9.45" stroke-opacity="1.00" stroke-linejoin="round"/>
<path d="M39.54,333.75 C39.42,337.09 39.94,344.07 40.46,345.79 C40.96,347.40 43.35,351.44 45.16,353.18 C48.53,356.36 60.23,362.97 65.40,364.87 C72.49,367.45 85.67,371.21 93.80,372.71 C110.37,375.57 136.33,378.90 151.36,380.72 C170.36,382.68 197.19,384.35 210.79,384.40 C221.01,384.24 252.70,382.27 267.04,381.16 C281.04,379.96 309.76,377.29 323.15,375.73 C333.41,374.36 342.97,372.72 350.39,370.80 C361.03,367.88 371.68,364.29 375.60,363.18 C386.45,360.21 392.86,357.88 401.58,352.96 C405.76,350.59 409.32,348.84 409.95,348.25 C412.02,346.22 420.37,335.04 422.72,330.39 C422.87,330.10 422.91,329.94 422.91,329.94" fill="none" stroke="rgb(181, 148, 147)" stroke-width="9.45" stroke-opacity="1.00" stroke-linejoin="round"/>
<path d="M61.30,434.46 C61.30,434.46 61.02,434.60 61.02,434.60 C63.01,436.59 64.50,437.77 66.21,438.55 C70.60,440.52 85.63,443.68 91.91,444.92 C107.01,447.73 133.74,451.51 148.34,453.48 C163.57,455.38 194.59,458.93 203.93,459.66 C214.52,460.35 248.29,460.49 261.91,460.17 C274.99,459.51 298.37,456.23 314.11,453.29 C328.08,450.50 359.37,443.02 374.87,439.13 C384.20,436.80 393.25,435.82 393.61,435.75 C394.04,435.64 397.70,433.22 399.00,432.36" fill="none" stroke="rgb(181, 148, 147)" stroke-width="9.45" stroke-opacity="1.00" stroke-linejoin="round"/>
<path d="M40.96,334.93 C40.96,334.93 39.59,334.31 39.59,334.31 C39.59,334.31 40.83,327.41 40.83,327.41 C39.47,329.43 37.17,335.35 36.73,338.00 C36.50,339.42 36.58,340.62 36.88,341.95 C36.88,341.95 37.22,342.04 37.22,342.04" fill="none" stroke="rgb(181, 148, 147)" stroke-width="9.45" stroke-opacity="1.00" stroke-linejoin="round"/>
<path d="M141.38,459.44 C140.88,459.61 139.52,465.02 139.63,469.25 C139.79,473.69 142.25,486.07 144.74,495.36 C146.64,502.35 149.25,512.06 149.94,514.77 C148.54,513.21 141.62,500.61 137.07,493.82 C135.06,490.86 132.14,487.54 129.74,485.54 C127.69,483.88 123.85,482.30 121.50,481.97 C120.35,481.85 118.18,482.29 117.14,483.03 C115.32,484.35 112.83,489.29 111.02,493.14 C109.49,491.28 108.31,486.74 107.39,483.72 C105.18,476.48 99.93,463.92 97.20,461.77 C96.84,461.50 96.22,461.21 95.35,460.88 C93.43,462.09 92.52,462.97 92.11,464.20 C91.71,465.44 91.16,466.66 90.14,468.65 C88.82,467.99 88.24,467.48 87.72,466.20 C86.54,463.31 78.64,446.12 76.98,444.48 C75.93,443.45 74.30,440.01 73.34,438.06 C72.52,438.45 72.72,441.97 73.53,447.42 C75.80,461.78 80.34,478.09 81.70,482.56 C82.24,484.37 82.80,485.92 83.58,487.90 C83.58,487.90 83.65,488.01 83.65,488.01" fill="none" stroke="rgb(181, 148, 147)" stroke-width="37.80" stroke-opacity="1.00" stroke-linejoin="round"/>
<path d="M80.90,446.26 C80.22,450.05 80.30,467.58 80.56,471.91 C81.00,478.22 82.05,488.70 83.48,497.60 C85.05,506.16 87.34,516.09 88.99,521.56 C102.49,563.15 109.52,582.38 110.80,585.16 C111.28,586.19 112.57,588.80 112.82,589.24" fill="none" stroke="rgb(181, 148, 147)" stroke-width="37.80" stroke-opacity="1.00" stroke-linejoin="round"/>
<path d="M90.16,509.17 C89.29,514.62 89.22,527.72 89.94,533.01 C90.72,538.69 99.21,574.68 103.10,587.97 C105.31,595.05 124.15,638.71 126.45,642.88 C127.63,645.01 130.73,648.28 132.48,649.84 C135.12,652.16 141.71,655.80 145.01,656.92 C147.75,657.81 160.81,660.05 168.55,662.60 C173.49,664.22 178.50,665.66 181.70,666.08 C191.74,667.36 221.77,666.93 235.95,666.62 C245.41,666.27 253.61,665.60 260.86,664.12 C270.67,661.84 279.66,659.16 286.45,656.37 C287.92,655.75 288.63,655.37 289.11,654.95" fill="none" stroke="rgb(181, 148, 147)" stroke-width="37.80" stroke-opacity="1.00" stroke-linejoin="round"/>
<path d="M257.27,667.84 C259.03,668.78 262.54,669.62 266.72,669.77 C269.33,669.83 290.84,665.21 294.79,664.19 C299.31,663.02 313.81,658.25 320.53,656.07 C327.01,653.94 337.22,648.76 340.52,646.06 C341.42,645.29 342.86,643.41 343.88,641.68 C344.57,640.48 344.99,639.23 345.05,638.61" fill="none" stroke="rgb(181, 148, 147)" stroke-width="37.80" stroke-opacity="1.00" stroke-linejoin="round"/>
<path d="M343.78,643.90 C346.48,636.81 347.69,629.73 349.46,621.31 C351.03,613.94 354.22,598.37 354.80,592.95 C355.12,589.87 356.45,569.49 356.55,566.28 C357.02,550.03 354.96,537.06 354.79,535.97" fill="none" stroke="rgb(181, 148, 147)" stroke-width="37.80" stroke-opacity="1.00" stroke-linejoin="round"/>
<path d="M347.60,604.77 C347.60,604.77 348.63,604.16 348.63,604.16 C353.59,576.56 360.14,533.33 362.51,517.53 C363.32,511.20 363.83,502.04 364.16,490.41 C364.26,486.75 364.54,478.45 364.70,475.74 C364.78,474.28 364.95,472.77 364.95,472.77" fill="none" stroke="rgb(181, 148, 147)" stroke-width="37.80" stroke-opacity="1.00" stroke-linejoin="round"/>
<path d="M358.99,562.42 C359.25,559.38 363.14,541.30 363.68,537.92 C364.76,530.84 367.16,498.32 368.13,482.61 C368.63,472.24 367.91,452.58 367.83,449.52 C367.83,449.52 365.63,490.88 365.63,490.88 C367.91,476.50 374.00,437.35 373.50,435.11 C373.50,435.11 373.19,434.75 373.19,434.75 C371.98,434.83 365.52,447.61 363.76,452.14 C361.01,459.26 350.79,494.54 347.23,508.60 C344.14,521.77 338.67,548.06 336.10,561.92 C333.71,575.88 329.45,602.77 327.58,615.69 C326.82,620.48 325.57,626.45 324.56,628.21 C323.71,629.60 318.63,633.27 316.59,634.57 C313.88,636.25 305.63,639.76 303.16,640.62 C297.33,642.61 289.31,643.05 279.98,642.47 C260.43,641.06 237.39,640.24 220.33,640.46 C213.83,640.60 202.09,640.93 196.25,641.02 C186.38,641.01 175.72,640.10 171.29,638.45 C170.26,638.05 165.85,635.47 163.98,633.95 C160.58,631.14 153.65,621.75 150.14,615.54 C147.24,610.40 139.16,593.52 136.99,588.50 C131.87,575.99 122.56,547.36 119.98,535.88 C117.00,521.32 113.54,504.34 113.11,503.65 C113.24,508.70 114.93,520.26 117.19,531.54 C120.49,546.45 127.72,577.95 130.40,587.09 C132.26,593.16 136.95,607.10 139.30,612.79 C143.69,623.06 145.75,627.04 146.82,627.59 C147.56,626.32 139.40,588.88 136.23,574.74 C129.77,546.75 117.15,490.43 110.98,462.11 C110.46,459.68 109.60,455.69 109.28,452.62 C111.06,452.21 128.15,454.65 134.25,455.44 C148.72,456.95 179.75,459.32 189.19,459.56 C203.57,459.69 233.96,460.01 249.98,460.19 C263.63,460.33 283.78,460.43 303.99,459.34 C311.52,458.90 328.10,457.81 332.47,457.36 C338.87,456.59 356.09,454.15 359.82,453.31 C363.84,452.40 365.70,451.45 367.96,450.02 C366.82,448.95 356.27,451.28 346.48,453.96 C331.12,458.13 301.77,465.93 287.79,469.55 C273.91,473.02 250.44,478.15 237.18,480.64 C229.69,481.88 214.92,483.92 207.36,484.91 C199.92,485.66 188.25,486.20 180.08,486.27 C169.55,486.12 140.54,484.02 138.70,484.70 C137.43,485.20 135.37,487.03 134.87,487.96 C133.90,490.04 133.50,495.94 133.71,499.58 C134.21,506.71 136.10,517.69 137.82,526.31 C139.45,533.94 150.33,572.93 153.78,583.27 C155.99,589.46 161.14,603.40 164.18,611.02 C168.40,621.19 172.57,629.62 175.24,633.32 C176.50,635.08 177.96,636.00 180.10,636.55 C181.28,634.75 181.83,633.39 181.92,631.54 C182.20,625.59 180.75,615.43 178.77,605.48 C175.74,591.85 167.29,562.85 163.10,548.97 C160.41,540.45 158.24,535.14 155.51,529.08 C154.95,530.44 156.26,535.67 157.18,538.59 C162.59,555.45 170.50,575.95 176.07,588.86 C178.25,593.66 185.61,608.43 189.00,613.24 C190.93,615.95 193.73,619.31 194.81,619.69 C195.22,619.83 196.39,620.15 198.32,620.66 C199.70,617.01 200.44,614.55 200.49,611.39 C200.52,604.63 199.68,595.56 198.11,585.07 C196.02,571.93 189.23,544.43 185.63,530.29 C183.32,522.04 180.31,513.27 178.56,509.54 C179.25,515.75 181.95,524.89 184.66,533.14 C189.50,546.96 200.74,577.85 205.66,589.05 C207.70,593.62 209.36,597.18 211.35,598.89 C211.42,594.21 209.57,587.02 206.17,576.56 C203.83,569.74 199.86,558.38 196.96,551.18 C193.81,543.85 186.85,527.98 185.09,524.90 C182.63,520.61 179.72,517.34 179.04,516.56 C178.57,517.75 178.57,518.93 179.11,520.90 C180.84,527.13 185.64,538.84 188.52,545.51 C192.01,553.20 197.28,563.56 200.81,569.99 C206.03,579.16 212.19,588.43 215.77,592.76 C217.00,594.23 221.17,598.58 224.61,600.46 C225.62,599.88 227.89,598.68 228.17,598.08 C229.35,595.42 226.98,581.79 225.50,576.13 C222.98,566.98 220.28,558.75 217.04,550.17 C214.28,543.17 208.81,531.93 207.23,529.40 C206.49,528.22 203.78,526.64 202.53,525.96 C201.00,528.04 200.39,529.49 200.52,531.41 C200.92,537.26 203.68,549.12 206.27,556.78 C208.82,564.16 213.80,576.48 216.92,583.69 C220.44,591.61 226.72,602.83 230.35,607.83 C231.27,609.11 236.08,615.07 237.11,615.53 C237.93,615.89 240.48,616.34 242.29,616.58 C244.86,613.70 246.89,609.67 247.41,605.85 C248.08,600.35 247.41,584.92 246.51,579.25 C245.95,575.79 242.13,558.55 240.14,553.20 C237.01,544.90 232.84,537.94 229.88,534.95 C228.38,533.48 226.77,532.24 225.57,531.66 C224.65,531.27 222.67,531.32 221.72,531.83 C220.19,532.71 217.43,539.20 217.17,542.19 C216.66,548.84 219.07,554.09 219.75,555.46" fill="none" stroke="rgb(181, 148, 147)" stroke-width="37.80" stroke-opacity="1.00" stroke-linejoin="round"/>
<path d="M216.22,610.63 C216.22,610.63 214.07,614.59 214.07,614.59 C215.29,615.88 216.23,616.42 218.01,616.65 C222.98,617.29 240.01,618.73 247.55,619.31 C254.29,619.65 266.46,619.95 273.69,619.89 C283.28,619.61 295.18,618.71 300.62,617.97 C304.96,617.37 319.74,614.69 323.20,613.33 C322.70,612.24 320.08,608.17 319.54,604.90 C318.83,600.13 319.75,585.97 320.35,579.36 C321.29,570.92 327.24,536.64 330.10,520.73 C332.70,506.07 336.81,481.71 337.42,473.58 C337.59,471.27 337.29,470.32 336.38,469.43 C335.33,469.45 255.53,486.69 226.45,492.28 C219.05,493.54 204.17,495.99 196.72,497.17 C190.74,498.02 177.30,499.50 169.82,500.13 C168.62,500.30 167.88,500.80 167.55,501.48 C168.03,502.77 172.59,506.34 175.03,507.69 C179.76,510.25 191.18,514.19 197.50,515.63 C202.49,516.74 217.42,518.49 222.44,518.64 C228.34,518.81 239.33,518.20 247.00,517.01 C254.66,515.80 284.92,506.67 300.16,501.97 C319.95,495.58 334.40,489.81 340.04,487.33 C335.17,491.97 304.96,515.06 294.63,521.82 C276.01,533.57 265.52,539.47 243.19,551.01 C238.45,553.48 235.75,555.09 235.87,556.35 C236.89,557.26 242.44,557.09 246.09,556.51 C251.85,555.56 264.87,552.01 272.36,549.36 C279.15,546.94 293.12,540.61 299.01,537.20 C305.26,533.55 312.75,528.14 316.02,525.19 C315.06,524.36 303.82,533.85 301.17,536.73 C299.12,538.96 287.98,552.27 284.36,557.20 C280.05,563.25 272.34,574.62 269.40,580.41 C267.71,583.76 265.37,589.05 264.46,592.19 C263.36,596.11 262.95,600.58 263.74,601.77 C264.88,603.31 266.82,603.76 268.96,602.90 C272.91,601.25 282.30,592.83 287.63,586.53 C291.92,581.37 298.80,571.02 300.74,566.11 C301.91,563.05 301.95,561.17 301.72,559.27 C299.82,559.20 296.18,562.74 294.62,565.09 C293.05,567.52 289.92,573.55 288.65,576.62 C286.39,582.16 285.58,590.69 285.96,591.86 C286.59,593.61 288.56,594.63 290.63,594.31 C291.91,594.07 295.84,591.11 297.78,588.90 C307.06,578.21 309.67,567.06 310.00,565.08 C308.29,567.86 305.47,572.43 305.75,572.88 C307.15,574.98 308.03,579.34 308.47,585.60 C308.75,591.85 309.20,601.18 309.91,603.46 C309.91,603.46 312.17,592.01 312.17,592.01" fill="none" stroke="rgb(181, 148, 147)" stroke-width="37.80" stroke-opacity="1.00" stroke-linejoin="round"/>
<path d="M111.75,438.16 C109.49,437.44 93.11,428.90 86.93,425.84 C64.82,415.36 62.20,414.23 60.20,413.42" fill="none" stroke="rgb(181, 148, 147)" stroke-width="37.80" stroke-opacity="1.00" stroke-linejoin="round"/>
<path d="M72.35,425.31 C70.84,424.82 66.49,422.67 63.59,421.86 C61.91,421.39 58.87,420.61 58.44,420.48 C56.37,419.83 52.37,414.85 50.96,412.33 C49.67,409.99 48.43,404.95 47.90,401.28 C46.82,393.14 45.54,370.31 45.48,368.93 C45.43,368.12 45.38,367.31 45.34,366.50" fill="none" stroke="rgb(181, 148, 147)" stroke-width="37.80" stroke-opacity="1.00" stroke-linejoin="round"/>
<path d="M47.40,371.63 C47.40,371.63 47.25,370.71 46.37,368.94 C45.42,366.98 44.08,351.22 44.30,350.46 C44.30,350.46 44.44,350.12 44.64,349.72" fill="none" stroke="rgb(181, 148, 147)" stroke-width="37.80" stroke-opacity="1.00" stroke-linejoin="round"/>
<path d="M51.87,371.32 C51.84,372.64 52.27,373.49 53.70,374.37 C56.93,376.34 73.92,382.99 77.45,384.20 C83.64,386.30 101.51,390.80 105.06,391.50 C114.83,393.32 133.60,395.39 156.99,396.41 C164.69,396.62 179.23,396.73 186.25,396.61 C202.82,396.05 214.99,393.71 216.31,393.45" fill="none" stroke="rgb(181, 148, 147)" stroke-width="37.80" stroke-opacity="1.00" stroke-linejoin="round"/>
<path d="M85.68,384.29 C91.86,386.81 105.69,391.04 111.08,392.38 C118.04,394.10 153.10,400.12 167.73,402.02 C184.40,403.85 207.92,405.33 221.68,405.36 C233.23,405.22 257.39,403.20 274.01,400.91 C289.42,398.58 318.21,393.68 332.35,391.20 C340.64,389.77 351.21,387.97 353.50,387.58 C353.50,387.58 354.01,387.49 354.38,387.41" fill="none" stroke="rgb(181, 148, 147)" stroke-width="37.80" stroke-opacity="1.00" stroke-linejoin="round"/>
<path d="M211.46,393.49 C219.05,394.98 227.80,395.98 237.28,396.47 C246.41,396.76 257.15,396.51 263.04,395.93 C273.19,394.84 308.01,389.85 324.07,387.15 C343.12,383.78 365.59,378.95 374.55,375.82 C377.50,374.78 393.55,367.80 400.40,365.13 C402.32,364.41 404.37,363.64 404.37,363.64" fill="none" stroke="rgb(181, 148, 147)" stroke-width="37.80" stroke-opacity="1.00" stroke-linejoin="round"/>
<path d="M156.78,409.42 C153.82,408.77 140.06,405.91 121.60,403.07 C114.89,402.12 102.44,400.46 96.94,400.64 C90.48,400.88 79.19,403.72 72.72,406.37 C68.20,408.31 67.30,409.09 65.59,411.10 C66.08,413.39 66.66,414.61 67.91,415.42 C71.81,417.91 83.35,422.68 89.70,424.65 C98.52,427.37 129.70,434.10 144.32,437.15 C158.82,439.91 184.87,444.03 198.21,445.12 C204.55,445.57 215.33,445.19 217.69,444.87 C219.04,444.67 219.64,444.19 220.15,443.14 C216.86,440.57 203.48,435.55 196.43,433.38 C185.19,430.03 148.73,421.95 141.73,420.77 C140.96,420.64 133.86,419.58 131.77,419.92 C133.81,421.41 146.04,423.99 154.21,424.73 C172.46,426.09 198.18,426.55 208.23,426.31 C215.42,426.04 230.30,425.09 235.89,424.26 C239.82,423.67 257.93,420.02 262.50,418.59 C266.43,417.33 268.00,416.58 271.59,414.26 C271.34,413.15 270.05,412.46 267.17,412.04 C262.20,411.32 248.26,411.56 242.65,412.00 C222.54,413.59 217.69,416.53 216.26,417.71 C217.20,418.62 217.92,419.01 219.32,419.19 C223.70,419.75 236.01,420.21 244.99,420.00 C259.61,419.33 293.02,417.46 302.64,416.52 C310.33,415.67 316.23,414.47 317.21,414.28 C310.16,415.41 292.12,418.44 287.56,419.44 C280.00,421.08 269.32,425.03 266.07,427.52 C266.07,427.52 266.03,429.02 266.03,429.02 C271.05,430.37 282.40,430.04 292.54,429.27 C300.17,428.52 314.33,426.56 321.44,425.38 C328.26,424.09 342.44,420.97 347.27,419.56 C362.89,414.97 372.99,409.49 375.17,408.11 C376.42,407.31 377.04,406.67 377.67,405.70" fill="none" stroke="rgb(181, 148, 147)" stroke-width="37.80" stroke-opacity="1.00" stroke-linejoin="round"/>
<path d="M211.36,432.99 C211.36,432.99 210.98,435.39 211.24,436.34 C211.72,438.02 215.87,441.57 218.46,442.43 C225.27,444.58 236.09,445.99 243.56,446.37 C249.96,446.67 264.30,445.99 271.15,445.33 C279.72,444.36 290.83,442.62 297.09,441.57 C303.54,440.33 317.94,437.02 324.98,435.31 C345.36,429.92 359.91,423.34 361.55,422.10" fill="none" stroke="rgb(181, 148, 147)" stroke-width="37.80" stroke-opacity="1.00" stroke-linejoin="round"/>
<path d="M323.52,418.39 C327.15,417.87 336.08,414.87 344.12,411.03 C353.61,406.28 362.11,401.46 367.78,396.77 C369.40,395.43 370.36,394.27 371.43,392.60 C370.28,393.61 368.67,397.24 368.09,400.15 C367.55,403.07 368.51,407.73 370.28,409.36 C371.20,410.17 373.54,411.13 374.90,411.27 C379.62,411.65 386.68,407.59 388.59,405.81 C388.05,405.58 383.73,410.67 384.05,412.66 C384.11,413.01 384.43,413.54 385.01,414.26 C386.53,414.47 387.68,414.30 389.41,413.47 C392.10,412.18 393.65,409.60 393.65,409.60" fill="none" stroke="rgb(181, 148, 147)" stroke-width="37.80" stroke-opacity="1.00" stroke-linejoin="round"/>
<path d="M368.30,472.12 C370.24,470.21 371.48,468.72 372.01,467.30 C373.81,462.44 374.42,449.48 373.82,440.95 C373.35,434.98 372.54,426.63 372.49,425.93 C372.46,425.49 372.40,424.49 372.32,422.93" fill="none" stroke="rgb(181, 148, 147)" stroke-width="37.80" stroke-opacity="1.00" stroke-linejoin="round"/>
<path d="M382.29,407.20 C382.29,407.20 382.25,407.51 382.29,407.81 C382.58,409.73 383.67,412.53 384.64,413.28 C385.38,413.83 387.14,413.56 388.76,412.93 C392.11,411.59 396.31,409.97 396.31,409.97 C396.31,409.97 396.67,410.55 396.94,411.38 C395.59,412.37 394.23,413.12 391.75,414.23 C389.25,415.33 388.38,415.79 388.21,416.03" fill="none" stroke="rgb(181, 148, 147)" stroke-width="37.80" stroke-opacity="1.00" stroke-linejoin="round"/>
<path d="M386.70,420.31 C386.70,420.31 385.35,420.66 385.35,420.66 C385.72,419.80 386.09,418.95 386.46,418.09 C386.76,417.39 387.05,416.68 387.34,415.97" fill="none" stroke="rgb(181, 148, 147)" stroke-width="37.80" stroke-opacity="1.00" stroke-linejoin="round"/>
<path d="M397.09,394.16 C394.93,392.90 393.78,391.89 393.22,390.51 C391.79,386.87 392.59,378.02 392.71,376.77 C392.71,376.77 393.24,398.57 393.24,398.57 C393.24,398.57 394.48,399.02 394.48,399.02 C396.81,394.18 398.71,383.08 398.75,381.61 C398.20,386.97 398.52,396.01 399.32,398.69 C399.42,399.01 399.63,399.33 399.63,399.33" fill="none" stroke="rgb(181, 148, 147)" stroke-width="37.80" stroke-opacity="1.00" stroke-linejoin="round"/>
<path d="M401.51,406.12 C402.46,403.13 403.82,396.85 404.27,393.46 C404.99,387.61 403.98,375.73 402.56,362.98 C402.15,359.29 402.02,356.46 402.03,355.26" fill="none" stroke="rgb(181, 148, 147)" stroke-width="37.80" stroke-opacity="1.00" stroke-linejoin="round"/>
<path d="M402.54,368.69 C403.57,366.46 405.11,359.29 405.36,357.71 C405.91,354.29 406.23,349.44 406.35,347.72" fill="none" stroke="rgb(181, 148, 147)" stroke-width="37.80" stroke-opacity="1.00" stroke-linejoin="round"/>
<path d="M406.34,357.81 C406.76,356.70 407.01,355.95 407.10,355.57 C407.19,355.19 407.23,354.64 407.23,353.92" fill="none" stroke="rgb(181, 148, 147)" stroke-width="37.80" stroke-opacity="1.00" stroke-linejoin="round"/>
<path d="M391.71,403.05 C391.71,403.05 391.71,403.60 391.71,403.60 C391.87,405.94 391.83,407.28 391.92,407.94 C392.22,410.12 395.84,411.95 397.09,412.42 C397.09,412.42 397.22,412.43 397.22,412.43" fill="none" stroke="rgb(181, 148, 147)" stroke-width="37.80" stroke-opacity="1.00" stroke-linejoin="round"/>
<path d="M393.73,412.24 C393.73,412.24 395.28,412.75 395.28,412.75 C395.28,412.75 394.57,410.92 394.57,410.92" fill="none" stroke="rgb(181, 148, 147)" stroke-width="37.80" stroke-opacity="1.00" stroke-linejoin="round"/>
<path d="M78.05,364.21 C78.05,364.21 76.85,365.00 76.85,365.00 C75.25,364.50 69.55,359.26 68.06,357.34 C63.71,351.60 64.06,345.53 64.42,343.27 C62.61,343.90 59.19,344.13 57.85,342.71 C57.20,341.96 56.85,339.86 57.17,338.64 C57.54,337.41 59.07,335.36 60.32,334.46 C62.51,332.97 70.44,330.58 73.07,330.56 C74.26,330.56 75.76,330.79 77.42,331.13" fill="none" stroke="rgb(181, 148, 147)" stroke-width="37.80" stroke-opacity="1.00" stroke-linejoin="round"/>
<path d="M52.63,339.83 C52.04,339.80 51.62,339.72 51.37,339.57 C50.55,339.10 49.77,337.78 49.61,336.89 C50.32,335.65 54.95,333.82 58.31,333.17 C66.84,331.60 75.25,331.03 79.99,331.42 C82.96,331.67 102.15,334.68 107.25,335.77 C112.24,336.87 115.60,337.70 117.72,338.35 C117.72,338.35 113.11,338.66 113.11,338.66" fill="none" stroke="rgb(181, 148, 147)" stroke-width="37.80" stroke-opacity="1.00" stroke-linejoin="round"/>
<path d="M91.96,343.98 C89.51,345.29 82.58,349.37 80.12,352.02 C78.83,353.48 77.71,355.81 78.16,356.70 C79.01,358.21 83.69,360.26 85.48,360.82 C96.21,364.13 128.30,370.60 143.43,373.54 C157.04,376.03 186.85,381.17 197.80,381.99 C205.00,382.43 217.62,382.24 222.61,381.76 C225.22,381.50 230.65,380.41 231.53,379.38 C230.56,377.48 218.79,373.61 208.34,371.21 C202.05,369.87 189.31,367.98 179.10,366.87 C171.72,366.19 156.95,364.93 149.56,364.33 C139.97,363.61 135.94,364.15 133.80,364.58 C134.52,365.61 139.95,366.98 142.24,367.41 C147.43,368.38 157.65,369.13 167.43,369.13 C182.26,368.94 211.79,368.43 226.48,368.12 C242.09,367.61 272.01,366.26 286.32,365.42 C292.82,364.94 307.35,363.78 312.83,362.91 C320.76,361.59 358.87,352.67 362.21,352.28 C358.65,353.47 331.05,357.78 311.09,359.66 C294.20,361.19 254.56,364.76 251.82,364.90 C245.87,365.17 213.23,360.38 199.47,358.25 C185.59,355.99 157.15,351.01 142.70,347.24 C137.79,345.90 132.19,344.05 130.34,343.05 C128.88,342.26 128.25,341.32 128.27,340.40 C129.71,339.13 136.77,337.54 140.28,337.11 C147.39,336.24 158.70,335.79 164.35,336.21 C160.78,336.43 146.66,336.52 138.53,336.56 C127.28,336.51 120.28,336.16 113.20,334.84 C109.09,334.03 106.01,332.87 104.03,331.58 C104.96,330.10 105.94,329.33 107.93,328.80 C118.52,326.02 135.55,325.05 138.79,325.07 C139.67,325.07 140.90,325.07 140.90,325.07" fill="none" stroke="rgb(181, 148, 147)" stroke-width="37.80" stroke-opacity="1.00" stroke-linejoin="round"/>
<path d="M80.63,326.10 C80.63,326.10 82.06,324.17 82.92,323.42 C84.25,322.28 90.89,319.72 93.44,319.27 C96.70,318.70 115.28,317.00 122.84,316.17 C127.47,315.57 132.06,314.82 134.53,314.28 C134.53,314.28 133.15,314.63 133.15,314.63" fill="none" stroke="rgb(181, 148, 147)" stroke-width="37.80" stroke-opacity="1.00" stroke-linejoin="round"/>
<path d="M114.26,317.96 C114.26,317.96 114.30,317.96 114.30,317.96 C120.27,316.94 133.76,314.73 141.27,313.54 C157.43,311.39 180.30,310.46 187.92,310.93 C189.18,311.02 191.42,311.20 192.41,311.31" fill="none" stroke="rgb(181, 148, 147)" stroke-width="37.80" stroke-opacity="1.00" stroke-linejoin="round"/>
<path d="M166.00,311.57 C166.00,311.57 166.54,311.32 167.74,311.03 C171.81,310.04 206.59,308.31 222.54,307.59 C226.68,307.49 233.64,307.35 236.45,307.31 C238.02,307.29 239.03,307.24 241.12,307.07" fill="none" stroke="rgb(181, 148, 147)" stroke-width="37.80" stroke-opacity="1.00" stroke-linejoin="round"/>
<path d="M206.86,307.38 C214.27,308.57 227.13,309.53 233.98,310.01 C250.19,311.28 278.48,315.86 280.55,316.05 C282.37,316.21 283.73,316.21 286.08,316.08" fill="none" stroke="rgb(181, 148, 147)" stroke-width="37.80" stroke-opacity="1.00" stroke-linejoin="round"/>
<path d="M236.39,307.30 C245.27,306.52 257.31,305.81 264.36,306.01 C270.93,306.21 283.81,307.93 290.88,308.95 C296.76,309.71 297.99,309.70 299.31,309.55" fill="none" stroke="rgb(181, 148, 147)" stroke-width="37.80" stroke-opacity="1.00" stroke-linejoin="round"/>
<path d="M273.35,305.22 C276.88,304.77 297.85,304.26 303.13,304.56 C309.34,304.84 324.74,306.94 328.81,308.10 C332.25,309.09 351.96,316.05 353.20,316.44 C359.51,318.45 365.30,319.30 365.65,319.30" fill="none" stroke="rgb(181, 148, 147)" stroke-width="37.80" stroke-opacity="1.00" stroke-linejoin="round"/>
<path d="M340.36,314.63 C349.84,314.58 358.66,314.76 365.62,315.47 C372.34,316.18 382.79,318.87 388.02,320.85 C391.34,322.14 397.45,325.33 399.76,326.86 C400.37,327.27 400.99,327.73 401.60,328.24 C401.60,328.24 401.94,328.60 401.94,328.60" fill="none" stroke="rgb(181, 148, 147)" stroke-width="37.80" stroke-opacity="1.00" stroke-linejoin="round"/>
<path d="M403.08,329.97 C403.96,330.53 404.13,330.67 404.76,331.54 C406.94,334.44 409.61,338.00 410.54,339.49 C409.90,339.87 389.11,340.22 385.35,340.41 C373.51,341.01 360.33,344.16 357.81,345.45 C356.36,346.21 355.55,347.45 355.33,348.65 C355.90,349.74 356.71,350.50 358.19,351.06 C360.81,352.01 366.67,352.15 368.49,351.09 C368.60,349.97 367.62,348.52 365.49,346.97 C362.37,344.71 349.91,340.20 342.96,338.61 C336.19,337.08 322.40,335.31 317.24,335.04 C310.20,334.69 296.22,335.59 290.54,337.23 C289.03,337.67 288.13,338.47 287.06,340.03 C288.40,341.75 289.41,342.68 290.85,343.30 C296.16,345.56 309.62,347.59 315.52,347.56 C319.91,347.48 321.80,346.75 323.94,345.49 C323.31,343.47 322.50,342.30 320.70,341.26 C315.02,338.00 303.61,334.77 295.05,333.22 C285.15,331.54 277.36,330.50 267.35,329.68 C260.09,329.21 243.15,328.28 237.29,328.55 C232.04,328.83 228.87,329.07 226.03,330.44 C227.81,331.94 229.12,332.84 230.51,333.26 C234.92,334.60 251.63,337.10 259.27,337.60 C265.28,337.88 277.02,338.33 280.39,337.55 C279.17,336.14 274.45,334.71 271.99,334.14 C267.31,333.09 253.60,331.16 246.39,330.65 C227.65,329.36 218.07,331.77 215.92,332.79 C215.92,332.79 216.21,334.50 216.21,334.50 C221.12,337.07 228.99,339.21 238.86,341.56 C245.58,343.03 262.46,346.12 265.19,346.43 C266.58,346.60 267.35,346.44 268.13,346.01 C263.50,343.89 248.92,341.53 241.80,340.99 C227.81,339.95 209.89,341.69 204.56,342.96 C202.88,343.35 201.86,343.98 200.70,345.13 C202.81,346.64 207.98,348.00 211.26,348.56 C216.40,349.40 231.57,350.64 235.33,349.68 C237.89,349.00 239.11,347.79 239.19,346.07 C237.35,343.80 236.04,342.52 234.47,341.68 C229.76,339.18 219.00,336.04 212.95,335.15 C209.99,334.73 197.87,333.56 195.78,333.10 C195.78,333.10 202.82,331.09 202.82,331.09 C202.82,331.09 200.35,327.54 200.35,327.54 C200.35,327.54 224.27,326.59 224.27,326.59" fill="none" stroke="rgb(181, 148, 147)" stroke-width="37.80" stroke-opacity="1.00" stroke-linejoin="round"/>
<path d="M173.45,327.08 C173.45,327.08 167.75,326.79 167.75,326.79 C176.41,329.93 184.65,332.41 192.21,334.14 C198.79,335.63 216.03,338.36 220.10,338.72 C217.08,338.41 208.25,337.40 206.99,337.12 C204.25,336.49 196.93,333.57 193.95,332.44 C191.29,331.27 190.54,330.29 190.41,329.62 C190.41,329.62 194.42,326.78 194.42,326.78" fill="none" stroke="rgb(181, 148, 147)" stroke-width="37.80" stroke-opacity="1.00" stroke-linejoin="round"/>
<path d="M35.43,361.84 C35.43,361.84 34.60,361.50 34.60,361.50 C33.82,358.51 32.00,351.61 31.58,349.32 C31.13,346.78 31.32,342.97 32.14,339.57 C33.36,334.75 34.42,331.28 35.30,329.97 C36.75,327.89 39.67,325.34 41.82,324.24 C43.26,323.51 45.35,322.63 46.23,322.35" fill="none" stroke="rgb(181, 148, 147)" stroke-width="6.05" stroke-opacity="1.00" stroke-linejoin="round"/>
<path d="M348.11,297.07 C348.11,297.07 347.77,296.59 347.77,296.59 C350.82,296.96 356.15,298.46 361.34,300.35 C363.02,300.98 366.02,302.12 367.34,302.63 C369.53,303.50 371.93,304.47 372.35,304.61" fill="none" stroke="rgb(181, 148, 147)" stroke-width="6.05" stroke-opacity="1.00" stroke-linejoin="round"/>
<path d="M347.44,292.32 C350.58,293.78 356.82,296.60 359.92,297.51 C361.39,297.94 368.88,299.64 371.60,300.24 C372.76,300.51 373.44,300.73 374.32,301.10" fill="none" stroke="rgb(181, 148, 147)" stroke-width="6.05" stroke-opacity="1.00" stroke-linejoin="round"/>
<path d="M347.14,292.77 C347.14,292.77 346.73,292.77 346.73,292.77 C348.65,293.04 353.61,294.18 358.26,295.37 C367.78,297.87 371.40,298.95 374.79,300.03 C375.87,300.37 377.08,300.77 377.08,300.77" fill="none" stroke="rgb(181, 148, 147)" stroke-width="6.05" stroke-opacity="1.00" stroke-linejoin="round"/>
<path d="M351.19,293.88 C351.19,293.88 350.90,293.95 350.90,293.95 C354.95,295.73 368.22,300.42 375.73,303.04 C387.25,307.02 389.93,307.86 391.64,308.39" fill="none" stroke="rgb(181, 148, 147)" stroke-width="6.05" stroke-opacity="1.00" stroke-linejoin="round"/>
<path d="M369.06,299.29 C370.79,300.26 375.52,302.20 381.03,304.23 C384.54,305.51 390.99,307.87 393.95,308.96 C395.27,309.45 397.09,310.18 398.38,310.70 C398.38,310.70 398.62,310.78 398.62,310.78" fill="none" stroke="rgb(181, 148, 147)" stroke-width="6.05" stroke-opacity="1.00" stroke-linejoin="round"/>
<path d="M377.28,301.37 C377.28,301.37 377.07,301.37 377.07,301.37 C379.29,302.04 384.59,303.68 387.67,304.66 C390.75,305.68 396.98,307.76 399.88,309.03 C400.72,309.40 402.89,310.52 403.80,311.01 C403.80,311.01 404.04,311.15 404.04,311.15" fill="none" stroke="rgb(181, 148, 147)" stroke-width="6.05" stroke-opacity="1.00" stroke-linejoin="round"/>
<path d="M381.24,304.78 C381.24,304.78 381.10,305.12 381.10,305.12 C384.25,306.32 390.61,308.04 394.34,309.05 C398.27,310.13 402.83,311.77 403.82,312.24 C403.82,312.24 404.60,312.64 405.40,313.07" fill="none" stroke="rgb(181, 148, 147)" stroke-width="6.05" stroke-opacity="1.00" stroke-linejoin="round"/>
<path d="M39.09,417.65 C39.09,417.65 38.45,416.51 38.45,416.51 C38.45,416.51 38.57,422.18 38.57,422.18 C38.57,422.18 37.83,418.99 37.83,418.99 C37.83,418.99 37.65,426.43 37.65,426.43 C37.65,426.43 36.92,421.30 36.92,421.30 C36.92,421.30 35.93,420.88 35.93,420.88 C35.93,420.88 35.47,424.90 35.47,424.90 C35.47,424.90 34.72,420.17 34.72,420.17 C34.72,420.17 34.72,421.92 34.72,421.92 C34.72,421.92 34.37,418.76 34.37,418.76 C34.37,418.76 35.07,421.59 35.07,421.59 C35.07,421.59 34.74,419.52 34.74,419.52 C34.74,419.52 35.70,426.94 35.70,426.94 C35.70,426.94 34.66,420.58 34.66,420.58 C34.66,420.58 35.53,426.14 35.53,426.14 C35.53,426.14 35.25,423.58 35.25,423.58 C35.25,423.58 36.44,428.95 36.44,428.95 C36.44,428.95 36.51,427.24 36.51,427.24 C36.51,427.24 38.47,431.83 38.47,431.83 C38.98,431.38 39.74,431.35 41.71,431.93 C54.53,435.69 60.15,437.17 63.90,437.23 C62.97,435.92 59.92,434.63 56.07,433.58 C45.42,430.75 43.74,430.89 42.41,431.14 C44.71,432.86 48.17,434.15 51.95,435.17 C58.09,436.79 59.44,436.97 61.42,437.02 C61.27,435.94 56.91,434.27 50.76,432.51 C48.44,431.84 47.08,431.72 45.11,431.89 C45.41,432.97 45.88,433.64 46.97,434.29 C50.67,436.47 62.09,440.07 64.33,439.61 C63.19,437.82 62.51,436.95 61.70,436.60 C54.18,433.38 47.82,432.40 45.45,432.29 C45.45,432.29 45.32,433.35 45.32,433.35 C48.03,435.22 55.14,437.74 56.68,438.23 C59.91,439.25 61.18,439.24 62.73,439.10 C61.25,437.27 58.51,435.77 54.92,434.38 C48.97,432.15 44.61,431.03 43.28,431.56 C43.28,431.56 45.29,432.92 45.29,432.92 C45.29,432.92 46.12,432.44 46.12,432.44 C46.00,430.26 42.93,426.85 40.58,425.98 C40.58,425.98 42.41,429.60 42.41,429.60 C42.41,429.60 40.98,428.64 40.98,428.64 C44.31,431.60 55.74,436.89 58.74,437.20 C57.66,436.12 54.02,434.40 51.70,433.57 C48.07,432.31 45.57,432.46 45.10,433.10 C47.41,435.00 51.53,437.12 54.00,438.15 C56.71,439.26 60.79,440.28 62.63,439.86 C60.54,437.79 55.73,435.34 53.45,434.40 C50.85,433.36 45.25,431.86 42.51,432.34 C43.16,433.70 43.92,434.57 45.42,435.49 C48.08,437.11 53.47,439.71 56.32,440.78 C58.96,441.77 63.37,442.77 64.18,442.24 C53.76,434.51 43.20,433.00 42.06,432.87 C42.30,434.06 42.59,434.81 43.24,435.30 C48.89,439.54 54.93,441.25 56.68,441.43 C55.46,439.27 52.86,437.50 49.57,435.87 C44.30,433.31 43.07,432.75 41.59,432.15 C41.59,432.15 44.91,433.74 44.91,433.74 C44.91,433.74 40.42,427.23 40.42,427.23 C40.42,427.23 40.81,426.91 40.81,426.91" fill="none" stroke="rgb(181, 148, 147)" stroke-width="6.05" stroke-opacity="1.00" stroke-linejoin="round"/>
<path d="M60.03,443.58 C60.03,443.58 60.03,443.73 60.03,443.73 C63.46,445.10 77.76,447.48 85.41,448.71 C98.36,450.90 120.93,454.45 137.65,456.16 C148.48,457.00 175.80,457.97 192.37,457.85 C206.62,457.47 234.01,456.32 247.15,455.54 C260.62,454.57 292.40,451.46 306.80,449.92 C321.59,448.15 353.74,443.98 368.21,441.65 C374.61,440.55 394.12,437.31 396.53,437.30 C397.87,437.30 398.54,437.23 398.54,437.23" fill="none" stroke="rgb(143, 114, 134)" stroke-width="6.05" stroke-opacity="1.00" stroke-linejoin="round"/>
<path d="M57.34,445.88 C57.34,445.88 57.42,445.85 57.71,445.95 C60.07,446.78 76.16,454.51 82.80,457.58 C90.29,460.92 101.00,463.57 106.96,464.84 C115.16,466.48 149.04,471.23 164.13,472.85 C198.18,475.90 249.28,478.73 278.46,480.20 C290.20,480.67 319.57,480.50 334.87,480.36 C355.02,479.86 370.38,478.26 384.94,476.34 C387.95,475.97 390.05,475.81 390.05,475.81" fill="none" stroke="rgb(143, 114, 134)" stroke-width="11.15" stroke-opacity="1.00" stroke-linejoin="round"/>
<path d="M389.01,475.13 C389.81,470.24 390.96,460.23 392.81,448.05 C393.58,442.87 393.82,440.63 393.89,438.20 C393.89,438.20 393.93,437.72 393.93,437.72" fill="none" stroke="rgb(143, 114, 134)" stroke-width="11.15" stroke-opacity="1.00" stroke-linejoin="round"/>
<path d="M74.75,450.39 C77.31,450.93 89.41,454.86 97.19,456.16 C103.76,457.19 111.64,457.87 119.56,458.21 C134.00,458.47 162.43,458.97 174.22,459.70 C176.27,459.83 192.86,461.15 199.45,461.16 C218.12,461.00 236.62,460.06 254.95,457.84 C268.55,456.35 296.50,453.43 307.98,452.00 C318.38,450.81 360.94,447.15 367.77,446.06 C371.12,445.56 388.54,443.93 392.47,443.22 C392.91,444.40 392.56,451.67 391.95,455.20 C391.37,458.44 388.94,461.34 388.38,461.67 C388.38,461.67 385.95,458.76 385.95,458.76 C385.95,458.76 383.74,464.13 383.74,464.13 C383.74,464.13 383.50,461.16 383.50,461.16" fill="none" stroke="rgb(143, 114, 134)" stroke-width="11.15" stroke-opacity="1.00" stroke-linejoin="round"/>
<path d="M125.90,460.18 C128.02,461.87 131.00,463.28 134.61,463.94 C137.82,464.49 206.64,465.74 219.81,466.29 C236.49,467.34 251.90,468.84 255.49,469.20" fill="none" stroke="rgb(143, 114, 134)" stroke-width="11.15" stroke-opacity="1.00" stroke-linejoin="round"/>
<path d="M109.90,455.96 C109.90,455.96 109.13,456.51 109.13,456.51 C112.21,458.07 117.82,459.80 120.68,460.51 C126.45,461.89 139.11,464.18 146.16,465.02 C155.56,466.00 163.39,466.42 173.20,466.17 C188.26,465.60 215.46,463.63 228.60,462.45 C246.08,460.82 271.05,459.39 285.37,458.64 C299.98,457.55 329.05,454.64 342.78,452.82 C358.65,450.61 379.48,448.75 382.33,448.32 C385.74,447.81 393.21,445.85 394.70,444.72 C395.10,444.42 395.82,443.74 396.87,442.69" fill="none" stroke="rgb(143, 114, 134)" stroke-width="11.15" stroke-opacity="1.00" stroke-linejoin="round"/>
<path d="M245.01,461.89 C245.01,461.89 245.36,463.21 245.71,463.76 C246.47,464.84 247.79,465.86 249.03,466.28 C252.71,467.43 267.59,467.27 274.31,467.09 C287.17,466.58 342.16,461.27 360.64,460.01 C371.31,459.17 380.04,457.77 386.83,455.54 C389.43,454.69 394.36,452.27 394.36,452.27" fill="none" stroke="rgb(143, 114, 134)" stroke-width="11.15" stroke-opacity="1.00" stroke-linejoin="round"/>
<path d="M357.02,457.15 C361.78,457.50 370.72,455.68 382.96,452.66 C386.43,451.78 392.01,450.38 392.30,450.30 C392.59,450.21 392.98,450.07 393.49,449.87 C393.49,449.87 389.24,450.10 389.24,450.10" fill="none" stroke="rgb(143, 114, 134)" stroke-width="11.15" stroke-opacity="1.00" stroke-linejoin="round"/>
<path d="M361.97,456.24 C363.58,455.99 367.83,455.29 369.16,455.01 C370.50,454.73 372.59,454.16 373.78,453.82" fill="none" stroke="rgb(143, 114, 134)" stroke-width="11.15" stroke-opacity="1.00" stroke-linejoin="round"/>
<path d="M184.68,467.96 C184.68,467.96 184.60,468.38 184.60,468.38 C185.37,468.47 205.99,467.68 209.91,467.74 C215.54,467.84 230.83,469.62 238.07,470.46 C251.54,471.73 271.86,471.77 288.93,471.01 C312.68,469.71 347.48,462.86 348.28,462.70" fill="none" stroke="rgb(143, 114, 134)" stroke-width="11.15" stroke-opacity="1.00" stroke-linejoin="round"/>
<path d="M216.07,466.85 C216.07,466.85 217.28,467.06 217.84,467.12 C220.00,467.38 237.00,469.99 243.21,470.72 C253.35,471.68 289.18,473.08 299.54,473.07 C306.76,472.93 320.95,472.36 324.35,471.47 C328.35,470.38 329.74,468.86 329.74,468.86 C329.74,468.86 325.39,467.96 325.39,467.96" fill="none" stroke="rgb(143, 114, 134)" stroke-width="11.15" stroke-opacity="1.00" stroke-linejoin="round"/>
<path d="M198.20,467.52 C198.15,469.20 198.46,470.54 199.40,471.08 C201.19,472.10 207.00,472.25 209.96,472.32 C219.56,472.41 251.22,473.82 265.94,474.53 C279.49,475.04 307.15,475.66 322.74,475.53 C341.13,475.10 354.75,473.18 358.26,472.40" fill="none" stroke="rgb(143, 114, 134)" stroke-width="11.15" stroke-opacity="1.00" stroke-linejoin="round"/>
<path d="M309.83,468.85 C317.41,469.87 328.52,469.93 335.31,468.84 C339.11,468.23 366.68,462.95 367.52,462.79 C368.53,462.59 370.12,462.11 370.12,462.11" fill="none" stroke="rgb(143, 114, 134)" stroke-width="11.15" stroke-opacity="1.00" stroke-linejoin="round"/>
<path d="M340.79,469.52 C341.40,469.78 341.85,469.94 342.16,469.98 C346.04,470.62 358.25,468.50 367.25,465.97 C375.90,463.40 378.25,461.71 378.83,461.21" fill="none" stroke="rgb(143, 114, 134)" stroke-width="11.15" stroke-opacity="1.00" stroke-linejoin="round"/>
<path d="M362.25,471.74 C364.72,472.43 371.32,472.12 374.24,471.01 C375.57,470.49 378.87,468.29 379.58,467.56 C379.83,467.28 380.20,466.77 380.66,466.02" fill="none" stroke="rgb(143, 114, 134)" stroke-width="11.15" stroke-opacity="1.00" stroke-linejoin="round"/>
<path d="M367.26,470.91 C368.51,470.83 374.83,469.11 377.17,467.98 C379.79,466.68 385.03,462.01 385.76,460.92" fill="none" stroke="rgb(143, 114, 134)" stroke-width="11.15" stroke-opacity="1.00" stroke-linejoin="round"/>
<path d="M383.18,468.19 C383.18,468.19 383.12,468.88 383.12,468.88 C383.94,466.31 384.50,456.05 384.39,452.63 C384.35,451.07 384.25,449.96 384.03,447.94" fill="none" stroke="rgb(143, 114, 134)" stroke-width="11.15" stroke-opacity="1.00" stroke-linejoin="round"/>
<path d="M382.96,468.11 C382.96,468.11 382.96,468.73 382.96,468.73 C382.96,468.73 383.32,467.13 383.56,465.72 C383.97,463.42 384.39,460.20 384.53,458.50 C384.62,457.03 384.78,454.60 384.84,453.65" fill="none" stroke="rgb(143, 114, 134)" stroke-width="11.15" stroke-opacity="1.00" stroke-linejoin="round"/>
<path d="M64.14,335.01 C64.76,334.44 66.96,332.10 67.44,331.72 C69.74,329.93 75.36,328.04 78.00,327.37 C92.21,324.01 125.20,317.05 131.98,316.01 C142.29,314.56 175.17,311.05 187.67,310.08 C202.14,309.35 232.20,308.04 247.79,307.45 C263.38,307.05 290.49,307.12 304.42,307.99 C313.57,308.69 324.91,310.09 331.33,311.06 C337.45,312.04 347.04,314.34 356.29,316.97 C377.06,323.12 387.86,327.01 390.04,328.00 C390.81,328.37 392.07,328.92 392.07,328.92" fill="none" stroke="rgb(143, 114, 134)" stroke-width="11.15" stroke-opacity="1.00" stroke-linejoin="round"/>
<path d="M65.27,337.38 C64.91,337.50 64.18,339.42 64.21,340.67 C64.25,341.70 67.38,346.14 70.42,348.31 C72.47,349.74 85.21,354.63 91.54,356.16 C101.15,358.45 132.08,362.57 146.04,364.29 C160.67,365.84 188.94,367.92 204.97,368.59 C221.32,369.07 256.23,369.96 265.47,369.97 C279.32,369.62 306.38,367.56 316.59,366.43 C323.76,365.47 338.58,362.89 342.49,361.96 C356.88,358.53 373.69,351.97 380.78,348.48 C384.60,346.58 389.69,343.28 392.24,340.68 C394.02,338.83 396.64,335.33 397.17,332.56 C397.34,331.65 397.46,330.42 397.53,328.90 C397.53,328.90 397.45,328.79 397.45,328.79" fill="none" stroke="rgb(143, 114, 134)" stroke-width="11.15" stroke-opacity="1.00" stroke-linejoin="round"/>
<path d="M72.07,328.64 C72.07,328.64 71.37,328.94 71.37,328.94 C83.75,331.58 108.70,337.08 120.94,340.16 C136.21,344.12 166.92,352.00 182.36,355.91 C195.99,359.33 223.73,366.33 223.73,366.33 C223.73,366.33 224.31,366.46 224.74,366.54" fill="none" stroke="rgb(143, 114, 134)" stroke-width="11.15" stroke-opacity="1.00" stroke-linejoin="round"/>
<path d="M94.72,326.93 C100.60,328.42 114.51,328.54 122.22,328.55 C143.94,328.53 152.05,329.84 153.06,330.10 C153.06,330.10 123.58,327.47 123.58,327.47 C124.67,326.44 135.42,326.20 139.02,326.49 C139.02,326.49 142.95,328.24 142.95,328.24 C142.95,328.24 132.62,330.26 132.62,330.26 C132.62,330.26 137.29,330.91 137.29,330.91" fill="none" stroke="rgb(143, 114, 134)" stroke-width="11.15" stroke-opacity="1.00" stroke-linejoin="round"/>
<path d="M110.95,326.71 C106.49,327.87 102.74,329.39 101.88,331.01 C101.56,331.77 102.15,333.23 103.12,333.92 C106.02,335.89 117.37,338.72 123.69,339.93 C117.65,339.19 103.92,339.98 99.10,340.62 C95.30,341.16 93.77,341.96 92.04,343.03 C92.04,343.03 91.89,344.29 91.89,344.29 C91.89,344.29 93.60,345.56 93.60,345.56 C93.60,345.56 90.74,343.92 90.74,343.92 C92.16,346.52 95.48,343.92 95.82,343.24 C95.01,341.71 93.20,341.23 91.91,341.14 C94.55,342.38 97.00,342.15 98.27,341.56 C98.27,341.56 96.63,340.86 96.63,340.86 C96.63,340.86 96.55,341.61 96.55,341.61 C96.55,341.61 97.44,341.93 97.44,341.93" fill="none" stroke="rgb(143, 114, 134)" stroke-width="11.15" stroke-opacity="1.00" stroke-linejoin="round"/>
<path d="M82.61,334.35 C82.61,334.35 83.54,336.19 84.25,336.98 C85.50,338.37 91.24,340.46 93.78,340.86 C103.23,342.22 117.49,339.83 118.23,339.65" fill="none" stroke="rgb(143, 114, 134)" stroke-width="11.15" stroke-opacity="1.00" stroke-linejoin="round"/>
<path d="M236.71,339.46 C231.93,339.72 227.34,339.90 225.45,339.72 C224.06,339.58 217.71,338.40 215.55,338.15 C212.63,337.83 207.73,338.04 204.29,339.29 C204.29,339.29 204.17,340.48 204.17,340.48 C207.36,341.83 209.89,341.58 211.07,341.15 C210.01,339.64 209.10,338.95 207.60,338.70 C206.11,338.47 199.96,337.66 199.64,337.91 C198.38,338.91 200.26,338.97 201.95,337.74 C202.59,337.28 203.25,336.81 203.89,336.34" fill="none" stroke="rgb(143, 114, 134)" stroke-width="48.29" stroke-opacity="1.00" stroke-linejoin="round"/>
<path d="M110.72,336.49 C107.79,337.24 101.70,338.55 97.76,338.47 C96.47,338.43 86.69,337.19 86.32,337.23 C84.29,337.47 82.71,338.67 82.03,340.23 C83.06,342.81 86.12,344.03 87.57,344.35 C86.62,342.79 85.46,341.80 83.81,341.49 C83.38,341.42 82.46,341.30 81.02,341.15 C81.02,341.15 86.35,340.87 86.35,340.87 C86.35,340.87 85.50,340.07 85.50,340.07 C85.39,341.44 86.10,342.40 88.09,342.90 C90.94,343.60 98.15,343.42 98.90,342.95 C98.90,342.95 98.37,341.73 98.37,341.73 C98.94,342.01 100.81,342.09 102.17,341.78 C102.92,341.62 103.33,341.03 103.47,340.46 C103.47,340.46 100.66,339.22 100.66,339.22" fill="none" stroke="rgb(143, 114, 134)" stroke-width="14.18" stroke-opacity="1.00" stroke-linejoin="round"/>
<path d="M71.84,337.09 C71.61,338.25 71.60,339.78 72.03,340.91 C73.02,343.41 76.93,346.58 80.00,348.23 C81.95,349.20 86.51,350.34 90.35,350.89 C93.58,351.34 98.72,351.26 101.94,350.77 C110.60,349.39 116.01,347.39 116.83,347.01" fill="none" stroke="rgb(143, 114, 134)" stroke-width="14.18" stroke-opacity="1.00" stroke-linejoin="round"/>
<path d="M73.94,335.08 C73.74,336.10 75.79,337.67 79.40,339.16 C85.55,341.59 116.96,345.56 122.39,345.78 C129.39,346.00 137.14,345.68 138.32,345.63" fill="none" stroke="rgb(143, 114, 134)" stroke-width="14.18" stroke-opacity="1.00" stroke-linejoin="round"/>
<path d="M95.17,344.42 C100.26,347.20 110.81,349.96 117.39,351.08 C123.19,352.04 131.95,352.72 142.36,353.23 C149.68,353.47 166.08,353.90 172.18,353.53 C178.87,353.12 196.17,350.39 200.47,349.36 C200.96,349.25 201.45,349.14 201.94,349.01" fill="none" stroke="rgb(143, 114, 134)" stroke-width="14.18" stroke-opacity="1.00" stroke-linejoin="round"/>
<path d="M139.81,351.39 C142.60,353.50 152.47,356.39 159.36,357.78 C166.59,359.22 179.54,360.63 186.91,360.91 C200.00,361.37 222.93,358.88 228.39,357.83 C231.82,357.15 237.41,355.55 239.90,354.48 C239.90,354.48 239.74,354.27 239.74,354.27 C238.37,354.18 237.48,354.14 235.41,354.07 C227.70,353.81 213.55,353.31 207.10,353.10" fill="none" stroke="rgb(143, 114, 134)" stroke-width="14.18" stroke-opacity="1.00" stroke-linejoin="round"/>
<path d="M148.85,356.21 C150.65,357.25 154.69,359.01 157.72,359.97 C162.16,361.35 179.28,362.37 182.85,362.36 C189.86,362.32 202.05,360.81 204.64,359.02 C204.92,358.29 204.51,357.05 203.42,355.89 C202.58,355.03 200.68,353.92 199.13,353.29 C196.10,352.11 192.53,351.60 187.80,351.23 C186.09,351.10 183.25,350.89 182.12,350.81" fill="none" stroke="rgb(143, 114, 134)" stroke-width="14.18" stroke-opacity="1.00" stroke-linejoin="round"/>
<path d="M137.42,350.13 C137.42,350.13 127.09,354.54 127.09,354.54 C127.10,355.39 127.93,356.22 129.86,357.11 C133.09,358.60 144.07,361.54 153.73,363.26 C161.22,364.46 171.04,365.31 180.13,365.31 C194.81,365.09 227.25,363.50 241.84,362.27 C252.63,361.13 264.07,359.20 268.37,357.81 C268.88,357.65 269.40,357.48 269.91,357.32" fill="none" stroke="rgb(143, 114, 134)" stroke-width="14.18" stroke-opacity="1.00" stroke-linejoin="round"/>
<path d="M234.70,354.06 C234.70,354.06 234.41,354.54 234.41,354.54 C237.13,357.40 240.47,358.99 243.15,359.76 C246.71,360.74 251.54,361.29 255.67,361.24 C266.47,360.99 275.46,360.28 285.18,359.10 C291.58,358.20 304.81,356.19 311.66,355.09 C318.91,353.78 332.93,349.74 334.98,348.88" fill="none" stroke="rgb(143, 114, 134)" stroke-width="14.18" stroke-opacity="1.00" stroke-linejoin="round"/>
<path d="M260.56,358.43 C261.46,358.61 262.20,358.71 264.71,359.04 C273.10,360.12 286.50,360.23 295.10,359.23 C297.69,358.93 306.91,357.58 310.50,356.78 C314.07,355.99 316.91,355.12 318.08,354.68" fill="none" stroke="rgb(143, 114, 134)" stroke-width="14.18" stroke-opacity="1.00" stroke-linejoin="round"/>
<path d="M127.69,345.17 C127.69,345.17 127.18,345.45 127.18,345.45 C132.88,343.93 138.92,342.64 148.16,341.64 C162.75,340.24 188.96,338.45 203.44,337.84 C208.51,337.72 219.38,337.91 221.92,338.05 C223.53,338.16 224.99,338.47 227.25,339.12 C226.61,339.38 225.99,339.60 225.99,339.60 C225.21,339.82 211.74,340.14 208.92,340.20" fill="none" stroke="rgb(143, 114, 134)" stroke-width="14.18" stroke-opacity="1.00" stroke-linejoin="round"/>
<path d="M124.71,338.86 C128.82,339.79 144.58,340.98 152.01,341.47 C165.90,342.04 197.30,341.06 207.34,340.24 C213.37,339.62 225.58,337.92 227.63,337.40" fill="none" stroke="rgb(143, 114, 134)" stroke-width="14.18" stroke-opacity="1.00" stroke-linejoin="round"/>
<path d="M112.58,342.64 C113.62,341.32 120.03,338.42 121.83,337.85 C126.60,336.43 138.75,334.42 145.21,333.90 C158.37,333.06 189.68,331.75 205.95,331.16 C229.71,330.55 234.34,330.92 236.10,331.13" fill="none" stroke="rgb(143, 114, 134)" stroke-width="14.18" stroke-opacity="1.00" stroke-linejoin="round"/>
<path d="M120.60,334.35 C123.10,333.05 136.96,330.77 142.47,330.28 C154.34,329.38 189.72,327.61 205.15,326.83 C211.58,326.36 218.40,325.19 218.74,324.86 C217.52,324.74 216.47,324.73 213.88,324.85 C209.51,325.06 203.71,325.33 202.29,325.41" fill="none" stroke="rgb(143, 114, 134)" stroke-width="14.18" stroke-opacity="1.00" stroke-linejoin="round"/>
<path d="M113.94,333.02 C117.57,331.42 131.82,328.29 138.32,327.34 C145.48,326.30 183.82,323.08 197.93,323.03 C207.54,323.09 209.78,323.40 212.02,323.81" fill="none" stroke="rgb(143, 114, 134)" stroke-width="14.18" stroke-opacity="1.00" stroke-linejoin="round"/>
<path d="M112.82,326.19 C116.66,325.63 125.89,324.50 136.58,323.57 C167.46,321.69 205.13,319.52 211.89,319.21 C214.67,319.09 218.81,319.04 219.89,319.03" fill="none" stroke="rgb(143, 114, 134)" stroke-width="14.18" stroke-opacity="1.00" stroke-linejoin="round"/>
<path d="M127.25,322.36 C131.91,322.20 169.61,318.64 185.47,317.39 C202.77,316.37 236.56,315.20 243.05,315.30 C246.76,315.37 267.08,316.34 272.12,317.24 C274.97,317.77 277.79,318.76 278.73,319.14" fill="none" stroke="rgb(143, 114, 134)" stroke-width="14.18" stroke-opacity="1.00" stroke-linejoin="round"/>
<path d="M206.95,315.30 C209.50,315.40 214.55,315.58 217.05,315.66 C226.55,315.92 262.55,314.99 277.30,314.59 C287.26,314.56 300.83,315.38 303.93,315.69 C307.85,316.10 324.66,319.16 327.24,319.75 C330.49,320.50 334.69,321.77 335.56,322.03" fill="none" stroke="rgb(143, 114, 134)" stroke-width="14.18" stroke-opacity="1.00" stroke-linejoin="round"/>
<path d="M280.45,314.04 C280.45,314.04 280.13,313.76 280.13,313.76 C280.98,313.51 291.72,314.79 302.79,315.43 C310.64,315.79 328.93,316.60 331.75,316.82 C336.52,317.21 347.42,319.39 356.12,322.13 C360.71,323.62 379.90,330.87 382.10,333.12 C382.67,333.73 383.55,336.65 384.07,336.90 C384.74,336.47 385.26,335.92 385.06,335.36 C384.80,334.61 383.92,332.71 383.75,330.33 C383.68,329.45 383.25,329.11 382.28,328.79" fill="none" stroke="rgb(143, 114, 134)" stroke-width="14.18" stroke-opacity="1.00" stroke-linejoin="round"/>
<path d="M390.66,332.50 C385.47,334.35 381.33,335.73 378.87,336.32 C375.37,337.18 361.96,343.16 353.55,345.80 C345.31,348.31 333.26,350.68 326.74,351.42 C318.46,352.36 273.46,352.95 269.77,353.23 C266.29,353.50 265.12,353.87 264.74,354.21 C273.00,354.82 282.82,354.78 288.72,354.62 C295.69,354.31 340.38,350.09 346.58,348.72 C354.04,347.06 361.34,344.23 363.48,342.53 C364.23,341.93 364.56,341.23 364.50,340.93 C364.50,340.93 363.60,341.03 363.60,341.03" fill="none" stroke="rgb(143, 114, 134)" stroke-width="14.18" stroke-opacity="1.00" stroke-linejoin="round"/>
<path d="M307.44,358.80 C309.91,359.92 312.87,360.83 315.55,361.03 C321.62,361.46 331.42,359.75 338.49,357.94 C344.71,356.32 360.09,350.19 362.98,348.91 C378.48,342.07 385.62,335.43 385.96,334.89 C383.93,334.13 366.83,330.26 358.68,329.02 C346.39,327.34 315.83,325.58 300.77,324.77 C289.54,324.28 283.22,324.15 282.45,324.64 C283.11,325.77 285.87,326.95 290.53,328.43 C296.91,330.39 305.75,331.82 316.12,333.09 C339.52,335.68 367.00,338.44 368.39,338.17 C368.39,338.17 368.10,337.91 368.10,337.91 C367.34,337.71 361.34,337.14 360.00,337.01" fill="none" stroke="rgb(143, 114, 134)" stroke-width="14.18" stroke-opacity="1.00" stroke-linejoin="round"/>
<path d="M240.22,325.67 C240.22,325.67 239.18,325.95 239.18,325.95 C246.77,327.36 278.86,329.55 293.85,330.49 C300.84,331.02 317.43,332.50 322.05,333.21 C325.83,333.81 341.72,336.92 345.05,337.95 C345.71,338.15 346.35,338.35 347.00,338.54" fill="none" stroke="rgb(143, 114, 134)" stroke-width="14.18" stroke-opacity="1.00" stroke-linejoin="round"/>
<path d="M240.60,322.64 C246.08,324.78 255.06,325.95 264.79,326.46 C271.47,326.66 283.70,326.64 290.70,326.92 C299.94,327.46 313.58,328.78 317.19,330.52 C317.57,330.71 318.41,331.19 319.72,331.97 C319.72,331.97 313.65,333.45 313.65,333.45" fill="none" stroke="rgb(143, 114, 134)" stroke-width="14.18" stroke-opacity="1.00" stroke-linejoin="round"/>
<path d="M235.58,320.27 C236.12,321.01 236.77,321.47 238.47,322.15 C244.92,324.71 258.23,328.25 265.73,329.47 C278.87,331.42 300.86,332.85 308.69,333.28 C311.86,333.47 314.58,334.06 315.70,334.39 C315.70,334.39 315.67,334.66 315.67,334.66 C315.31,334.82 314.79,334.91 313.40,335.00 C309.91,335.19 302.64,335.58 298.86,335.77 C298.06,335.82 297.25,335.86 296.45,335.90" fill="none" stroke="rgb(143, 114, 134)" stroke-width="14.18" stroke-opacity="1.00" stroke-linejoin="round"/>
<path d="M247.63,332.13 C250.57,333.99 256.30,335.55 259.49,336.04 C269.44,337.41 276.32,337.84 286.92,337.94 C293.82,337.89 308.98,337.63 313.39,337.72 C320.27,337.97 336.21,338.77 339.67,338.55 C345.39,338.16 347.05,337.80 349.14,337.07" fill="none" stroke="rgb(143, 114, 134)" stroke-width="14.18" stroke-opacity="1.00" stroke-linejoin="round"/>
<path d="M245.46,339.54 C245.46,339.54 240.93,342.31 240.93,342.31 C241.60,343.32 242.32,343.85 243.76,344.18 C246.42,344.78 263.05,346.85 269.13,347.17 C273.70,347.39 289.77,347.35 298.67,346.77 C312.16,345.84 328.82,342.61 333.77,340.85 C337.83,339.32 338.86,338.64 340.60,337.19 C340.60,337.19 327.40,339.17 327.40,339.17" fill="none" stroke="rgb(143, 114, 134)" stroke-width="14.18" stroke-opacity="1.00" stroke-linejoin="round"/>
<path d="M239.77,347.62 C239.77,347.62 239.08,348.31 239.08,348.31 C241.16,350.26 254.24,352.24 261.01,352.37 C267.87,352.48 296.26,349.00 311.83,346.24 C318.47,345.02 332.23,342.68 339.35,341.56 C344.06,340.88 344.75,340.82 346.16,340.80" fill="none" stroke="rgb(143, 114, 134)" stroke-width="14.18" stroke-opacity="1.00" stroke-linejoin="round"/>
<path d="M313.88,347.62 C313.68,347.88 317.78,349.40 320.69,349.85 C323.50,350.25 329.79,350.20 333.09,349.78 C336.03,349.38 341.82,347.96 343.02,347.39 C345.81,346.00 345.78,344.62 345.44,343.47 C344.73,343.08 344.19,342.83 343.80,342.74 C342.98,342.56 335.67,342.35 332.76,342.28 C315.69,341.81 291.10,341.14 283.59,340.94" fill="none" stroke="rgb(143, 114, 134)" stroke-width="14.18" stroke-opacity="1.00" stroke-linejoin="round"/>
<path d="M210.02,339.61 C209.65,339.75 208.15,340.41 207.77,340.81 C207.55,341.06 207.27,341.59 206.97,342.40 C209.68,344.62 215.96,346.75 219.27,347.61 C225.02,349.07 238.87,351.33 244.67,351.90 C257.92,353.17 270.55,352.13 273.05,351.22 C271.02,349.41 269.47,348.41 267.70,347.97 C264.48,347.19 258.34,346.90 254.95,346.77 C251.18,346.60 244.33,346.28 241.27,346.13" fill="none" stroke="rgb(143, 114, 134)" stroke-width="14.18" stroke-opacity="1.00" stroke-linejoin="round"/>
<path d="M160.59,344.80 C163.59,345.69 170.26,348.22 173.53,349.24 C180.63,351.44 192.90,353.39 198.93,353.47 C201.90,353.47 203.41,353.10 204.84,352.62 C202.21,350.20 167.76,346.55 166.66,346.13 C166.54,344.91 177.73,343.85 189.13,343.31 C196.59,343.00 208.08,342.56 212.11,342.42" fill="none" stroke="rgb(143, 114, 134)" stroke-width="14.18" stroke-opacity="1.00" stroke-linejoin="round"/>
<path d="M321.05,319.30 C322.76,319.27 327.22,319.59 331.40,320.17 C338.38,321.27 353.15,323.64 360.94,324.93 C364.31,325.50 368.62,326.23 369.57,326.39" fill="none" stroke="rgb(143, 114, 134)" stroke-width="14.18" stroke-opacity="1.00" stroke-linejoin="round"/>
<path d="M330.85,318.11 C330.85,318.11 330.15,318.05 330.15,318.05 C333.97,317.28 337.17,317.28 340.33,317.49 C346.05,317.89 366.03,322.16 370.60,323.46 C371.62,323.75 375.54,324.97 376.71,325.33" fill="none" stroke="rgb(143, 114, 134)" stroke-width="14.18" stroke-opacity="1.00" stroke-linejoin="round"/>
<path d="M342.06,317.74 C344.94,318.67 360.43,320.89 367.26,321.85 C372.07,322.54 379.46,324.75 380.91,325.50 C381.39,325.76 382.20,326.31 383.34,327.14" fill="none" stroke="rgb(143, 114, 134)" stroke-width="14.18" stroke-opacity="1.00" stroke-linejoin="round"/>
<path d="M365.91,320.48 C365.91,320.48 360.02,318.77 360.02,318.77 C363.59,318.63 377.38,322.03 382.63,323.79 C384.37,324.38 389.73,326.32 390.78,326.69 C391.57,326.97 392.34,327.25 393.12,327.52" fill="none" stroke="rgb(143, 114, 134)" stroke-width="14.18" stroke-opacity="1.00" stroke-linejoin="round"/>
<path d="M396.19,327.75 C395.26,327.94 394.87,327.96 394.46,327.65 C390.55,324.80 377.68,319.54 370.29,317.90 C366.91,317.18 358.63,316.36 356.53,316.18 C349.92,315.48 342.26,314.67 341.22,314.56" fill="none" stroke="rgb(143, 114, 134)" stroke-width="14.18" stroke-opacity="1.00" stroke-linejoin="round"/>
<path d="M385.77,470.56 C386.20,469.02 386.94,466.30 387.25,465.11 C388.11,461.86 389.79,455.32 390.60,452.04 C391.17,449.56 392.19,445.03 392.30,444.46" fill="none" stroke="rgb(143, 114, 134)" stroke-width="14.18" stroke-opacity="1.00" stroke-linejoin="round"/>
<path d="M386.47,471.08 C386.47,471.08 386.41,471.77 386.41,471.77 C386.76,468.76 387.93,463.79 388.70,459.73 C389.91,452.68 391.56,442.95 391.99,440.25" fill="none" stroke="rgb(143, 114, 134)" stroke-width="14.18" stroke-opacity="1.00" stroke-linejoin="round"/>
<path d="M388.34,471.22 C388.34,471.22 388.73,471.38 388.73,471.38 C390.27,468.31 391.06,465.16 391.63,461.97 C392.24,458.59 393.54,451.49 394.25,447.78 C394.62,445.96 395.22,442.99 395.47,441.84" fill="none" stroke="rgb(143, 114, 134)" stroke-width="14.18" stroke-opacity="1.00" stroke-linejoin="round"/>
<path d="M65.56,448.32 C65.56,448.32 65.94,448.32 65.94,448.32 C69.17,450.67 79.41,455.54 84.40,457.36 C91.63,460.00 105.14,463.57 110.64,464.72 C119.11,466.41 156.26,470.29 164.87,471.33 C180.04,473.55 214.46,479.27 225.92,480.84 C235.92,481.99 271.85,484.20 283.03,484.41 C311.80,484.43 358.25,484.14 368.53,483.66 C376.77,483.18 386.63,480.89 390.27,479.49 C390.57,479.37 391.10,479.14 391.88,478.79" fill="none" stroke="rgb(166, 126, 130)" stroke-width="14.18" stroke-opacity="1.00" stroke-linejoin="round"/>
<path d="M57.56,446.10 C57.75,445.81 58.01,445.58 58.01,445.58 C58.01,445.58 58.33,445.50 58.64,445.52" fill="none" stroke="rgb(166, 126, 130)" stroke-width="14.18" stroke-opacity="1.00" stroke-linejoin="round"/>
<path d="M40.83,335.38 C40.83,335.38 40.71,336.63 40.63,337.67 C40.31,341.89 40.36,345.92 41.54,347.93 C42.67,349.79 46.86,353.14 49.91,354.84 C55.07,357.66 68.54,362.06 75.71,364.34 C84.60,367.03 92.42,369.11 101.26,371.02 C114.40,373.59 141.54,376.91 156.21,378.09 C172.90,379.06 197.57,379.01 211.96,378.83 C227.00,378.42 261.09,377.02 274.15,375.84 C288.57,374.32 316.51,371.25 329.37,368.75 C347.97,364.79 370.19,359.21 385.71,354.28 C393.63,351.69 403.44,347.45 407.23,344.90 C409.80,343.16 413.00,339.86 414.10,337.86 C414.61,336.86 415.35,334.20 415.44,332.67 C415.48,331.69 415.28,329.10 415.28,329.10" fill="none" stroke="rgb(201, 159, 155)" stroke-width="20.51" stroke-opacity="1.00" stroke-linejoin="round"/>
<path d="M53.73,349.24 C53.73,349.24 53.54,349.99 53.54,349.99 C52.34,349.03 50.74,341.90 50.30,337.84 C50.24,337.24 50.15,336.13 50.06,334.52" fill="none" stroke="rgb(201, 159, 155)" stroke-width="20.51" stroke-opacity="1.00" stroke-linejoin="round"/>
<path d="M43.58,336.72 C43.58,336.72 43.02,336.99 43.02,336.99 C43.02,336.99 41.83,336.51 41.83,336.51 C41.85,335.22 45.31,331.87 47.76,330.07 C52.72,326.48 62.42,322.36 71.85,318.93 C84.90,314.42 112.18,307.27 126.07,304.00 C136.42,301.76 162.90,297.19 179.86,295.05 C190.37,293.88 222.21,291.55 236.11,291.43 C251.20,291.51 279.93,291.95 295.19,292.58 C309.68,293.44 339.24,296.09 351.25,298.03 C359.85,299.49 367.60,301.06 375.94,303.90 C384.69,307.00 394.34,311.23 401.76,315.31 C405.04,317.12 409.26,319.89 411.06,321.89 C412.13,323.11 412.88,324.48 413.42,326.16 C414.12,328.53 413.01,332.47 411.42,335.08 C410.32,336.81 406.43,340.20 404.78,340.59" fill="none" stroke="rgb(201, 159, 155)" stroke-width="20.51" stroke-opacity="1.00" stroke-linejoin="round"/>
<path d="M393.65,312.26 C393.95,312.92 394.23,313.39 394.50,313.69 C394.74,313.96 398.78,317.46 399.59,318.34 C401.05,319.93 402.74,324.52 403.15,326.50 C403.60,328.77 403.56,332.38 403.00,334.15 C402.56,335.50 400.22,339.49 398.75,340.89 C396.23,343.24 391.45,346.25 388.19,347.82" fill="none" stroke="rgb(201, 159, 155)" stroke-width="20.51" stroke-opacity="1.00" stroke-linejoin="round"/>
<path d="M387.82,348.66 C387.46,349.52 387.38,349.82 387.01,350.05 C386.30,350.49 385.32,351.12 384.04,351.97 C384.04,351.97 384.08,351.98 384.08,351.98" fill="none" stroke="rgb(201, 159, 155)" stroke-width="20.51" stroke-opacity="1.00" stroke-linejoin="round"/>
<path d="M58.60,443.66 C58.60,443.66 58.28,443.06 58.28,443.06 C58.17,452.39 58.33,460.80 59.04,466.19 C60.50,476.22 67.30,513.16 69.91,524.39 C73.18,537.82 80.10,565.27 83.52,577.53 C86.78,588.52 99.02,622.58 104.08,635.58 C106.69,642.17 112.86,653.04 115.86,656.35 C116.86,657.44 119.06,659.87 119.46,660.30 C120.57,661.44 121.84,662.62 121.84,662.62" fill="none" stroke="rgb(143, 114, 134)" stroke-width="6.80" stroke-opacity="1.00" stroke-linejoin="round"/>
<path d="M121.56,659.16 C121.56,659.16 122.16,659.54 122.16,659.54 C124.66,661.96 127.64,664.68 129.88,666.54 C133.67,669.61 143.82,673.89 152.34,676.41 C160.35,678.68 171.52,680.99 177.17,682.55 C183.08,684.20 195.64,686.20 202.34,687.23 C211.30,688.55 220.88,689.26 229.68,689.08 C236.56,688.86 250.98,688.03 258.18,687.34 C268.02,686.19 282.81,683.65 287.26,682.68 C291.43,681.76 307.22,677.51 313.72,675.55 C319.76,673.65 334.73,668.31 338.02,666.70 C342.74,664.35 363.23,649.02 363.23,649.02 C363.87,648.51 364.58,647.81 364.58,647.81" fill="none" stroke="rgb(143, 114, 134)" stroke-width="6.80" stroke-opacity="1.00" stroke-linejoin="round"/>
<path d="M363.75,646.27 C363.75,646.27 363.00,646.79 363.00,646.79 C363.00,646.79 363.42,647.14 363.42,647.14 C365.45,645.86 371.17,611.89 373.10,599.62 C375.17,583.79 379.16,551.60 381.09,535.25 C384.16,510.67 391.16,466.54 392.69,453.18 C393.32,446.89 394.45,436.06 394.45,436.06 C394.45,436.06 394.48,435.55 394.48,435.15" fill="none" stroke="rgb(143, 114, 134)" stroke-width="6.80" stroke-opacity="1.00" stroke-linejoin="round"/>
<path d="M55.54,442.47 C55.56,442.78 56.29,443.20 57.22,443.39 C57.22,443.39 57.80,443.38 57.80,443.38 C57.80,443.38 56.35,442.81 55.42,442.39 C52.39,441.04 47.31,437.99 45.88,436.85 C43.15,434.67 38.90,430.01 37.80,428.27 C37.39,427.59 36.26,425.49 36.00,424.95 C36.00,424.95 35.93,424.77 35.93,424.77" fill="none" stroke="rgb(143, 114, 134)" stroke-width="6.80" stroke-opacity="1.00" stroke-linejoin="round"/>
<path d="M34.23,424.24 C34.23,424.24 35.27,423.83 35.27,423.83 C35.48,421.15 35.27,418.32 34.59,413.35 C32.31,397.80 29.12,371.32 27.98,354.90 C27.85,352.58 27.64,345.84 27.55,343.30 C27.31,337.33 27.19,335.79 27.11,335.18" fill="none" stroke="rgb(143, 114, 134)" stroke-width="6.80" stroke-opacity="1.00" stroke-linejoin="round"/>
<path d="M397.54,436.69 C397.54,436.69 397.24,436.23 397.24,436.23 C397.73,435.53 401.68,433.47 404.39,432.07 C406.90,430.75 409.23,429.56 410.60,428.85 C412.42,427.85 413.78,426.49 414.46,424.95 C415.82,421.72 418.56,408.16 420.39,397.87 C421.54,390.80 423.38,376.77 424.07,369.76 C424.79,360.53 425.15,350.64 424.88,343.05 C424.56,335.78 423.46,326.66 422.81,324.04 C422.81,324.04 422.73,324.03 422.73,324.03" fill="none" stroke="rgb(143, 114, 134)" stroke-width="6.80" stroke-opacity="1.00" stroke-linejoin="round"/>
<path d="M29.01,335.08 C29.43,335.16 29.52,335.24 29.52,335.24 C30.46,334.13 31.46,332.37 32.24,330.99 C33.14,329.58 36.84,327.32 41.24,325.20 C54.94,319.04 85.91,306.40 90.90,304.84 C95.00,303.56 108.58,300.49 115.43,299.10 C131.75,296.21 161.99,291.62 176.64,289.48 C184.18,288.51 215.92,286.24 230.33,285.24 C244.10,284.44 276.39,282.73 280.35,283.21 C280.35,283.21 280.90,283.29 281.32,283.36" fill="none" stroke="rgb(143, 114, 134)" stroke-width="6.80" stroke-opacity="1.00" stroke-linejoin="round"/>
<path d="M424.23,326.79 C423.92,326.40 423.86,326.41 423.86,326.41 C423.20,323.76 422.59,322.05 421.85,321.09 C419.83,318.48 406.83,307.50 403.61,305.36 C399.27,302.48 388.28,296.82 382.27,294.51 C375.95,292.09 363.08,288.52 357.43,287.54 C354.13,286.97 341.21,285.56 332.69,285.31 C318.94,285.10 283.37,284.08 277.95,283.15 C277.95,283.15 277.20,283.01 276.49,282.85" fill="none" stroke="rgb(143, 114, 134)" stroke-width="6.80" stroke-opacity="1.00" stroke-linejoin="round"/>
<path d="M101.68,359.39 C101.68,359.39 101.47,359.39 101.47,359.39 C101.47,359.39 103.24,358.39 103.74,358.14 C106.54,356.75 113.51,355.64 117.54,355.02 C131.82,352.65 161.83,347.83 177.57,345.68 C191.94,344.00 220.24,341.67 234.68,340.97 C249.09,340.58 278.21,340.54 292.81,340.62 C307.88,340.98 342.77,342.86 349.09,343.78 C352.58,344.30 364.94,347.13 365.60,347.39 C365.94,347.52 366.43,347.92 366.43,347.92" fill="none" stroke="rgb(122, 77, 98)" stroke-width="6.80" stroke-opacity="1.00" stroke-linejoin="round"/>
<path d="M101.60,358.13 C101.60,358.13 101.60,358.20 101.60,358.20 C101.60,358.20 101.60,358.21 101.60,358.21 C105.01,360.44 108.57,362.23 111.84,363.19 C118.73,365.14 127.36,366.91 136.83,367.64 C149.87,368.46 178.84,367.85 194.23,367.46 C212.99,367.18 238.49,365.66 253.47,364.61 C282.53,362.25 335.47,356.73 340.63,355.97 C346.39,355.11 364.51,349.52 365.21,349.35 C366.32,349.09 369.25,348.58 369.25,348.58" fill="none" stroke="rgb(122, 77, 98)" stroke-width="6.80" stroke-opacity="1.00" stroke-linejoin="round"/>
<path d="M113.86,355.47 C113.38,355.70 113.27,355.76 113.27,355.76 C112.72,355.70 109.44,357.88 107.47,358.95 C112.74,359.12 124.74,358.84 136.58,357.80 C144.43,356.95 159.71,355.21 167.14,354.33 C171.24,353.82 175.59,353.12 179.82,352.33" fill="none" stroke="rgb(122, 77, 98)" stroke-width="6.80" stroke-opacity="1.00" stroke-linejoin="round"/>
<path d="M119.55,360.66 C119.55,360.66 118.10,360.72 118.10,360.72 C119.60,362.48 120.85,363.42 122.78,364.03 C128.47,365.84 139.33,366.67 147.12,366.69 C151.86,366.69 164.31,366.07 166.76,365.93" fill="none" stroke="rgb(122, 77, 98)" stroke-width="6.80" stroke-opacity="1.00" stroke-linejoin="round"/>
<path d="M158.35,354.14 C158.35,354.14 157.72,354.27 157.72,354.27 C160.39,355.85 164.89,356.39 167.49,356.33 C168.98,356.29 170.75,355.98 173.61,355.31 C171.26,354.74 167.79,354.84 164.52,355.28 C161.22,355.78 154.44,356.84 151.61,357.48 C147.70,358.39 146.98,359.02 146.51,360.11 C149.10,361.65 156.53,360.68 157.78,360.48" fill="none" stroke="rgb(122, 77, 98)" stroke-width="12.57" stroke-opacity="1.00" stroke-linejoin="round"/>
<path d="M125.01,359.99 C125.01,359.99 123.95,360.50 123.95,360.50 C133.59,361.27 139.89,361.31 150.82,360.44 C154.87,360.07 163.31,359.26 166.82,358.76 C170.48,358.22 175.86,356.85 179.49,355.65" fill="none" stroke="rgb(122, 77, 98)" stroke-width="12.57" stroke-opacity="1.00" stroke-linejoin="round"/>
<path d="M138.11,356.20 C140.11,356.48 157.31,356.40 165.36,355.97 C169.82,355.69 190.99,353.57 194.07,353.11 C195.71,352.84 197.77,352.51 197.77,352.51" fill="none" stroke="rgb(122, 77, 98)" stroke-width="12.57" stroke-opacity="1.00" stroke-linejoin="round"/>
<path d="M154.84,354.73 C168.95,355.13 204.54,354.32 213.43,354.82 C217.02,355.04 220.95,355.53 225.61,356.22" fill="none" stroke="rgb(122, 77, 98)" stroke-width="12.57" stroke-opacity="1.00" stroke-linejoin="round"/>
<path d="M165.91,358.21 C170.82,360.06 185.97,361.61 193.07,361.69 C197.58,361.73 213.40,360.47 218.01,359.93 C221.87,359.45 226.39,358.55 231.44,357.37" fill="none" stroke="rgb(122, 77, 98)" stroke-width="12.57" stroke-opacity="1.00" stroke-linejoin="round"/>
<path d="M162.76,360.66 C165.83,361.76 170.38,362.62 175.63,362.99 C185.85,363.63 202.95,361.48 213.48,359.63 C222.51,357.83 228.52,355.79 229.46,355.48" fill="none" stroke="rgb(122, 77, 98)" stroke-width="12.57" stroke-opacity="1.00" stroke-linejoin="round"/>
<path d="M162.84,355.54 C162.84,355.54 162.01,355.96 162.01,355.96 C176.06,354.40 201.15,351.50 216.68,350.30 C222.69,349.96 232.24,350.61 235.67,350.88 C237.62,351.02 238.83,351.25 241.00,351.86 C241.00,351.86 240.72,352.09 240.72,352.09 C240.72,352.09 233.74,351.82 232.30,351.76" fill="none" stroke="rgb(122, 77, 98)" stroke-width="12.57" stroke-opacity="1.00" stroke-linejoin="round"/>
<path d="M179.06,349.61 C179.06,349.61 173.19,349.53 173.19,349.53 C171.96,348.36 235.85,349.79 239.66,350.03 C241.73,350.16 246.21,350.61 246.98,350.69" fill="none" stroke="rgb(122, 77, 98)" stroke-width="12.57" stroke-opacity="1.00" stroke-linejoin="round"/>
<path d="M222.05,355.76 C225.61,356.65 239.18,357.62 246.70,357.26 C252.35,356.98 264.26,355.13 273.12,353.13 C281.75,351.13 286.84,349.43 289.95,347.97 C291.85,347.08 292.49,346.56 292.43,346.12 C292.43,346.12 284.67,347.19 284.67,347.19" fill="none" stroke="rgb(122, 77, 98)" stroke-width="12.57" stroke-opacity="1.00" stroke-linejoin="round"/>
<path d="M220.04,357.61 C219.93,358.41 221.79,360.24 225.88,361.07 C230.24,361.93 241.18,361.40 249.51,360.26 C259.60,358.76 282.61,354.38 285.96,353.74 C287.86,353.37 289.17,353.17 292.04,352.80" fill="none" stroke="rgb(122, 77, 98)" stroke-width="12.57" stroke-opacity="1.00" stroke-linejoin="round"/>
<path d="M237.39,346.21 C256.61,347.99 273.39,348.54 280.62,348.72 C290.71,349.01 292.56,349.78 292.95,350.20 C291.94,350.41 291.36,350.49 290.35,350.47 C284.17,350.32 276.90,350.16 275.81,350.13" fill="none" stroke="rgb(122, 77, 98)" stroke-width="12.57" stroke-opacity="1.00" stroke-linejoin="round"/>
<path d="M221.83,347.98 C225.48,347.84 243.42,345.05 251.09,345.00 C261.15,344.96 292.86,348.87 295.35,349.05" fill="none" stroke="rgb(122, 77, 98)" stroke-width="12.57" stroke-opacity="1.00" stroke-linejoin="round"/>
<path d="M292.86,349.01 C295.33,349.38 309.65,349.47 313.11,349.33 C313.95,349.29 316.12,349.12 316.82,349.06" fill="none" stroke="rgb(122, 77, 98)" stroke-width="12.57" stroke-opacity="1.00" stroke-linejoin="round"/>
<path d="M277.01,354.50 C279.38,355.98 281.37,356.83 283.50,357.19 C288.64,358.02 297.76,356.43 306.67,354.32 C310.15,353.40 315.98,351.83 318.31,351.18" fill="none" stroke="rgb(122, 77, 98)" stroke-width="12.57" stroke-opacity="1.00" stroke-linejoin="round"/>
<path d="M302.51,347.24 C304.80,347.63 310.22,347.97 315.97,348.13 C320.08,348.22 327.94,348.40 331.69,348.49 C334.61,348.59 338.37,348.71 339.21,348.74" fill="none" stroke="rgb(122, 77, 98)" stroke-width="12.57" stroke-opacity="1.00" stroke-linejoin="round"/>
<path d="M308.34,349.46 C309.24,349.46 309.87,349.46 310.24,349.47 C310.62,349.48 321.71,350.15 325.09,350.13 C331.83,350.06 337.46,349.03 340.05,348.47" fill="none" stroke="rgb(122, 77, 98)" stroke-width="12.57" stroke-opacity="1.00" stroke-linejoin="round"/>
<path d="M323.67,352.79 C325.59,352.13 326.69,351.84 328.49,351.58 C337.80,350.25 342.42,349.85 345.27,349.70" fill="none" stroke="rgb(122, 77, 98)" stroke-width="12.57" stroke-opacity="1.00" stroke-linejoin="round"/>
<path d="M349.99,348.80 C349.99,348.80 349.64,349.35 349.64,349.35 C349.64,349.35 351.77,349.47 351.77,349.47 C351.77,349.47 350.93,349.28 350.93,349.28" fill="none" stroke="rgb(122, 77, 98)" stroke-width="12.57" stroke-opacity="1.00" stroke-linejoin="round"/>
<path d="M303.78,347.76 C303.78,347.76 315.27,346.26 315.27,346.26 C315.27,346.26 296.74,344.83 296.74,344.83 C296.74,344.83 299.13,344.80 299.13,344.80" fill="none" stroke="rgb(122, 77, 98)" stroke-width="12.57" stroke-opacity="1.00" stroke-linejoin="round"/>
<path d="M225.31,351.64 C226.34,351.41 226.23,348.16 224.84,342.21 C220.77,325.94 211.13,292.45 207.78,283.12 C204.84,275.42 199.63,262.41 197.05,257.85 C193.81,252.37 186.99,241.00 182.68,235.12 C179.08,230.23 168.96,218.83 164.58,215.43 C162.66,213.96 156.90,210.73 153.95,209.75 C150.74,208.74 144.95,209.06 142.17,210.52 C139.43,212.03 135.84,216.47 135.14,219.17 C134.79,220.64 134.78,222.96 135.13,224.32 C136.26,228.30 145.49,237.22 152.78,243.50 C159.13,248.98 181.50,274.63 191.86,286.63 C200.77,297.32 215.84,318.80 216.68,320.43 C217.28,321.59 219.26,326.92 220.86,328.24 C220.86,328.24 220.85,327.92 220.85,327.92 C220.85,327.92 220.99,328.19 220.99,328.19 C220.99,328.19 221.15,328.39 221.15,328.39" fill="none" stroke="rgb(142, 163, 98)" stroke-width="8.20" stroke-opacity="1.00" stroke-linejoin="round"/>
<path d="M159.02,226.14 C159.02,226.14 157.97,226.14 157.97,226.14 C157.42,227.67 157.39,228.94 158.11,230.08 C158.85,231.20 160.62,232.77 161.85,233.38 C163.10,233.98 164.30,233.99 165.36,233.60 C165.95,232.58 166.12,231.10 165.48,229.64 C164.34,227.10 160.47,222.92 158.91,221.65 C157.47,220.49 152.50,217.57 150.31,217.79 C149.02,217.97 147.10,220.28 146.60,222.08 C146.15,223.93 146.39,227.91 147.11,229.68 C147.88,231.46 150.50,234.18 152.24,235.06 C153.94,235.86 157.46,236.28 158.95,235.87 C160.41,235.40 162.42,233.22 162.58,231.80 C162.80,229.11 159.85,224.02 158.29,222.29 C156.42,220.24 152.24,217.02 149.52,215.55 C148.16,214.87 144.96,214.08 143.54,214.27 C141.89,214.52 139.98,217.00 139.34,219.15 C138.91,220.80 139.50,225.67 140.47,227.71 C141.47,229.74 144.57,232.77 146.55,233.71 C148.72,234.68 154.72,235.13 157.10,233.61 C158.35,232.76 159.63,230.25 159.51,228.80 C159.34,227.33 158.17,224.84 157.23,223.70 C155.34,221.51 151.71,218.80 149.46,217.89 C148.38,217.49 145.39,217.14 144.06,217.38 C142.58,217.69 140.27,219.80 139.64,221.32 C139.07,222.85 139.16,226.18 139.85,227.63 C140.65,229.21 143.25,231.06 145.38,231.79 C146.97,232.29 152.02,232.08 153.68,231.46 C155.80,230.61 158.44,228.69 159.09,227.33 C159.65,225.99 158.95,223.20 157.73,221.99 C156.63,220.94 154.16,219.52 152.70,218.98 C151.25,218.51 148.39,218.12 146.88,218.31 C145.24,218.56 142.78,220.46 142.17,221.85 C141.63,223.24 141.93,226.35 142.74,227.72 C143.65,229.12 146.63,231.08 148.58,231.56 C150.46,231.98 154.38,231.71 155.85,231.09 C157.29,230.42 158.55,228.38 158.33,227.08 C158.07,225.87 156.12,223.24 154.68,222.06 C153.24,220.94 150.27,219.60 149.12,219.62 C147.92,219.71 146.31,221.55 146.17,223.13 C145.97,226.22 148.36,232.07 149.70,233.97 C151.27,236.15 155.04,239.33 157.43,240.62 C160.49,242.18 163.34,241.92 164.64,241.13 C165.20,239.70 165.08,237.79 164.13,235.63 C163.81,234.91 158.80,226.56 156.82,223.98 C154.19,220.58 153.30,219.93 152.48,219.73 C152.74,223.29 158.80,234.64 162.43,239.44 C166.00,244.12 174.37,251.99 177.97,253.71 C176.32,250.97 171.38,246.16 168.51,243.33 C162.50,237.54 152.71,228.22 150.71,226.51 C153.71,231.34 163.43,242.70 168.88,248.82 C175.00,255.60 181.21,260.86 184.83,263.72 C182.77,260.74 170.33,247.43 164.96,241.65 C156.42,232.67 154.55,231.18 152.43,229.69 C152.43,229.69 151.69,230.35 151.69,230.35 C153.52,235.24 161.90,247.37 166.86,253.00 C176.03,263.35 189.51,272.24 190.69,273.01 C190.69,273.01 159.46,241.24 159.46,241.24 C161.08,244.35 173.77,261.27 176.52,264.46 C178.32,266.54 182.74,270.83 185.28,272.93 C189.33,276.22 191.10,277.09 193.68,278.01 C193.68,278.01 174.18,255.27 174.18,255.27 C175.76,258.35 183.91,269.75 188.71,275.50 C201.63,290.95 208.63,297.47 209.58,298.20 C198.34,282.25 195.55,275.89 195.55,275.89 C195.55,275.89 213.15,302.40 213.15,302.40 C213.04,300.14 209.84,294.33 208.17,291.66 C205.60,287.63 204.72,286.62 203.02,284.95 C203.80,290.24 207.43,300.95 209.08,304.42 C209.99,306.33 211.30,307.71 213.49,309.41 C214.36,307.88 214.50,306.53 213.64,304.43 C212.07,300.60 204.29,285.47 201.34,279.27 C198.34,273.06 191.77,259.91 188.36,255.57 C188.36,255.57 197.49,273.41 197.49,273.41 C191.28,266.39 185.38,258.98 180.02,250.70 C168.29,232.91 164.28,230.29 162.41,229.25 C162.41,229.25 161.79,230.13 161.79,230.13 C163.37,233.88 174.00,248.14 180.11,254.73 C185.60,260.64 193.15,268.03 195.39,270.03 C186.61,259.57 173.13,238.37 168.27,230.78 C167.33,230.71 178.29,247.52 183.43,253.30 C186.50,256.73 190.00,260.03 191.81,261.22 C191.81,261.22 168.44,228.76 168.44,228.76 C175.28,239.23 190.47,253.00 192.85,254.77 C184.94,246.74 174.96,232.38 174.31,231.43 C178.96,238.95 183.84,243.18 185.15,244.23 C182.28,239.89 170.75,227.65 165.99,223.54 C163.37,221.31 159.54,219.12 156.70,218.07 C156.70,218.07 154.65,214.26 153.04,212.97 C152.21,212.31 149.71,210.72 149.71,210.72 C149.71,210.72 167.92,221.48 167.92,221.48 C167.23,221.69 155.88,216.36 149.49,214.38 C148.81,214.17 148.14,213.96 147.46,213.75 C149.41,213.87 151.98,214.45 153.21,215.17 C153.51,215.35 153.75,215.63 153.92,216.00" fill="none" stroke="rgb(142, 163, 98)" stroke-width="8.20" stroke-opacity="1.00" stroke-linejoin="round"/>
<path d="M226.16,345.45 C226.16,345.45 226.73,345.17 226.73,345.17 C226.73,345.17 226.73,345.14 226.73,345.14 C226.53,329.90 226.66,300.38 226.78,284.10 C227.19,266.95 229.91,230.62 230.93,221.89 C231.63,216.39 234.32,201.70 235.66,197.11 C237.76,189.97 242.72,178.66 246.03,173.09 C247.69,170.35 251.96,164.84 254.53,162.83 C257.15,160.84 262.88,159.11 265.97,159.01 C267.47,158.99 269.79,159.22 270.53,159.57 C272.25,160.45 275.92,166.27 276.42,168.28 C276.99,170.77 275.47,176.16 273.82,179.73 C272.79,181.93 265.53,196.43 261.84,205.05 C258.81,212.31 252.83,226.86 249.89,234.16 C246.43,243.10 239.68,257.50 238.71,260.18 C236.55,266.24 232.96,282.93 231.38,290.61 C226.99,313.24 226.48,317.71 226.54,318.70 C226.45,294.80 227.24,280.79 229.71,258.98 C231.02,249.40 239.53,205.14 239.53,205.14 C237.11,214.61 235.32,222.53 233.46,232.72 C230.81,248.84 230.46,258.87 230.42,260.07 C232.36,257.03 235.44,244.63 237.25,237.27 C241.37,220.71 248.02,194.67 248.17,193.62 C242.88,209.06 233.96,239.74 231.66,251.67 C231.17,254.25 229.24,265.81 229.24,265.81 C229.04,268.07 229.30,269.45 229.80,269.50 C232.03,265.70 237.02,249.77 239.43,241.39 C245.20,219.60 246.93,211.61 247.24,210.05 C244.04,215.25 230.41,269.96 230.62,271.03 C230.62,271.03 254.85,192.65 254.85,192.65 C254.85,192.65 240.11,237.08 240.11,237.08 C242.35,233.85 246.74,224.15 250.84,214.21 C257.68,197.05 260.99,183.80 261.41,180.62 C261.63,178.95 261.14,177.60 259.97,175.75 C257.59,177.13 256.16,178.32 254.96,180.19 C251.47,185.66 245.54,199.57 243.14,207.11 C239.68,218.43 239.52,222.24 239.71,225.26 C241.28,225.17 242.32,224.71 243.37,223.35 C246.96,218.66 254.22,203.90 256.02,197.45 C256.90,194.25 257.92,188.52 258.26,184.98 C259.01,176.67 257.17,171.90 256.65,170.74 C254.65,170.53 253.52,170.75 252.71,171.85 C249.77,175.89 245.20,186.48 242.12,196.37 C240.49,201.84 240.37,202.76 240.42,204.63 C242.07,204.19 244.33,201.30 246.37,197.92 C251.40,189.39 257.00,176.41 257.99,171.56 C258.26,170.21 258.28,168.40 258.15,167.54 C258.15,167.54 256.41,166.93 256.41,166.93 C254.26,168.61 251.54,171.68 249.13,175.72 C246.40,180.35 241.17,192.80 239.72,198.04 C238.77,201.62 239.13,202.69 239.98,203.63 C242.96,201.67 248.11,195.11 249.44,193.23 C252.54,188.83 259.85,172.70 260.93,169.34 C261.32,168.08 261.51,166.52 261.66,164.31 C259.20,166.09 253.80,177.94 249.36,188.75 C245.03,199.57 242.74,206.09 239.58,217.84 C238.24,222.91 238.29,225.51 238.74,226.13 C240.30,225.02 242.17,222.08 243.56,219.36 C247.51,211.52 253.02,197.94 255.67,191.26 C252.94,198.36 247.66,212.71 245.11,219.97 C238.07,241.71 236.75,250.44 236.50,253.25 C238.51,252.19 239.51,251.40 240.25,250.01 C244.20,242.53 247.62,234.99 251.44,225.36 C257.12,210.37 263.56,188.57 264.49,184.78 C264.49,184.78 244.51,229.36 244.51,229.36 C244.51,229.36 266.98,178.65 266.98,178.65 C266.98,178.65 259.72,198.85 259.72,198.85 C262.92,194.83 268.11,179.62 269.10,174.06 C269.61,170.95 269.20,169.11 268.60,166.87 C268.60,166.87 267.15,166.42 267.15,166.42 C265.05,168.59 263.60,171.96 262.83,174.39 C261.75,178.01 261.93,180.89 262.54,182.19 C263.69,182.55 265.16,182.25 266.53,181.03 C268.51,179.26 271.77,173.88 272.32,171.34 C272.65,169.75 272.14,166.91 271.41,165.89 C270.66,164.94 268.64,164.20 267.63,164.53 C266.62,164.91 264.91,166.93 264.28,168.40 C263.72,169.80 263.38,172.52 263.71,173.38 C264.11,174.27 265.98,174.68 267.39,174.19 C268.84,173.62 271.85,171.34 272.90,169.95 C273.99,168.46 274.61,165.65 274.10,164.47 C273.56,163.39 271.14,162.05 269.66,161.98 C268.13,161.96 265.21,163.15 263.96,164.29 C261.48,166.66 260.94,169.82 261.07,171.21 C261.07,171.21 262.15,172.17 262.15,172.17 C267.90,171.87 269.64,166.85 269.59,166.02 C269.59,166.02 266.76,166.02 266.76,166.02" fill="none" stroke="rgb(172, 183, 129)" stroke-width="8.20" stroke-opacity="1.00" stroke-linejoin="round"/>
<path d="M225.98,350.51 C225.98,350.51 225.98,350.43 225.98,350.43 C225.98,350.43 225.98,350.42 225.98,350.42 C226.51,346.47 226.76,328.55 226.84,320.61 C227.11,310.16 227.74,302.70 229.19,291.88 C230.39,283.77 233.50,264.60 234.64,259.30 C235.77,254.09 241.85,228.21 249.75,203.01 C250.20,201.56 251.36,197.86 251.36,197.86 C251.36,197.86 251.31,197.73 251.31,197.73 C251.31,197.73 251.07,198.22 251.07,198.22" fill="none" stroke="rgb(105, 128, 79)" stroke-width="8.20" stroke-opacity="1.00" stroke-linejoin="round"/>
<path d="M225.88,343.77 C225.88,343.77 226.34,324.09 226.96,314.69 C227.73,305.75 228.94,296.85 231.31,287.16 C233.20,279.96 238.06,261.73 238.79,259.39 C240.57,253.71 247.72,238.70 250.51,233.39 C259.31,217.32 268.31,200.79 268.87,199.76 C270.41,196.92 272.89,190.63 274.93,184.77 C276.23,181.00 276.70,178.18 276.52,174.28 C276.28,170.04 274.46,164.86 272.63,162.88 C271.00,161.21 267.06,159.81 263.85,159.58 C262.89,159.53 260.36,159.80 259.64,160.06 C258.85,160.35 257.06,161.15 257.06,161.15" fill="none" stroke="rgb(105, 128, 79)" stroke-width="8.20" stroke-opacity="1.00" stroke-linejoin="round"/>
<path d="M255.76,190.05 C255.76,190.05 256.52,189.20 256.52,189.20 C256.71,189.50 256.84,191.18 256.63,192.40 C255.27,200.20 241.45,235.37 238.44,247.83 C237.50,251.80 233.41,267.96 232.69,272.45 C231.55,280.76 229.44,296.56 228.48,304.04 C226.91,314.32 225.65,325.24 224.13,331.29 C223.43,334.19 222.87,339.88 222.72,342.18 C222.72,342.18 222.69,341.68 222.69,341.68" fill="none" stroke="rgb(172, 183, 129)" stroke-width="8.20" stroke-opacity="1.00" stroke-linejoin="round"/>
<path d="M223.89,339.45 C223.89,339.45 223.63,338.67 223.63,338.67 C223.63,338.67 223.76,341.01 223.88,342.31 C223.96,343.18 224.40,346.93 224.56,348.29 C224.56,348.29 225.53,342.04 225.53,342.04 C225.53,342.04 225.12,346.32 225.12,346.32 C225.12,346.32 224.98,345.90 224.98,345.90 C224.98,345.90 224.95,345.50 224.95,345.50" fill="none" stroke="rgb(172, 183, 129)" stroke-width="8.20" stroke-opacity="1.00" stroke-linejoin="round"/>
<path d="M256.80,168.77 C256.42,166.92 256.69,165.49 257.93,164.51 C259.28,163.47 261.66,163.04 263.22,163.55 C264.01,163.83 265.43,164.75 265.66,164.96" fill="none" stroke="rgb(172, 183, 129)" stroke-width="8.20" stroke-opacity="1.00" stroke-linejoin="round"/>
<path d="M256.80,164.55 C256.80,164.55 255.67,163.71 255.67,163.71 C257.41,162.68 259.62,161.83 261.21,161.81 C261.96,161.79 262.89,161.91 264.00,162.16 C264.30,162.23 264.71,162.36 265.24,162.55" fill="none" stroke="rgb(172, 183, 129)" stroke-width="8.20" stroke-opacity="1.00" stroke-linejoin="round"/>
<path d="M258.51,162.30 C258.51,162.30 257.45,162.04 257.45,162.04 C258.49,162.18 260.36,162.07 261.04,162.15 C262.61,162.36 264.58,164.01 266.13,166.40 C266.67,167.26 267.29,168.33 267.99,169.61 C268.15,169.92 268.30,170.23 268.43,170.52" fill="none" stroke="rgb(172, 183, 129)" stroke-width="8.20" stroke-opacity="1.00" stroke-linejoin="round"/>
<path d="M261.15,162.50 C261.15,162.50 262.91,163.99 264.24,165.23 C264.78,165.73 265.51,166.56 265.51,166.56" fill="none" stroke="rgb(172, 183, 129)" stroke-width="8.20" stroke-opacity="1.00" stroke-linejoin="round"/>
<path d="M274.92,544.36 C274.96,543.97 274.98,543.62 274.97,543.31 C274.96,542.84 274.79,536.92 275.31,534.86 C275.31,534.86 276.65,535.19 276.65,535.19 C277.68,536.95 278.60,541.29 279.10,547.30 C279.30,549.72 279.10,550.83 278.42,552.06 C277.54,551.57 277.10,550.91 276.65,549.12 C274.66,541.06 275.40,537.95 276.08,535.81 C276.08,535.81 277.82,535.99 277.82,535.99 C278.80,537.40 279.80,540.84 280.49,545.54 C280.76,547.43 280.55,548.57 279.79,550.25 C278.65,548.92 278.13,547.88 277.77,545.83 C276.85,540.24 277.11,538.78 278.10,536.07 C279.43,536.57 279.99,537.28 280.23,539.19 C280.83,544.44 280.64,545.46 279.89,547.16 C278.59,546.31 277.99,545.44 277.57,543.45 C276.43,538.10 276.38,536.52 276.57,533.84 C276.57,533.84 278.02,533.77 278.02,533.77 C278.02,533.77 280.17,544.47 280.17,544.47 C280.17,544.47 278.25,535.39 278.25,535.39" fill="none" stroke="rgb(89, 59, 73)" stroke-width="16.19" stroke-opacity="1.00" stroke-linejoin="round"/>
<path d="M175.17,545.71 C175.21,545.32 175.23,544.97 175.22,544.66 C175.20,544.19 175.04,538.27 175.56,536.21 C175.56,536.21 176.90,536.54 176.90,536.54 C177.93,538.30 178.85,542.64 179.35,548.65 C179.54,551.07 179.35,552.18 178.67,553.41 C177.79,552.92 177.35,552.26 176.90,550.47 C174.91,542.41 175.65,539.29 176.33,537.16 C176.33,537.16 178.06,537.34 178.06,537.34 C179.05,538.75 180.05,542.19 180.73,546.89 C181.01,548.78 180.80,549.92 180.03,551.60 C178.89,550.27 178.38,549.23 178.02,547.18 C177.10,541.59 177.36,540.13 178.35,537.42 C179.68,537.92 180.24,538.62 180.48,540.54 C181.08,545.79 180.88,546.81 180.14,548.51 C178.83,547.65 178.23,546.79 177.81,544.80 C176.68,539.45 176.63,537.87 176.81,535.19 C176.81,535.19 178.27,535.11 178.27,535.11 C178.27,535.11 180.42,545.82 180.42,545.82 C180.42,545.82 178.50,536.74 178.50,536.74" fill="none" stroke="rgb(89, 59, 73)" stroke-width="16.19" stroke-opacity="1.00" stroke-linejoin="round"/>
<path d="M240.54,563.96 C240.54,563.96 240.58,564.26 240.58,564.26 C240.58,564.26 239.56,565.07 239.56,565.07 C238.89,564.41 236.32,561.80 235.91,561.44 C234.22,559.92 227.60,559.01 225.47,559.27 C221.90,559.76 214.77,563.22 214.24,564.22 C214.09,564.52 214.04,565.15 214.08,566.12" fill="none" stroke="rgb(89, 59, 73)" stroke-width="10.00" stroke-opacity="1.00" stroke-linejoin="round"/>
</g>
</svg>
